<svg width="14" height="14" viewBox="0 0 14 14" fill="none" xmlns="http://www.w3.org/2000/svg">
<path d="M12.6569 10.6365L9.22234 7.20202C9.11077 7.09045 9.11077 6.90953 9.22234 6.79796L12.6569 3.36344C13.2147 2.80559 13.2147 1.90099 12.6569 1.34313C12.099 0.785281 11.1944 0.785281 10.6365 1.34313L7.20203 4.77765C7.09046 4.88922 6.90954 4.88922 6.79797 4.77765L3.36345 1.34313C2.8056 0.785281 1.901 0.785281 1.34315 1.34313C0.785292 1.90099 0.785292 2.80559 1.34315 3.36344L4.77766 6.79796C4.88923 6.90953 4.88923 7.09045 4.77766 7.20202L1.34315 10.6365C0.785292 11.1944 0.785293 12.099 1.34315 12.6568C1.901 13.2147 2.8056 13.2147 3.36345 12.6568L6.79797 9.22232C6.90954 9.11075 7.09046 9.11075 7.20203 9.22232L10.6365 12.6568C11.1944 13.2147 12.099 13.2147 12.6569 12.6568C13.2147 12.099 13.2147 11.1944 12.6569 10.6365Z" fill="white"/>
</svg>
