<svg width="16" height="16" viewBox="0 0 16 16" fill="none" xmlns="http://www.w3.org/2000/svg">
<g clip-path="url(#clip0)">
<path d="M14.8225 2.66663C14.8225 3.86328 13.8525 4.83337 12.6559 4.83337C11.4592 4.83337 10.4893 3.86328 10.4893 2.66663C10.4893 1.47009 11.4592 0.5 12.6559 0.5C13.8525 0.5 14.8225 1.47009 14.8225 2.66663Z" fill="#1A4B93"/>
<path d="M12.6559 5.33337C11.1852 5.33337 9.98926 4.13733 9.98926 2.66663C9.98926 1.19604 11.1852 0 12.6559 0C14.1266 0 15.3225 1.19604 15.3225 2.66663C15.3225 4.13733 14.1266 5.33337 12.6559 5.33337ZM12.6559 1C11.7366 1 10.9893 1.74805 10.9893 2.66663C10.9893 3.58533 11.7366 4.33337 12.6559 4.33337C13.5752 4.33337 14.3225 3.58533 14.3225 2.66663C14.3225 1.74805 13.5752 1 12.6559 1Z" fill="#1A4B93"/>
<path d="M14.8225 13.3335C14.8225 14.53 13.8525 15.5001 12.6559 15.5001C11.4592 15.5001 10.4893 14.53 10.4893 13.3335C10.4893 12.1368 11.4592 11.1667 12.6559 11.1667C13.8525 11.1667 14.8225 12.1368 14.8225 13.3335Z" fill="#1A4B93"/>
<path d="M12.6559 16.0001C11.1852 16.0001 9.98926 14.8041 9.98926 13.3335C9.98926 11.8628 11.1852 10.6667 12.6559 10.6667C14.1266 10.6667 15.3225 11.8628 15.3225 13.3335C15.3225 14.8041 14.1266 16.0001 12.6559 16.0001ZM12.6559 11.6667C11.7366 11.6667 10.9893 12.4148 10.9893 13.3335C10.9893 14.2521 11.7366 15.0001 12.6559 15.0001C13.5752 15.0001 14.3225 14.2521 14.3225 13.3335C14.3225 12.4148 13.5752 11.6667 12.6559 11.6667Z" fill="#1A4B93"/>
<path d="M5.48962 7.99988C5.48962 9.19653 4.51953 10.1665 3.32288 10.1665C2.12634 10.1665 1.15625 9.19653 1.15625 7.99988C1.15625 6.80322 2.12634 5.83325 3.32288 5.83325C4.51953 5.83325 5.48962 6.80322 5.48962 7.99988Z" fill="#1A4B93"/>
<path d="M3.32288 10.6665C1.85229 10.6665 0.65625 9.47058 0.65625 7.99988C0.65625 6.52917 1.85229 5.33325 3.32288 5.33325C4.79358 5.33325 5.98962 6.52917 5.98962 7.99988C5.98962 9.47058 4.79358 10.6665 3.32288 10.6665ZM3.32288 6.33325C2.40356 6.33325 1.65625 7.08118 1.65625 7.99988C1.65625 8.91858 2.40356 9.6665 3.32288 9.6665C4.24231 9.6665 4.98962 8.91858 4.98962 7.99988C4.98962 7.08118 4.24231 6.33325 3.32288 6.33325Z" fill="#1A4B93"/>
<path d="M4.89682 7.67994C4.66477 7.67994 4.43943 7.55921 4.31675 7.34327C4.13474 7.02393 4.2468 6.61658 4.56614 6.43384L10.752 2.90723C11.0714 2.72388 11.4787 2.83594 11.6615 3.1565C11.8435 3.47584 11.7314 3.88319 11.4121 4.06593L5.22605 7.59254C5.12204 7.65186 5.00876 7.67994 4.89682 7.67994Z" fill="#1A4B93"/>
<path d="M11.0824 13.1801C10.9703 13.1801 10.8571 13.152 10.7531 13.0927L4.56702 9.56604C4.24768 9.38403 4.13575 8.97668 4.31775 8.65661C4.49903 8.33667 4.90699 8.224 5.22705 8.40735L11.4131 11.934C11.7324 12.116 11.8444 12.5233 11.6624 12.8434C11.5391 13.0593 11.3137 13.1801 11.0824 13.1801Z" fill="#1A4B93"/>
</g>
<defs>
<clipPath id="clip0">
<rect width="16" height="16" fill="white"/>
</clipPath>
</defs>
</svg>
