<svg width="70" height="70" viewBox="0 0 70 70" fill="none" xmlns="http://www.w3.org/2000/svg">
    <path d="M54.1874 27.8292C54.1874 25.5721 52.351 23.7357 50.0939 23.7357H49.4648V31.9227H50.0939C52.351 31.9227 54.1874 30.0863 54.1874 27.8292Z" fill="url(#paint0_linear)"/>
    <path d="M35.0003 45.2083C40.0876 45.2083 44.3274 41.2384 45.1979 36.0242H42.4224C40.2637 36.0242 38.1712 35.2517 36.5305 33.8491L35.0003 32.5411L33.47 33.8491C31.8294 35.2516 29.7369 36.024 27.5783 36.024H24.8027C25.6732 41.2384 29.913 45.2083 35.0003 45.2083Z" fill="url(#paint1_linear)"/>
    <path d="M41.0782 17.3989C40.8222 17.3989 40.5814 17.4986 40.4004 17.6796C38.9579 19.1221 37.0401 19.9166 35 19.9166C32.96 19.9166 31.0421 19.1221 29.5996 17.6797C29.4186 17.4986 29.1778 17.3989 28.9217 17.3989C26.5584 17.3989 24.6357 19.3216 24.6357 21.6849V31.9227H27.5779C28.7601 31.9227 29.9061 31.4997 30.8048 30.7316L35 27.1455L39.1952 30.7315C40.0939 31.4997 41.2398 31.9227 42.4222 31.9227H45.3644V21.6849C45.3642 19.3216 43.4415 17.3989 41.0782 17.3989Z" fill="url(#paint2_linear)"/>
    <path d="M53.7351 65.8984C55.0795 65.8984 56.1732 64.8047 56.1732 63.4603C56.1732 62.116 55.0795 61.0222 53.7351 61.0222C52.3906 61.0222 51.2969 62.116 51.2969 63.4603C51.2969 64.8047 52.3906 65.8984 53.7351 65.8984Z" fill="url(#paint3_linear)"/>
    <path d="M16.8974 61.4923C14.3392 61.4923 12.2227 63.4195 11.9238 65.8985H21.8709C21.5721 63.4195 19.4555 61.4923 16.8974 61.4923Z" fill="url(#paint4_linear)"/>
    <path d="M14.8866 57.6169V50.8215L12.9567 51.0105C9.40119 51.3586 6.12145 53.0077 3.72162 55.654C1.32166 58.3002 0 61.7251 0 65.2975V69.9999H7.78518V66.5019C7.78518 62.1686 10.8269 58.5348 14.8866 57.6169Z" fill="url(#paint5_linear)"/>
    <path d="M15.8115 27.8292C15.8115 30.0863 17.6479 31.9227 19.905 31.9227H20.5341V23.7357H19.905C17.6478 23.7357 15.8115 25.5721 15.8115 27.8292Z" fill="url(#paint6_linear)"/>
    <path d="M66.2784 55.6539C63.8784 53.0076 60.5986 51.3585 57.0433 51.0104L55.7871 50.8873V57.2517C58.3913 58.1141 60.276 60.5704 60.276 63.4601C60.276 67.0661 57.3423 69.9998 53.7363 69.9998H70V65.2974C70 61.7252 68.6783 58.3002 66.2784 55.6539Z" fill="url(#paint7_linear)"/>
    <path d="M47.1967 63.4604C47.1967 60.5707 49.0815 58.1144 51.6857 57.2518V50.5493L35.0001 63.3567L18.9883 51.0665V57.6359C23.007 58.584 26.0078 62.1979 26.0078 66.5021V70H53.7363C50.1304 70 47.1967 67.0663 47.1967 63.4604Z" fill="url(#paint8_linear)"/>
    <path d="M46.4648 49.3861V43.3417C43.8178 46.9684 39.6635 49.31 35 49.31C30.3366 49.31 26.1823 46.9686 23.5352 43.3418V49.3863L35 58.1863L46.4648 49.3861Z" fill="url(#paint9_linear)"/>
    <path d="M19.9051 19.6342H20.7887C21.7061 15.9975 25.0042 13.2974 28.9217 13.2974C30.2733 13.2974 31.544 13.8238 32.4996 14.7794C33.1675 15.4472 34.0554 15.8151 35 15.8151C35.9446 15.8151 36.8323 15.4473 37.5001 14.7794C38.4558 13.8236 39.7265 13.2974 41.0782 13.2974C44.9957 13.2974 48.2937 15.9975 49.2112 19.6342H50.0948C51.1984 19.6342 52.2511 19.8548 53.213 20.252V18.2127C53.2127 8.17018 45.0424 0 34.9998 0C24.9573 0 16.7871 8.17018 16.7871 18.2127V20.252C17.7488 19.8547 18.8015 19.6342 19.9051 19.6342Z" fill="url(#paint10_linear)"/>
    <defs>
        <linearGradient id="paint0_linear" x1="51.8261" y1="23.7357" x2="51.8261" y2="31.9227" gradientUnits="userSpaceOnUse">
            <stop stop-color="#D5D5D5"/>
            <stop offset="1" stop-color="#ECECEC"/>
        </linearGradient>
        <linearGradient id="paint1_linear" x1="35.0003" y1="32.5411" x2="35.0003" y2="45.2083" gradientUnits="userSpaceOnUse">
            <stop stop-color="#D5D5D5"/>
            <stop offset="1" stop-color="#ECECEC"/>
        </linearGradient>
        <linearGradient id="paint2_linear" x1="35.0001" y1="17.3989" x2="35.0001" y2="31.9227" gradientUnits="userSpaceOnUse">
            <stop stop-color="#D5D5D5"/>
            <stop offset="1" stop-color="#ECECEC"/>
        </linearGradient>
        <linearGradient id="paint3_linear" x1="53.735" y1="61.0222" x2="53.735" y2="65.8984" gradientUnits="userSpaceOnUse">
            <stop stop-color="#D5D5D5"/>
            <stop offset="1" stop-color="#ECECEC"/>
        </linearGradient>
        <linearGradient id="paint4_linear" x1="16.8974" y1="61.4923" x2="16.8974" y2="65.8985" gradientUnits="userSpaceOnUse">
            <stop stop-color="#D5D5D5"/>
            <stop offset="1" stop-color="#ECECEC"/>
        </linearGradient>
        <linearGradient id="paint5_linear" x1="7.44331" y1="50.8215" x2="7.44331" y2="69.9999" gradientUnits="userSpaceOnUse">
            <stop stop-color="#D5D5D5"/>
            <stop offset="1" stop-color="#ECECEC"/>
        </linearGradient>
        <linearGradient id="paint6_linear" x1="18.1728" y1="23.7357" x2="18.1728" y2="31.9227" gradientUnits="userSpaceOnUse">
            <stop stop-color="#D5D5D5"/>
            <stop offset="1" stop-color="#ECECEC"/>
        </linearGradient>
        <linearGradient id="paint7_linear" x1="61.8682" y1="50.8873" x2="61.8682" y2="69.9998" gradientUnits="userSpaceOnUse">
            <stop stop-color="#D5D5D5"/>
            <stop offset="1" stop-color="#ECECEC"/>
        </linearGradient>
        <linearGradient id="paint8_linear" x1="36.3623" y1="50.5493" x2="36.3623" y2="70" gradientUnits="userSpaceOnUse">
            <stop stop-color="#D5D5D5"/>
            <stop offset="1" stop-color="#ECECEC"/>
        </linearGradient>
        <linearGradient id="paint9_linear" x1="35" y1="43.3417" x2="35" y2="58.1863" gradientUnits="userSpaceOnUse">
            <stop stop-color="#D5D5D5"/>
            <stop offset="1" stop-color="#ECECEC"/>
        </linearGradient>
        <linearGradient id="paint10_linear" x1="35" y1="0" x2="35" y2="20.252" gradientUnits="userSpaceOnUse">
            <stop stop-color="#D5D5D5"/>
            <stop offset="1" stop-color="#ECECEC"/>
        </linearGradient>
    </defs>
</svg>