<svg width="70" height="70" viewBox="0 0 70 70" fill="none" xmlns="http://www.w3.org/2000/svg">
    <path d="M69.0802 42.9962L57.5586 35.3787V42.5907L61.4075 44.9002C63.2499 46.0057 64.3945 48.0272 64.3945 50.1757V70H67.9492C69.0818 70 70 69.0818 70 67.9492V44.707C70 44.0185 69.6545 43.376 69.0802 42.9962Z" fill="url(#paint0_linear)"/>
    <path d="M12.4414 35.3787L0.919844 42.9962C0.345488 43.376 0 44.0185 0 44.707V67.9492C0 69.0818 0.918203 70 2.05078 70H5.60547V50.1757C5.60547 48.0272 6.75008 46.0057 8.5925 44.9002L12.4414 42.5907V35.3787Z" fill="url(#paint1_linear)"/>
    <path d="M59.2972 48.4173L53.457 44.9131V25.5664C53.457 24.837 53.0697 24.1624 52.4396 23.7949L37.0508 14.8183V8.47656H39.1016C40.2341 8.47656 41.1523 7.55836 41.1523 6.42578C41.1523 5.2932 40.2341 4.375 39.1016 4.375H37.0508V2.05078C37.0508 0.918203 36.1326 0 35 0C33.8674 0 32.9492 0.918203 32.9492 2.05078V4.375H30.8984C29.7659 4.375 28.8477 5.2932 28.8477 6.42578C28.8477 7.55836 29.7659 8.47656 30.8984 8.47656H32.9492V14.8183L17.5604 23.7951C16.9303 24.1624 16.543 24.837 16.543 25.5664V44.9131L10.7028 48.4172C10.0851 48.7879 9.70703 49.4554 9.70703 50.1758V70H26.1133V55.6445C26.1133 50.7444 30.0999 46.7578 35 46.7578C39.9001 46.7578 43.8867 50.7444 43.8867 55.6445V70H60.293V50.1758C60.293 49.4554 59.9149 48.7879 59.2972 48.4173ZM19.9609 59.7461C19.9609 60.8787 19.0427 61.7969 17.9102 61.7969C16.7776 61.7969 15.8594 60.8787 15.8594 59.7461V54.2773C15.8594 53.1448 16.7776 52.2266 17.9102 52.2266C19.0427 52.2266 19.9609 53.1448 19.9609 54.2773V59.7461ZM35 38.5547C31.6076 38.5547 28.8477 35.7947 28.8477 32.4023C28.8477 29.0099 31.6076 26.25 35 26.25C38.3924 26.25 41.1523 29.0099 41.1523 32.4023C41.1523 35.7947 38.3924 38.5547 35 38.5547ZM54.1406 59.7461C54.1406 60.8787 53.2224 61.7969 52.0898 61.7969C50.9573 61.7969 50.0391 60.8787 50.0391 59.7461V54.2773C50.0391 53.1448 50.9573 52.2266 52.0898 52.2266C53.2224 52.2266 54.1406 53.1448 54.1406 54.2773V59.7461Z" fill="url(#paint2_linear)"/>
    <path d="M35 34.4531C36.1326 34.4531 37.0508 33.535 37.0508 32.4023C37.0508 31.2697 36.1326 30.3516 35 30.3516C33.8674 30.3516 32.9492 31.2697 32.9492 32.4023C32.9492 33.535 33.8674 34.4531 35 34.4531Z" fill="url(#paint3_linear)"/>
    <path d="M35 50.8594C32.3615 50.8594 30.2148 53.006 30.2148 55.6445V70H39.7852V55.6445C39.7852 53.006 37.6385 50.8594 35 50.8594Z" fill="url(#paint4_linear)"/>
    <defs>
        <linearGradient id="paint0_linear" x1="63.7793" y1="35.3787" x2="63.7793" y2="70" gradientUnits="userSpaceOnUse">
            <stop stop-color="#D9D9D9"/>
            <stop offset="1" stop-color="#ECECEC"/>
        </linearGradient>
        <linearGradient id="paint1_linear" x1="6.2207" y1="35.3787" x2="6.2207" y2="70" gradientUnits="userSpaceOnUse">
            <stop stop-color="#D9D9D9"/>
            <stop offset="1" stop-color="#ECECEC"/>
        </linearGradient>
        <linearGradient id="paint2_linear" x1="35" y1="0" x2="35" y2="70" gradientUnits="userSpaceOnUse">
            <stop stop-color="#D9D9D9"/>
            <stop offset="1" stop-color="#ECECEC"/>
        </linearGradient>
        <linearGradient id="paint3_linear" x1="35" y1="30.3516" x2="35" y2="34.4531" gradientUnits="userSpaceOnUse">
            <stop stop-color="#D9D9D9"/>
            <stop offset="1" stop-color="#ECECEC"/>
        </linearGradient>
        <linearGradient id="paint4_linear" x1="35" y1="50.8594" x2="35" y2="70" gradientUnits="userSpaceOnUse">
            <stop stop-color="#D9D9D9"/>
            <stop offset="1" stop-color="#ECECEC"/>
        </linearGradient>
    </defs>
</svg>