<svg width="28" height="28" viewBox="0 0 28 28" fill="none" xmlns="http://www.w3.org/2000/svg">
<path d="M15.3327 7.33317H12.666V12.6665H7.33268V15.3332H12.666V20.6665H15.3327V15.3332H20.666V12.6665H15.3327V7.33317ZM13.9993 0.666504C6.63935 0.666504 0.666016 6.63984 0.666016 13.9998C0.666016 21.3598 6.63935 27.3332 13.9993 27.3332C21.3594 27.3332 27.3327 21.3598 27.3327 13.9998C27.3327 6.63984 21.3594 0.666504 13.9993 0.666504ZM13.9993 24.6665C8.11935 24.6665 3.33268 19.8798 3.33268 13.9998C3.33268 8.11984 8.11935 3.33317 13.9993 3.33317C19.8793 3.33317 24.666 8.11984 24.666 13.9998C24.666 19.8798 19.8793 24.6665 13.9993 24.6665Z" fill="#1A4B93"/>
</svg>
