<svg width="715" height="798" viewBox="0 0 715 798" fill="none" xmlns="http://www.w3.org/2000/svg">
    <mask id="mask0" mask-type="alpha" maskUnits="userSpaceOnUse" x="111" y="441" width="513" height="357">
        <rect x="111" y="441" width="512.675" height="357" fill="#C4C4C4"/>
    </mask>
    <g mask="url(#mask0)">
        <rect x="428.962" y="790.14" width="11.8935" height="11.8935" rx="5" transform="rotate(180 428.962 790.14)" fill="#F1F1F1"/>
        <rect x="268.398" y="790.14" width="11.8935" height="11.8935" rx="5" transform="rotate(180 268.398 790.14)" fill="#F1F1F1"/>
        <rect x="428.962" y="736.619" width="11.8935" height="11.8935" rx="5" transform="rotate(180 428.962 736.619)" fill="#F1F1F1"/>
        <rect x="268.398" y="736.619" width="11.8935" height="11.8935" rx="5" transform="rotate(180 268.398 736.619)" fill="#F1F1F1"/>
        <rect x="428.962" y="683.098" width="11.8935" height="11.8935" rx="5" transform="rotate(180 428.962 683.098)" fill="#F1F1F1"/>
        <rect x="268.398" y="683.098" width="11.8935" height="11.8935" rx="5" transform="rotate(180 268.398 683.098)" fill="#F1F1F1"/>
        <rect x="375.441" y="790.14" width="11.8935" height="11.8935" rx="5" transform="rotate(180 375.441 790.14)" fill="#F1F1F1"/>
        <rect x="214.879" y="790.14" width="11.8935" height="11.8935" rx="5" transform="rotate(180 214.879 790.14)" fill="#F1F1F1"/>
        <rect x="375.441" y="736.619" width="11.8935" height="11.8935" rx="5" transform="rotate(180 375.441 736.619)" fill="#F1F1F1"/>
        <rect x="214.879" y="736.619" width="11.8935" height="11.8935" rx="5" transform="rotate(180 214.879 736.619)" fill="#F1F1F1"/>
        <rect x="375.441" y="683.098" width="11.8935" height="11.8935" rx="5" transform="rotate(180 375.441 683.098)" fill="#F1F1F1"/>
        <rect x="214.879" y="683.098" width="11.8935" height="11.8935" rx="5" transform="rotate(180 214.879 683.098)" fill="#F1F1F1"/>
        <rect x="321.919" y="790.14" width="11.8935" height="11.8935" rx="5" transform="rotate(180 321.919 790.14)" fill="#F1F1F1"/>
        <rect x="161.358" y="790.14" width="11.8935" height="11.8935" rx="5" transform="rotate(180 161.358 790.14)" fill="#F1F1F1"/>
        <rect x="321.919" y="736.619" width="11.8935" height="11.8935" rx="5" transform="rotate(180 321.919 736.619)" fill="#F1F1F1"/>
        <rect x="161.358" y="736.619" width="11.8935" height="11.8935" rx="5" transform="rotate(180 161.358 736.619)" fill="#F1F1F1"/>
        <rect x="321.919" y="683.098" width="11.8935" height="11.8935" rx="5" transform="rotate(180 321.919 683.098)" fill="#F1F1F1"/>
        <rect x="161.358" y="683.098" width="11.8935" height="11.8935" rx="5" transform="rotate(180 161.358 683.098)" fill="#F1F1F1"/>
        <rect x="402.2" y="790.14" width="11.8935" height="11.8935" rx="5" transform="rotate(180 402.2 790.14)" fill="#F1F1F1"/>
        <rect x="241.64" y="790.14" width="11.8935" height="11.8935" rx="5" transform="rotate(180 241.64 790.14)" fill="#F1F1F1"/>
        <rect x="402.2" y="736.619" width="11.8935" height="11.8935" rx="5" transform="rotate(180 402.2 736.619)" fill="#F1F1F1"/>
        <rect x="241.64" y="736.619" width="11.8935" height="11.8935" rx="5" transform="rotate(180 241.64 736.619)" fill="#F1F1F1"/>
        <rect x="402.2" y="683.098" width="11.8935" height="11.8935" rx="5" transform="rotate(180 402.2 683.098)" fill="#F1F1F1"/>
        <rect x="241.64" y="683.098" width="11.8935" height="11.8935" rx="5" transform="rotate(180 241.64 683.098)" fill="#F1F1F1"/>
        <rect x="348.681" y="790.14" width="11.8935" height="11.8935" rx="5" transform="rotate(180 348.681 790.14)" fill="#F1F1F1"/>
        <rect x="188.117" y="790.14" width="11.8935" height="11.8935" rx="5" transform="rotate(180 188.117 790.14)" fill="#F1F1F1"/>
        <rect x="348.681" y="736.619" width="11.8935" height="11.8935" rx="5" transform="rotate(180 348.681 736.619)" fill="#F1F1F1"/>
        <rect x="188.117" y="736.619" width="11.8935" height="11.8935" rx="5" transform="rotate(180 188.117 736.619)" fill="#F1F1F1"/>
        <rect x="348.681" y="683.098" width="11.8935" height="11.8935" rx="5" transform="rotate(180 348.681 683.098)" fill="#F1F1F1"/>
        <rect x="188.117" y="683.098" width="11.8935" height="11.8935" rx="5" transform="rotate(180 188.117 683.098)" fill="#F1F1F1"/>
        <rect x="295.16" y="790.14" width="11.8935" height="11.8935" rx="5" transform="rotate(180 295.16 790.14)" fill="#F1F1F1"/>
        <rect x="134.597" y="790.14" width="11.8935" height="11.8935" rx="5" transform="rotate(180 134.597 790.14)" fill="#F1F1F1"/>
        <rect x="295.16" y="736.619" width="11.8935" height="11.8935" rx="5" transform="rotate(180 295.16 736.619)" fill="#F1F1F1"/>
        <rect x="134.597" y="736.619" width="11.8935" height="11.8935" rx="5" transform="rotate(180 134.597 736.619)" fill="#F1F1F1"/>
        <rect x="295.16" y="683.098" width="11.8935" height="11.8935" rx="5" transform="rotate(180 295.16 683.098)" fill="#F1F1F1"/>
        <rect x="134.597" y="683.098" width="11.8935" height="11.8935" rx="5" transform="rotate(180 134.597 683.098)" fill="#F1F1F1"/>
        <rect x="428.962" y="763.379" width="11.8935" height="11.8935" rx="5" transform="rotate(180 428.962 763.379)" fill="#F1F1F1"/>
        <rect x="268.398" y="763.379" width="11.8935" height="11.8935" rx="5" transform="rotate(180 268.398 763.379)" fill="#F1F1F1"/>
        <rect x="428.962" y="709.859" width="11.8935" height="11.8935" rx="5" transform="rotate(180 428.962 709.859)" fill="#F1F1F1"/>
        <rect x="268.398" y="709.859" width="11.8935" height="11.8935" rx="5" transform="rotate(180 268.398 709.859)" fill="#F1F1F1"/>
        <rect x="428.962" y="656.338" width="11.8935" height="11.8935" rx="5" transform="rotate(180 428.962 656.338)" fill="#F1F1F1"/>
        <rect x="268.398" y="656.338" width="11.8935" height="11.8935" rx="5" transform="rotate(180 268.398 656.338)" fill="#F1F1F1"/>
        <rect x="375.441" y="763.379" width="11.8935" height="11.8935" rx="5" transform="rotate(180 375.441 763.379)" fill="#F1F1F1"/>
        <rect x="214.879" y="763.379" width="11.8935" height="11.8935" rx="5" transform="rotate(180 214.879 763.379)" fill="#F1F1F1"/>
        <rect x="375.441" y="709.859" width="11.8935" height="11.8935" rx="5" transform="rotate(180 375.441 709.859)" fill="#F1F1F1"/>
        <rect x="214.879" y="709.859" width="11.8935" height="11.8935" rx="5" transform="rotate(180 214.879 709.859)" fill="#F1F1F1"/>
        <rect x="375.441" y="656.338" width="11.8935" height="11.8935" rx="5" transform="rotate(180 375.441 656.338)" fill="#F1F1F1"/>
        <rect x="214.879" y="656.338" width="11.8935" height="11.8935" rx="5" transform="rotate(180 214.879 656.338)" fill="#F1F1F1"/>
        <rect x="321.919" y="763.379" width="11.8935" height="11.8935" rx="5" transform="rotate(180 321.919 763.379)" fill="#F1F1F1"/>
        <rect x="161.358" y="763.379" width="11.8935" height="11.8935" rx="5" transform="rotate(180 161.358 763.379)" fill="#F1F1F1"/>
        <rect x="321.919" y="709.859" width="11.8935" height="11.8935" rx="5" transform="rotate(180 321.919 709.859)" fill="#F1F1F1"/>
        <rect x="161.358" y="709.859" width="11.8935" height="11.8935" rx="5" transform="rotate(180 161.358 709.859)" fill="#F1F1F1"/>
        <rect x="321.919" y="656.338" width="11.8935" height="11.8935" rx="5" transform="rotate(180 321.919 656.338)" fill="#F1F1F1"/>
        <rect x="161.358" y="656.338" width="11.8935" height="11.8935" rx="5" transform="rotate(180 161.358 656.338)" fill="#F1F1F1"/>
        <rect x="402.2" y="763.379" width="11.8935" height="11.8935" rx="5" transform="rotate(180 402.2 763.379)" fill="#F1F1F1"/>
        <rect x="241.64" y="763.379" width="11.8935" height="11.8935" rx="5" transform="rotate(180 241.64 763.379)" fill="#F1F1F1"/>
        <rect x="402.2" y="709.859" width="11.8935" height="11.8935" rx="5" transform="rotate(180 402.2 709.859)" fill="#F1F1F1"/>
        <rect x="241.64" y="709.859" width="11.8935" height="11.8935" rx="5" transform="rotate(180 241.64 709.859)" fill="#F1F1F1"/>
        <rect x="402.2" y="656.338" width="11.8935" height="11.8935" rx="5" transform="rotate(180 402.2 656.338)" fill="#F1F1F1"/>
        <rect x="241.64" y="656.338" width="11.8935" height="11.8935" rx="5" transform="rotate(180 241.64 656.338)" fill="#F1F1F1"/>
        <rect x="348.681" y="763.379" width="11.8935" height="11.8935" rx="5" transform="rotate(180 348.681 763.379)" fill="#F1F1F1"/>
        <rect x="188.117" y="763.379" width="11.8935" height="11.8935" rx="5" transform="rotate(180 188.117 763.379)" fill="#F1F1F1"/>
        <rect x="348.681" y="709.859" width="11.8935" height="11.8935" rx="5" transform="rotate(180 348.681 709.859)" fill="#F1F1F1"/>
        <rect x="188.117" y="709.859" width="11.8935" height="11.8935" rx="5" transform="rotate(180 188.117 709.859)" fill="#F1F1F1"/>
        <rect x="348.681" y="656.338" width="11.8935" height="11.8935" rx="5" transform="rotate(180 348.681 656.338)" fill="#F1F1F1"/>
        <rect x="188.117" y="656.338" width="11.8935" height="11.8935" rx="5" transform="rotate(180 188.117 656.338)" fill="#F1F1F1"/>
        <rect x="295.16" y="763.379" width="11.8935" height="11.8935" rx="5" transform="rotate(180 295.16 763.379)" fill="#F1F1F1"/>
        <rect x="134.597" y="763.379" width="11.8935" height="11.8935" rx="5" transform="rotate(180 134.597 763.379)" fill="#F1F1F1"/>
        <rect x="295.16" y="709.859" width="11.8935" height="11.8935" rx="5" transform="rotate(180 295.16 709.859)" fill="#F1F1F1"/>
        <rect x="134.597" y="709.859" width="11.8935" height="11.8935" rx="5" transform="rotate(180 134.597 709.859)" fill="#F1F1F1"/>
        <rect x="295.16" y="656.338" width="11.8935" height="11.8935" rx="5" transform="rotate(180 295.16 656.338)" fill="#F1F1F1"/>
        <rect x="134.597" y="656.338" width="11.8935" height="11.8935" rx="5" transform="rotate(180 134.597 656.338)" fill="#F1F1F1"/>
        <rect x="428.962" y="629.578" width="11.8935" height="11.8935" rx="5" transform="rotate(180 428.962 629.578)" fill="#F1F1F1"/>
        <rect x="268.398" y="629.578" width="11.8935" height="11.8935" rx="5" transform="rotate(180 268.398 629.578)" fill="#F1F1F1"/>
        <rect x="428.962" y="576.057" width="11.8935" height="11.8935" rx="5" transform="rotate(180 428.962 576.057)" fill="#F1F1F1"/>
        <rect x="268.398" y="576.057" width="11.8935" height="11.8935" rx="5" transform="rotate(180 268.398 576.057)" fill="#F1F1F1"/>
        <rect x="428.962" y="522.536" width="11.8935" height="11.8935" rx="5" transform="rotate(180 428.962 522.536)" fill="#F1F1F1"/>
        <rect x="268.398" y="522.536" width="11.8935" height="11.8935" rx="5" transform="rotate(180 268.398 522.536)" fill="#F1F1F1"/>
        <rect x="375.441" y="629.578" width="11.8935" height="11.8935" rx="5" transform="rotate(180 375.441 629.578)" fill="#F1F1F1"/>
        <rect x="214.879" y="629.578" width="11.8935" height="11.8935" rx="5" transform="rotate(180 214.879 629.578)" fill="#F1F1F1"/>
        <rect x="375.441" y="576.057" width="11.8935" height="11.8935" rx="5" transform="rotate(180 375.441 576.057)" fill="#F1F1F1"/>
        <rect x="214.879" y="576.057" width="11.8935" height="11.8935" rx="5" transform="rotate(180 214.879 576.057)" fill="#F1F1F1"/>
        <rect x="375.441" y="522.536" width="11.8935" height="11.8935" rx="5" transform="rotate(180 375.441 522.536)" fill="#F1F1F1"/>
        <rect x="214.879" y="522.536" width="11.8935" height="11.8935" rx="5" transform="rotate(180 214.879 522.536)" fill="#F1F1F1"/>
        <rect x="321.919" y="629.578" width="11.8935" height="11.8935" rx="5" transform="rotate(180 321.919 629.578)" fill="#F1F1F1"/>
        <rect x="161.358" y="629.578" width="11.8935" height="11.8935" rx="5" transform="rotate(180 161.358 629.578)" fill="#F1F1F1"/>
        <rect x="321.919" y="576.057" width="11.8935" height="11.8935" rx="5" transform="rotate(180 321.919 576.057)" fill="#F1F1F1"/>
        <rect x="161.358" y="576.057" width="11.8935" height="11.8935" rx="5" transform="rotate(180 161.358 576.057)" fill="#F1F1F1"/>
        <rect x="321.919" y="522.536" width="11.8935" height="11.8935" rx="5" transform="rotate(180 321.919 522.536)" fill="#F1F1F1"/>
        <rect x="161.358" y="522.536" width="11.8935" height="11.8935" rx="5" transform="rotate(180 161.358 522.536)" fill="#F1F1F1"/>
        <rect x="402.2" y="629.578" width="11.8935" height="11.8935" rx="5" transform="rotate(180 402.2 629.578)" fill="#F1F1F1"/>
        <rect x="241.64" y="629.578" width="11.8935" height="11.8935" rx="5" transform="rotate(180 241.64 629.578)" fill="#F1F1F1"/>
        <rect x="402.2" y="576.057" width="11.8935" height="11.8935" rx="5" transform="rotate(180 402.2 576.057)" fill="#F1F1F1"/>
        <rect x="241.64" y="576.057" width="11.8935" height="11.8935" rx="5" transform="rotate(180 241.64 576.057)" fill="#F1F1F1"/>
        <rect x="402.2" y="522.536" width="11.8935" height="11.8935" rx="5" transform="rotate(180 402.2 522.536)" fill="#F1F1F1"/>
        <rect x="241.64" y="522.536" width="11.8935" height="11.8935" rx="5" transform="rotate(180 241.64 522.536)" fill="#F1F1F1"/>
        <rect x="348.681" y="629.578" width="11.8935" height="11.8935" rx="5" transform="rotate(180 348.681 629.578)" fill="#F1F1F1"/>
        <rect x="188.117" y="629.578" width="11.8935" height="11.8935" rx="5" transform="rotate(180 188.117 629.578)" fill="#F1F1F1"/>
        <rect x="348.681" y="576.057" width="11.8935" height="11.8935" rx="5" transform="rotate(180 348.681 576.057)" fill="#F1F1F1"/>
        <rect x="188.117" y="576.057" width="11.8935" height="11.8935" rx="5" transform="rotate(180 188.117 576.057)" fill="#F1F1F1"/>
        <rect x="348.681" y="522.536" width="11.8935" height="11.8935" rx="5" transform="rotate(180 348.681 522.536)" fill="#F1F1F1"/>
        <rect x="188.117" y="522.536" width="11.8935" height="11.8935" rx="5" transform="rotate(180 188.117 522.536)" fill="#F1F1F1"/>
        <rect x="295.16" y="629.578" width="11.8935" height="11.8935" rx="5" transform="rotate(180 295.16 629.578)" fill="#F1F1F1"/>
        <rect x="134.597" y="629.578" width="11.8935" height="11.8935" rx="5" transform="rotate(180 134.597 629.578)" fill="#F1F1F1"/>
        <rect x="295.16" y="576.057" width="11.8935" height="11.8935" rx="5" transform="rotate(180 295.16 576.057)" fill="#F1F1F1"/>
        <rect x="134.597" y="576.057" width="11.8935" height="11.8935" rx="5" transform="rotate(180 134.597 576.057)" fill="#F1F1F1"/>
        <rect x="295.16" y="522.536" width="11.8935" height="11.8935" rx="5" transform="rotate(180 295.16 522.536)" fill="#F1F1F1"/>
        <rect x="134.597" y="522.536" width="11.8935" height="11.8935" rx="5" transform="rotate(180 134.597 522.536)" fill="#F1F1F1"/>
        <rect x="428.962" y="602.817" width="11.8935" height="11.8935" rx="5" transform="rotate(180 428.962 602.817)" fill="#F1F1F1"/>
        <rect x="268.398" y="602.817" width="11.8935" height="11.8935" rx="5" transform="rotate(180 268.398 602.817)" fill="#F1F1F1"/>
        <rect x="428.962" y="549.296" width="11.8935" height="11.8935" rx="5" transform="rotate(180 428.962 549.296)" fill="#F1F1F1"/>
        <rect x="268.398" y="549.296" width="11.8935" height="11.8935" rx="5" transform="rotate(180 268.398 549.296)" fill="#F1F1F1"/>
        <rect x="428.962" y="495.775" width="11.8935" height="11.8935" rx="5" transform="rotate(180 428.962 495.775)" fill="#F1F1F1"/>
        <rect x="268.398" y="495.775" width="11.8935" height="11.8935" rx="5" transform="rotate(180 268.398 495.775)" fill="#F1F1F1"/>
        <rect x="375.441" y="602.817" width="11.8935" height="11.8935" rx="5" transform="rotate(180 375.441 602.817)" fill="#F1F1F1"/>
        <rect x="214.879" y="602.817" width="11.8935" height="11.8935" rx="5" transform="rotate(180 214.879 602.817)" fill="#F1F1F1"/>
        <rect x="375.441" y="549.296" width="11.8935" height="11.8935" rx="5" transform="rotate(180 375.441 549.296)" fill="#F1F1F1"/>
        <rect x="214.879" y="549.296" width="11.8935" height="11.8935" rx="5" transform="rotate(180 214.879 549.296)" fill="#F1F1F1"/>
        <rect x="375.441" y="495.775" width="11.8935" height="11.8935" rx="5" transform="rotate(180 375.441 495.775)" fill="#F1F1F1"/>
        <rect x="214.879" y="495.775" width="11.8935" height="11.8935" rx="5" transform="rotate(180 214.879 495.775)" fill="#F1F1F1"/>
        <rect x="321.919" y="602.817" width="11.8935" height="11.8935" rx="5" transform="rotate(180 321.919 602.817)" fill="#F1F1F1"/>
        <rect x="161.358" y="602.817" width="11.8935" height="11.8935" rx="5" transform="rotate(180 161.358 602.817)" fill="#F1F1F1"/>
        <rect x="321.919" y="549.296" width="11.8935" height="11.8935" rx="5" transform="rotate(180 321.919 549.296)" fill="#F1F1F1"/>
        <rect x="161.358" y="549.296" width="11.8935" height="11.8935" rx="5" transform="rotate(180 161.358 549.296)" fill="#F1F1F1"/>
        <rect x="321.919" y="495.775" width="11.8935" height="11.8935" rx="5" transform="rotate(180 321.919 495.775)" fill="#F1F1F1"/>
        <rect x="161.358" y="495.775" width="11.8935" height="11.8935" rx="5" transform="rotate(180 161.358 495.775)" fill="#F1F1F1"/>
        <rect x="402.2" y="602.817" width="11.8935" height="11.8935" rx="5" transform="rotate(180 402.2 602.817)" fill="#F1F1F1"/>
        <rect x="241.64" y="602.817" width="11.8935" height="11.8935" rx="5" transform="rotate(180 241.64 602.817)" fill="#F1F1F1"/>
        <rect x="402.2" y="549.296" width="11.8935" height="11.8935" rx="5" transform="rotate(180 402.2 549.296)" fill="#F1F1F1"/>
        <rect x="241.64" y="549.296" width="11.8935" height="11.8935" rx="5" transform="rotate(180 241.64 549.296)" fill="#F1F1F1"/>
        <rect x="402.2" y="495.775" width="11.8935" height="11.8935" rx="5" transform="rotate(180 402.2 495.775)" fill="#F1F1F1"/>
        <rect x="241.64" y="495.775" width="11.8935" height="11.8935" rx="5" transform="rotate(180 241.64 495.775)" fill="#F1F1F1"/>
        <rect x="348.681" y="602.817" width="11.8935" height="11.8935" rx="5" transform="rotate(180 348.681 602.817)" fill="#F1F1F1"/>
        <rect x="188.117" y="602.817" width="11.8935" height="11.8935" rx="5" transform="rotate(180 188.117 602.817)" fill="#F1F1F1"/>
        <rect x="348.681" y="549.296" width="11.8935" height="11.8935" rx="5" transform="rotate(180 348.681 549.296)" fill="#F1F1F1"/>
        <rect x="188.117" y="549.296" width="11.8935" height="11.8935" rx="5" transform="rotate(180 188.117 549.296)" fill="#F1F1F1"/>
        <rect x="348.681" y="495.775" width="11.8935" height="11.8935" rx="5" transform="rotate(180 348.681 495.775)" fill="#F1F1F1"/>
        <rect x="188.117" y="495.775" width="11.8935" height="11.8935" rx="5" transform="rotate(180 188.117 495.775)" fill="#F1F1F1"/>
        <rect x="295.16" y="602.817" width="11.8935" height="11.8935" rx="5" transform="rotate(180 295.16 602.817)" fill="#F1F1F1"/>
        <rect x="134.597" y="602.817" width="11.8935" height="11.8935" rx="5" transform="rotate(180 134.597 602.817)" fill="#F1F1F1"/>
        <rect x="295.16" y="549.296" width="11.8935" height="11.8935" rx="5" transform="rotate(180 295.16 549.296)" fill="#F1F1F1"/>
        <rect x="134.597" y="549.296" width="11.8935" height="11.8935" rx="5" transform="rotate(180 134.597 549.296)" fill="#F1F1F1"/>
        <rect x="295.16" y="495.775" width="11.8935" height="11.8935" rx="5" transform="rotate(180 295.16 495.775)" fill="#F1F1F1"/>
        <rect x="134.597" y="495.775" width="11.8935" height="11.8935" rx="5" transform="rotate(180 134.597 495.775)" fill="#F1F1F1"/>
        <rect x="589.523" y="789.397" width="11.8935" height="11.8935" rx="5" transform="rotate(180 589.523 789.397)" fill="#F1F1F1"/>
        <rect x="589.523" y="735.876" width="11.8935" height="11.8935" rx="5" transform="rotate(180 589.523 735.876)" fill="#F1F1F1"/>
        <rect x="589.523" y="682.355" width="11.8935" height="11.8935" rx="5" transform="rotate(180 589.523 682.355)" fill="#F1F1F1"/>
        <rect x="536.003" y="789.397" width="11.8935" height="11.8935" rx="5" transform="rotate(180 536.003 789.397)" fill="#F1F1F1"/>
        <rect x="536.003" y="735.876" width="11.8935" height="11.8935" rx="5" transform="rotate(180 536.003 735.876)" fill="#F1F1F1"/>
        <rect x="536.003" y="682.355" width="11.8935" height="11.8935" rx="5" transform="rotate(180 536.003 682.355)" fill="#F1F1F1"/>
        <rect x="482.482" y="789.397" width="11.8935" height="11.8935" rx="5" transform="rotate(180 482.482 789.397)" fill="#F1F1F1"/>
        <rect x="482.482" y="735.876" width="11.8935" height="11.8935" rx="5" transform="rotate(180 482.482 735.876)" fill="#F1F1F1"/>
        <rect x="482.482" y="682.355" width="11.8935" height="11.8935" rx="5" transform="rotate(180 482.482 682.355)" fill="#F1F1F1"/>
        <rect x="562.762" y="789.397" width="11.8935" height="11.8935" rx="5" transform="rotate(180 562.762 789.397)" fill="#F1F1F1"/>
        <rect x="562.762" y="735.876" width="11.8935" height="11.8935" rx="5" transform="rotate(180 562.762 735.876)" fill="#F1F1F1"/>
        <rect x="562.762" y="682.355" width="11.8935" height="11.8935" rx="5" transform="rotate(180 562.762 682.355)" fill="#F1F1F1"/>
        <rect x="509.241" y="789.397" width="11.8935" height="11.8935" rx="5" transform="rotate(180 509.241 789.397)" fill="#F1F1F1"/>
        <rect x="509.241" y="735.876" width="11.8935" height="11.8935" rx="5" transform="rotate(180 509.241 735.876)" fill="#F1F1F1"/>
        <rect x="509.241" y="682.355" width="11.8935" height="11.8935" rx="5" transform="rotate(180 509.241 682.355)" fill="#F1F1F1"/>
        <rect x="616.284" y="789.397" width="11.8935" height="11.8935" rx="5" transform="rotate(180 616.284 789.397)" fill="#F1F1F1"/>
        <rect x="455.722" y="789.397" width="11.8935" height="11.8935" rx="5" transform="rotate(180 455.722 789.397)" fill="#F1F1F1"/>
        <rect x="616.284" y="735.876" width="11.8935" height="11.8935" rx="5" transform="rotate(180 616.284 735.876)" fill="#F1F1F1"/>
        <rect x="455.722" y="735.876" width="11.8935" height="11.8935" rx="5" transform="rotate(180 455.722 735.876)" fill="#F1F1F1"/>
        <rect x="616.284" y="682.355" width="11.8935" height="11.8935" rx="5" transform="rotate(180 616.284 682.355)" fill="#F1F1F1"/>
        <rect x="455.722" y="682.355" width="11.8935" height="11.8935" rx="5" transform="rotate(180 455.722 682.355)" fill="#F1F1F1"/>
        <rect x="589.523" y="762.636" width="11.8935" height="11.8935" rx="5" transform="rotate(180 589.523 762.636)" fill="#F1F1F1"/>
        <rect x="589.523" y="709.115" width="11.8935" height="11.8935" rx="5" transform="rotate(180 589.523 709.115)" fill="#F1F1F1"/>
        <rect x="589.523" y="655.594" width="11.8935" height="11.8935" rx="5" transform="rotate(180 589.523 655.594)" fill="#F1F1F1"/>
        <rect x="536.003" y="762.636" width="11.8935" height="11.8935" rx="5" transform="rotate(180 536.003 762.636)" fill="#F1F1F1"/>
        <rect x="536.003" y="709.115" width="11.8935" height="11.8935" rx="5" transform="rotate(180 536.003 709.115)" fill="#F1F1F1"/>
        <rect x="536.003" y="655.594" width="11.8935" height="11.8935" rx="5" transform="rotate(180 536.003 655.594)" fill="#F1F1F1"/>
        <rect x="482.482" y="762.636" width="11.8935" height="11.8935" rx="5" transform="rotate(180 482.482 762.636)" fill="#F1F1F1"/>
        <rect x="482.482" y="709.115" width="11.8935" height="11.8935" rx="5" transform="rotate(180 482.482 709.115)" fill="#F1F1F1"/>
        <rect x="482.482" y="655.594" width="11.8935" height="11.8935" rx="5" transform="rotate(180 482.482 655.594)" fill="#F1F1F1"/>
        <rect x="562.762" y="762.636" width="11.8935" height="11.8935" rx="5" transform="rotate(180 562.762 762.636)" fill="#F1F1F1"/>
        <rect x="562.762" y="709.115" width="11.8935" height="11.8935" rx="5" transform="rotate(180 562.762 709.115)" fill="#F1F1F1"/>
        <rect x="562.762" y="655.594" width="11.8935" height="11.8935" rx="5" transform="rotate(180 562.762 655.594)" fill="#F1F1F1"/>
        <rect x="509.241" y="762.636" width="11.8935" height="11.8935" rx="5" transform="rotate(180 509.241 762.636)" fill="#F1F1F1"/>
        <rect x="509.241" y="709.115" width="11.8935" height="11.8935" rx="5" transform="rotate(180 509.241 709.115)" fill="#F1F1F1"/>
        <rect x="509.241" y="655.594" width="11.8935" height="11.8935" rx="5" transform="rotate(180 509.241 655.594)" fill="#F1F1F1"/>
        <rect x="616.284" y="762.636" width="11.8935" height="11.8935" rx="5" transform="rotate(180 616.284 762.636)" fill="#F1F1F1"/>
        <rect x="455.722" y="762.636" width="11.8935" height="11.8935" rx="5" transform="rotate(180 455.722 762.636)" fill="#F1F1F1"/>
        <rect x="616.284" y="709.115" width="11.8935" height="11.8935" rx="5" transform="rotate(180 616.284 709.115)" fill="#F1F1F1"/>
        <rect x="455.722" y="709.115" width="11.8935" height="11.8935" rx="5" transform="rotate(180 455.722 709.115)" fill="#F1F1F1"/>
        <rect x="616.284" y="655.594" width="11.8935" height="11.8935" rx="5" transform="rotate(180 616.284 655.594)" fill="#F1F1F1"/>
        <rect x="455.722" y="655.594" width="11.8935" height="11.8935" rx="5" transform="rotate(180 455.722 655.594)" fill="#F1F1F1"/>
        <rect x="589.523" y="628.834" width="11.8935" height="11.8935" rx="5" transform="rotate(180 589.523 628.834)" fill="#F1F1F1"/>
        <rect x="589.523" y="575.313" width="11.8935" height="11.8935" rx="5" transform="rotate(180 589.523 575.313)" fill="#F1F1F1"/>
        <rect x="589.523" y="521.792" width="11.8935" height="11.8935" rx="5" transform="rotate(180 589.523 521.792)" fill="#F1F1F1"/>
        <rect x="536.003" y="628.834" width="11.8935" height="11.8935" rx="5" transform="rotate(180 536.003 628.834)" fill="#F1F1F1"/>
        <rect x="536.003" y="575.313" width="11.8935" height="11.8935" rx="5" transform="rotate(180 536.003 575.313)" fill="#F1F1F1"/>
        <rect x="536.003" y="521.792" width="11.8935" height="11.8935" rx="5" transform="rotate(180 536.003 521.792)" fill="#F1F1F1"/>
        <rect x="482.482" y="628.834" width="11.8935" height="11.8935" rx="5" transform="rotate(180 482.482 628.834)" fill="#F1F1F1"/>
        <rect x="482.482" y="575.313" width="11.8935" height="11.8935" rx="5" transform="rotate(180 482.482 575.313)" fill="#F1F1F1"/>
        <rect x="482.482" y="521.792" width="11.8935" height="11.8935" rx="5" transform="rotate(180 482.482 521.792)" fill="#F1F1F1"/>
        <rect x="562.765" y="628.834" width="11.8935" height="11.8935" rx="5" transform="rotate(180 562.765 628.834)" fill="#F1F1F1"/>
        <rect x="562.765" y="575.313" width="11.8935" height="11.8935" rx="5" transform="rotate(180 562.765 575.313)" fill="#F1F1F1"/>
        <rect x="562.765" y="521.792" width="11.8935" height="11.8935" rx="5" transform="rotate(180 562.765 521.792)" fill="#F1F1F1"/>
        <rect x="509.242" y="628.834" width="11.8935" height="11.8935" rx="5" transform="rotate(180 509.242 628.834)" fill="#F1F1F1"/>
        <rect x="509.242" y="575.313" width="11.8935" height="11.8935" rx="5" transform="rotate(180 509.242 575.313)" fill="#F1F1F1"/>
        <rect x="509.242" y="521.792" width="11.8935" height="11.8935" rx="5" transform="rotate(180 509.242 521.792)" fill="#F1F1F1"/>
        <rect x="616.284" y="628.834" width="11.8935" height="11.8935" rx="5" transform="rotate(180 616.284 628.834)" fill="#F1F1F1"/>
        <rect x="455.722" y="628.834" width="11.8935" height="11.8935" rx="5" transform="rotate(180 455.722 628.834)" fill="#F1F1F1"/>
        <rect x="616.284" y="575.313" width="11.8935" height="11.8935" rx="5" transform="rotate(180 616.284 575.313)" fill="#F1F1F1"/>
        <rect x="455.722" y="575.313" width="11.8935" height="11.8935" rx="5" transform="rotate(180 455.722 575.313)" fill="#F1F1F1"/>
        <rect x="616.284" y="521.792" width="11.8935" height="11.8935" rx="5" transform="rotate(180 616.284 521.792)" fill="#F1F1F1"/>
        <rect x="455.722" y="521.792" width="11.8935" height="11.8935" rx="5" transform="rotate(180 455.722 521.792)" fill="#F1F1F1"/>
        <rect x="589.523" y="602.074" width="11.8935" height="11.8935" rx="5" transform="rotate(180 589.523 602.074)" fill="#F1F1F1"/>
        <rect x="589.523" y="548.553" width="11.8935" height="11.8935" rx="5" transform="rotate(180 589.523 548.553)" fill="#F1F1F1"/>
        <rect x="589.523" y="495.032" width="11.8935" height="11.8935" rx="5" transform="rotate(180 589.523 495.032)" fill="#F1F1F1"/>
        <rect x="536.003" y="602.074" width="11.8935" height="11.8935" rx="5" transform="rotate(180 536.003 602.074)" fill="#F1F1F1"/>
        <rect x="536.003" y="548.553" width="11.8935" height="11.8935" rx="5" transform="rotate(180 536.003 548.553)" fill="#F1F1F1"/>
        <rect x="536.003" y="495.032" width="11.8935" height="11.8935" rx="5" transform="rotate(180 536.003 495.032)" fill="#F1F1F1"/>
        <rect x="482.482" y="602.074" width="11.8935" height="11.8935" rx="5" transform="rotate(180 482.482 602.074)" fill="#F1F1F1"/>
        <rect x="482.482" y="548.553" width="11.8935" height="11.8935" rx="5" transform="rotate(180 482.482 548.553)" fill="#F1F1F1"/>
        <rect x="482.482" y="495.032" width="11.8935" height="11.8935" rx="5" transform="rotate(180 482.482 495.032)" fill="#F1F1F1"/>
        <rect x="562.765" y="602.074" width="11.8935" height="11.8935" rx="5" transform="rotate(180 562.765 602.074)" fill="#F1F1F1"/>
        <rect x="562.765" y="548.553" width="11.8935" height="11.8935" rx="5" transform="rotate(180 562.765 548.553)" fill="#F1F1F1"/>
        <rect x="562.765" y="495.032" width="11.8935" height="11.8935" rx="5" transform="rotate(180 562.765 495.032)" fill="#F1F1F1"/>
        <rect x="509.242" y="602.074" width="11.8935" height="11.8935" rx="5" transform="rotate(180 509.242 602.074)" fill="#F1F1F1"/>
        <rect x="509.242" y="548.553" width="11.8935" height="11.8935" rx="5" transform="rotate(180 509.242 548.553)" fill="#F1F1F1"/>
        <rect x="509.242" y="495.032" width="11.8935" height="11.8935" rx="5" transform="rotate(180 509.242 495.032)" fill="#F1F1F1"/>
        <rect x="616.284" y="602.074" width="11.8935" height="11.8935" rx="5" transform="rotate(180 616.284 602.074)" fill="#F1F1F1"/>
        <rect x="455.722" y="602.074" width="11.8935" height="11.8935" rx="5" transform="rotate(180 455.722 602.074)" fill="#F1F1F1"/>
        <rect x="616.284" y="548.553" width="11.8935" height="11.8935" rx="5" transform="rotate(180 616.284 548.553)" fill="#F1F1F1"/>
        <rect x="455.722" y="548.553" width="11.8935" height="11.8935" rx="5" transform="rotate(180 455.722 548.553)" fill="#F1F1F1"/>
        <rect x="616.284" y="495.032" width="11.8935" height="11.8935" rx="5" transform="rotate(180 616.284 495.032)" fill="#F1F1F1"/>
        <rect x="455.722" y="495.032" width="11.8935" height="11.8935" rx="5" transform="rotate(180 455.722 495.032)" fill="#F1F1F1"/>
    </g>
    <rect x="356.051" y="714.519" width="505.871" height="504.617" rx="72" transform="rotate(-134.736 356.051 714.519)" fill="url(#paint0_linear)"/>
    <mask id="mask1" mask-type="alpha" maskUnits="userSpaceOnUse" x="230" y="142" width="365" height="254">
        <rect x="230" y="142" width="364.151" height="253.575" fill="#C4C4C4"/>
    </mask>
    <g mask="url(#mask1)">
        <rect x="455.85" y="389.993" width="8.44791" height="8.44791" rx="4.22396" transform="rotate(180 455.85 389.993)" fill="#FAFAFA"/>
        <rect x="341.802" y="389.992" width="8.44791" height="8.44791" rx="4.22396" transform="rotate(180 341.802 389.992)" fill="#FAFAFA"/>
        <rect x="455.849" y="351.977" width="8.44791" height="8.44791" rx="4.22396" transform="rotate(180 455.849 351.977)" fill="#FAFAFA"/>
        <rect x="341.802" y="351.977" width="8.44791" height="8.44791" rx="4.22396" transform="rotate(180 341.802 351.977)" fill="#FAFAFA"/>
        <rect x="455.849" y="313.961" width="8.44791" height="8.44791" rx="4.22396" transform="rotate(180 455.849 313.961)" fill="#FAFAFA"/>
        <rect x="341.802" y="313.961" width="8.44791" height="8.44791" rx="4.22396" transform="rotate(180 341.802 313.961)" fill="#FAFAFA"/>
        <rect x="417.833" y="389.992" width="8.44791" height="8.44791" rx="4.22396" transform="rotate(180 417.833 389.992)" fill="#FAFAFA"/>
        <rect x="303.786" y="389.992" width="8.44791" height="8.44791" rx="4.22396" transform="rotate(180 303.786 389.992)" fill="#FAFAFA"/>
        <rect x="417.833" y="351.977" width="8.44791" height="8.44791" rx="4.22396" transform="rotate(180 417.833 351.977)" fill="#FAFAFA"/>
        <rect x="303.786" y="351.977" width="8.44791" height="8.44791" rx="4.22396" transform="rotate(180 303.786 351.977)" fill="#FAFAFA"/>
        <rect x="417.833" y="313.961" width="8.44791" height="8.44791" rx="4.22396" transform="rotate(180 417.833 313.961)" fill="#FAFAFA"/>
        <rect x="303.786" y="313.961" width="8.44791" height="8.44791" rx="4.22396" transform="rotate(180 303.786 313.961)" fill="#FAFAFA"/>
        <rect x="379.817" y="389.992" width="8.44791" height="8.44791" rx="4.22396" transform="rotate(180 379.817 389.992)" fill="#FAFAFA"/>
        <rect x="265.771" y="389.992" width="8.44791" height="8.44791" rx="4.22396" transform="rotate(180 265.771 389.992)" fill="#FAFAFA"/>
        <rect x="379.817" y="351.977" width="8.44791" height="8.44791" rx="4.22396" transform="rotate(180 379.817 351.977)" fill="#FAFAFA"/>
        <rect x="265.771" y="351.977" width="8.44791" height="8.44791" rx="4.22396" transform="rotate(180 265.771 351.977)" fill="#FAFAFA"/>
        <rect x="379.817" y="313.961" width="8.44791" height="8.44791" rx="4.22396" transform="rotate(180 379.817 313.961)" fill="#FAFAFA"/>
        <rect x="265.771" y="313.961" width="8.44791" height="8.44791" rx="4.22396" transform="rotate(180 265.771 313.961)" fill="#FAFAFA"/>
        <rect x="436.841" y="389.992" width="8.44791" height="8.44791" rx="4.22396" transform="rotate(180 436.841 389.992)" fill="#FAFAFA"/>
        <rect x="322.795" y="389.992" width="8.44791" height="8.44791" rx="4.22396" transform="rotate(180 322.795 389.992)" fill="#FAFAFA"/>
        <rect x="436.841" y="351.977" width="8.44791" height="8.44791" rx="4.22396" transform="rotate(180 436.841 351.977)" fill="#FAFAFA"/>
        <rect x="322.795" y="351.977" width="8.44791" height="8.44791" rx="4.22396" transform="rotate(180 322.795 351.977)" fill="#FAFAFA"/>
        <rect x="436.841" y="313.961" width="8.44791" height="8.44791" rx="4.22396" transform="rotate(180 436.841 313.961)" fill="#FAFAFA"/>
        <rect x="322.795" y="313.961" width="8.44791" height="8.44791" rx="4.22396" transform="rotate(180 322.795 313.961)" fill="#FAFAFA"/>
        <rect x="398.826" y="389.992" width="8.44791" height="8.44791" rx="4.22396" transform="rotate(180 398.826 389.992)" fill="#FAFAFA"/>
        <rect x="284.779" y="389.992" width="8.44791" height="8.44791" rx="4.22396" transform="rotate(180 284.779 389.992)" fill="#FAFAFA"/>
        <rect x="398.826" y="351.977" width="8.44791" height="8.44791" rx="4.22396" transform="rotate(180 398.826 351.977)" fill="#FAFAFA"/>
        <rect x="284.779" y="351.977" width="8.44791" height="8.44791" rx="4.22396" transform="rotate(180 284.779 351.977)" fill="#FAFAFA"/>
        <rect x="398.826" y="313.961" width="8.44791" height="8.44791" rx="4.22396" transform="rotate(180 398.826 313.961)" fill="#FAFAFA"/>
        <rect x="284.779" y="313.961" width="8.44791" height="8.44791" rx="4.22396" transform="rotate(180 284.779 313.961)" fill="#FAFAFA"/>
        <rect x="360.811" y="389.992" width="8.44791" height="8.44791" rx="4.22396" transform="rotate(180 360.811 389.992)" fill="#FAFAFA"/>
        <rect x="246.764" y="389.992" width="8.44791" height="8.44791" rx="4.22396" transform="rotate(180 246.764 389.992)" fill="#FAFAFA"/>
        <rect x="360.811" y="351.977" width="8.44791" height="8.44791" rx="4.22396" transform="rotate(180 360.811 351.977)" fill="#FAFAFA"/>
        <rect x="246.764" y="351.977" width="8.44791" height="8.44791" rx="4.22396" transform="rotate(180 246.764 351.977)" fill="#FAFAFA"/>
        <rect x="360.811" y="313.961" width="8.44791" height="8.44791" rx="4.22396" transform="rotate(180 360.811 313.961)" fill="#FAFAFA"/>
        <rect x="246.764" y="313.961" width="8.44791" height="8.44791" rx="4.22396" transform="rotate(180 246.764 313.961)" fill="#FAFAFA"/>
        <rect x="455.849" y="370.985" width="8.44791" height="8.44791" rx="4.22396" transform="rotate(180 455.849 370.985)" fill="#FAFAFA"/>
        <rect x="341.802" y="370.985" width="8.44791" height="8.44791" rx="4.22396" transform="rotate(180 341.802 370.985)" fill="#FAFAFA"/>
        <rect x="455.849" y="332.969" width="8.44791" height="8.44791" rx="4.22396" transform="rotate(180 455.849 332.969)" fill="#FAFAFA"/>
        <rect x="341.802" y="332.969" width="8.44791" height="8.44791" rx="4.22396" transform="rotate(180 341.802 332.969)" fill="#FAFAFA"/>
        <rect x="455.849" y="294.953" width="8.44791" height="8.44791" rx="4.22396" transform="rotate(180 455.849 294.953)" fill="#FAFAFA"/>
        <rect x="341.802" y="294.953" width="8.44791" height="8.44791" rx="4.22396" transform="rotate(180 341.802 294.953)" fill="#FAFAFA"/>
        <rect x="417.833" y="370.985" width="8.44791" height="8.44791" rx="4.22396" transform="rotate(180 417.833 370.985)" fill="#FAFAFA"/>
        <rect x="303.786" y="370.985" width="8.44791" height="8.44791" rx="4.22396" transform="rotate(180 303.786 370.985)" fill="#FAFAFA"/>
        <rect x="417.833" y="332.969" width="8.44791" height="8.44791" rx="4.22396" transform="rotate(180 417.833 332.969)" fill="#FAFAFA"/>
        <rect x="303.786" y="332.969" width="8.44791" height="8.44791" rx="4.22396" transform="rotate(180 303.786 332.969)" fill="#FAFAFA"/>
        <rect x="417.833" y="294.953" width="8.44791" height="8.44791" rx="4.22396" transform="rotate(180 417.833 294.953)" fill="#FAFAFA"/>
        <rect x="303.786" y="294.953" width="8.44791" height="8.44791" rx="4.22396" transform="rotate(180 303.786 294.953)" fill="#FAFAFA"/>
        <rect x="379.817" y="370.985" width="8.44791" height="8.44791" rx="4.22396" transform="rotate(180 379.817 370.985)" fill="#FAFAFA"/>
        <rect x="265.771" y="370.985" width="8.44791" height="8.44791" rx="4.22396" transform="rotate(180 265.771 370.985)" fill="#FAFAFA"/>
        <rect x="379.817" y="332.969" width="8.44791" height="8.44791" rx="4.22396" transform="rotate(180 379.817 332.969)" fill="#FAFAFA"/>
        <rect x="265.771" y="332.969" width="8.44791" height="8.44791" rx="4.22396" transform="rotate(180 265.771 332.969)" fill="#FAFAFA"/>
        <rect x="379.817" y="294.953" width="8.44791" height="8.44791" rx="4.22396" transform="rotate(180 379.817 294.953)" fill="#FAFAFA"/>
        <rect x="265.771" y="294.953" width="8.44791" height="8.44791" rx="4.22396" transform="rotate(180 265.771 294.953)" fill="#FAFAFA"/>
        <rect x="436.841" y="370.985" width="8.44791" height="8.44791" rx="4.22396" transform="rotate(180 436.841 370.985)" fill="#FAFAFA"/>
        <rect x="322.795" y="370.985" width="8.44791" height="8.44791" rx="4.22396" transform="rotate(180 322.795 370.985)" fill="#FAFAFA"/>
        <rect x="436.841" y="332.969" width="8.44791" height="8.44791" rx="4.22396" transform="rotate(180 436.841 332.969)" fill="#FAFAFA"/>
        <rect x="322.795" y="332.969" width="8.44791" height="8.44791" rx="4.22396" transform="rotate(180 322.795 332.969)" fill="#FAFAFA"/>
        <rect x="436.841" y="294.953" width="8.44791" height="8.44791" rx="4.22396" transform="rotate(180 436.841 294.953)" fill="#FAFAFA"/>
        <rect x="322.795" y="294.953" width="8.44791" height="8.44791" rx="4.22396" transform="rotate(180 322.795 294.953)" fill="#FAFAFA"/>
        <rect x="398.826" y="370.985" width="8.44791" height="8.44791" rx="4.22396" transform="rotate(180 398.826 370.985)" fill="#FAFAFA"/>
        <rect x="284.779" y="370.985" width="8.44791" height="8.44791" rx="4.22396" transform="rotate(180 284.779 370.985)" fill="#FAFAFA"/>
        <rect x="398.826" y="332.969" width="8.44791" height="8.44791" rx="4.22396" transform="rotate(180 398.826 332.969)" fill="#FAFAFA"/>
        <rect x="284.779" y="332.969" width="8.44791" height="8.44791" rx="4.22396" transform="rotate(180 284.779 332.969)" fill="#FAFAFA"/>
        <rect x="398.826" y="294.953" width="8.44791" height="8.44791" rx="4.22396" transform="rotate(180 398.826 294.953)" fill="#FAFAFA"/>
        <rect x="284.779" y="294.953" width="8.44791" height="8.44791" rx="4.22396" transform="rotate(180 284.779 294.953)" fill="#FAFAFA"/>
        <rect x="360.811" y="370.985" width="8.44791" height="8.44791" rx="4.22396" transform="rotate(180 360.811 370.985)" fill="#FAFAFA"/>
        <rect x="246.764" y="370.985" width="8.44791" height="8.44791" rx="4.22396" transform="rotate(180 246.764 370.985)" fill="#FAFAFA"/>
        <rect x="360.811" y="332.969" width="8.44791" height="8.44791" rx="4.22396" transform="rotate(180 360.811 332.969)" fill="#FAFAFA"/>
        <rect x="246.764" y="332.969" width="8.44791" height="8.44791" rx="4.22396" transform="rotate(180 246.764 332.969)" fill="#FAFAFA"/>
        <rect x="360.811" y="294.953" width="8.44791" height="8.44791" rx="4.22396" transform="rotate(180 360.811 294.953)" fill="#FAFAFA"/>
        <rect x="246.764" y="294.953" width="8.44791" height="8.44791" rx="4.22396" transform="rotate(180 246.764 294.953)" fill="#FAFAFA"/>
        <rect x="455.85" y="275.946" width="8.44791" height="8.44791" rx="4.22396" transform="rotate(180 455.85 275.946)" fill="#FAFAFA"/>
        <rect x="341.802" y="275.946" width="8.44791" height="8.44791" rx="4.22396" transform="rotate(180 341.802 275.946)" fill="#FAFAFA"/>
        <rect x="455.849" y="237.93" width="8.44791" height="8.44791" rx="4.22396" transform="rotate(180 455.849 237.93)" fill="#FAFAFA"/>
        <rect x="341.802" y="237.93" width="8.44791" height="8.44791" rx="4.22396" transform="rotate(180 341.802 237.93)" fill="#FAFAFA"/>
        <rect x="455.849" y="199.914" width="8.44791" height="8.44791" rx="4.22396" transform="rotate(180 455.849 199.914)" fill="#FAFAFA"/>
        <rect x="341.802" y="199.914" width="8.44791" height="8.44791" rx="4.22396" transform="rotate(180 341.802 199.914)" fill="#FAFAFA"/>
        <rect x="417.833" y="275.946" width="8.44791" height="8.44791" rx="4.22396" transform="rotate(180 417.833 275.946)" fill="#FAFAFA"/>
        <rect x="303.786" y="275.946" width="8.44791" height="8.44791" rx="4.22396" transform="rotate(180 303.786 275.946)" fill="#FAFAFA"/>
        <rect x="417.833" y="237.93" width="8.44791" height="8.44791" rx="4.22396" transform="rotate(180 417.833 237.93)" fill="#FAFAFA"/>
        <rect x="303.786" y="237.93" width="8.44791" height="8.44791" rx="4.22396" transform="rotate(180 303.786 237.93)" fill="#FAFAFA"/>
        <rect x="417.833" y="199.914" width="8.44791" height="8.44791" rx="4.22396" transform="rotate(180 417.833 199.914)" fill="#FAFAFA"/>
        <rect x="303.786" y="199.914" width="8.44791" height="8.44791" rx="4.22396" transform="rotate(180 303.786 199.914)" fill="#FAFAFA"/>
        <rect x="379.817" y="275.946" width="8.44791" height="8.44791" rx="4.22396" transform="rotate(180 379.817 275.946)" fill="#FAFAFA"/>
        <rect x="265.771" y="275.946" width="8.44791" height="8.44791" rx="4.22396" transform="rotate(180 265.771 275.946)" fill="#FAFAFA"/>
        <rect x="379.817" y="237.93" width="8.44791" height="8.44791" rx="4.22396" transform="rotate(180 379.817 237.93)" fill="#FAFAFA"/>
        <rect x="265.771" y="237.93" width="8.44791" height="8.44791" rx="4.22396" transform="rotate(180 265.771 237.93)" fill="#FAFAFA"/>
        <rect x="379.817" y="199.914" width="8.44791" height="8.44791" rx="4.22396" transform="rotate(180 379.817 199.914)" fill="#FAFAFA"/>
        <rect x="265.771" y="199.914" width="8.44791" height="8.44791" rx="4.22396" transform="rotate(180 265.771 199.914)" fill="#FAFAFA"/>
        <rect x="436.841" y="275.946" width="8.44791" height="8.44791" rx="4.22396" transform="rotate(180 436.841 275.946)" fill="#FAFAFA"/>
        <rect x="322.795" y="275.946" width="8.44791" height="8.44791" rx="4.22396" transform="rotate(180 322.795 275.946)" fill="#FAFAFA"/>
        <rect x="436.841" y="237.93" width="8.44791" height="8.44791" rx="4.22396" transform="rotate(180 436.841 237.93)" fill="#FAFAFA"/>
        <rect x="322.795" y="237.93" width="8.44791" height="8.44791" rx="4.22396" transform="rotate(180 322.795 237.93)" fill="#FAFAFA"/>
        <rect x="436.841" y="199.914" width="8.44791" height="8.44791" rx="4.22396" transform="rotate(180 436.841 199.914)" fill="#FAFAFA"/>
        <rect x="322.795" y="199.914" width="8.44791" height="8.44791" rx="4.22396" transform="rotate(180 322.795 199.914)" fill="#FAFAFA"/>
        <rect x="398.826" y="275.946" width="8.44791" height="8.44791" rx="4.22396" transform="rotate(180 398.826 275.946)" fill="#FAFAFA"/>
        <rect x="284.779" y="275.946" width="8.44791" height="8.44791" rx="4.22396" transform="rotate(180 284.779 275.946)" fill="#FAFAFA"/>
        <rect x="398.826" y="237.93" width="8.44791" height="8.44791" rx="4.22396" transform="rotate(180 398.826 237.93)" fill="#FAFAFA"/>
        <rect x="284.779" y="237.93" width="8.44791" height="8.44791" rx="4.22396" transform="rotate(180 284.779 237.93)" fill="#FAFAFA"/>
        <rect x="398.826" y="199.914" width="8.44791" height="8.44791" rx="4.22396" transform="rotate(180 398.826 199.914)" fill="#FAFAFA"/>
        <rect x="284.779" y="199.914" width="8.44791" height="8.44791" rx="4.22396" transform="rotate(180 284.779 199.914)" fill="#FAFAFA"/>
        <rect x="360.811" y="275.946" width="8.44791" height="8.44791" rx="4.22396" transform="rotate(180 360.811 275.946)" fill="#FAFAFA"/>
        <rect x="246.764" y="275.946" width="8.44791" height="8.44791" rx="4.22396" transform="rotate(180 246.764 275.946)" fill="#FAFAFA"/>
        <rect x="360.811" y="237.93" width="8.44791" height="8.44791" rx="4.22396" transform="rotate(180 360.811 237.93)" fill="#FAFAFA"/>
        <rect x="246.764" y="237.93" width="8.44791" height="8.44791" rx="4.22396" transform="rotate(180 246.764 237.93)" fill="#FAFAFA"/>
        <rect x="360.811" y="199.914" width="8.44791" height="8.44791" rx="4.22396" transform="rotate(180 360.811 199.914)" fill="#FAFAFA"/>
        <rect x="246.764" y="199.914" width="8.44791" height="8.44791" rx="4.22396" transform="rotate(180 246.764 199.914)" fill="#FAFAFA"/>
        <rect x="455.849" y="256.938" width="8.44791" height="8.44791" rx="4.22396" transform="rotate(180 455.849 256.938)" fill="#FAFAFA"/>
        <rect x="341.802" y="256.938" width="8.44791" height="8.44791" rx="4.22396" transform="rotate(180 341.802 256.938)" fill="#FAFAFA"/>
        <rect x="455.849" y="218.922" width="8.44791" height="8.44791" rx="4.22396" transform="rotate(180 455.849 218.922)" fill="#FAFAFA"/>
        <rect x="341.802" y="218.922" width="8.44791" height="8.44791" rx="4.22396" transform="rotate(180 341.802 218.922)" fill="#FAFAFA"/>
        <rect x="455.849" y="180.906" width="8.44791" height="8.44791" rx="4.22396" transform="rotate(180 455.849 180.906)" fill="#FAFAFA"/>
        <rect x="341.802" y="180.906" width="8.44791" height="8.44791" rx="4.22396" transform="rotate(180 341.802 180.906)" fill="#FAFAFA"/>
        <rect x="417.833" y="256.938" width="8.44791" height="8.44791" rx="4.22396" transform="rotate(180 417.833 256.938)" fill="#FAFAFA"/>
        <rect x="303.786" y="256.938" width="8.44791" height="8.44791" rx="4.22396" transform="rotate(180 303.786 256.938)" fill="#FAFAFA"/>
        <rect x="417.833" y="218.922" width="8.44791" height="8.44791" rx="4.22396" transform="rotate(180 417.833 218.922)" fill="#FAFAFA"/>
        <rect x="303.786" y="218.922" width="8.44791" height="8.44791" rx="4.22396" transform="rotate(180 303.786 218.922)" fill="#FAFAFA"/>
        <rect x="417.833" y="180.906" width="8.44791" height="8.44791" rx="4.22396" transform="rotate(180 417.833 180.906)" fill="#FAFAFA"/>
        <rect x="303.786" y="180.906" width="8.44791" height="8.44791" rx="4.22396" transform="rotate(180 303.786 180.906)" fill="#FAFAFA"/>
        <rect x="379.817" y="256.938" width="8.44791" height="8.44791" rx="4.22396" transform="rotate(180 379.817 256.938)" fill="#FAFAFA"/>
        <rect x="265.771" y="256.938" width="8.44791" height="8.44791" rx="4.22396" transform="rotate(180 265.771 256.938)" fill="#FAFAFA"/>
        <rect x="379.817" y="218.922" width="8.44791" height="8.44791" rx="4.22396" transform="rotate(180 379.817 218.922)" fill="#FAFAFA"/>
        <rect x="265.771" y="218.922" width="8.44791" height="8.44791" rx="4.22396" transform="rotate(180 265.771 218.922)" fill="#FAFAFA"/>
        <rect x="379.817" y="180.906" width="8.44791" height="8.44791" rx="4.22396" transform="rotate(180 379.817 180.906)" fill="#FAFAFA"/>
        <rect x="265.771" y="180.906" width="8.44791" height="8.44791" rx="4.22396" transform="rotate(180 265.771 180.906)" fill="#FAFAFA"/>
        <rect x="436.841" y="256.938" width="8.44791" height="8.44791" rx="4.22396" transform="rotate(180 436.841 256.938)" fill="#FAFAFA"/>
        <rect x="322.795" y="256.938" width="8.44791" height="8.44791" rx="4.22396" transform="rotate(180 322.795 256.938)" fill="#FAFAFA"/>
        <rect x="436.841" y="218.922" width="8.44791" height="8.44791" rx="4.22396" transform="rotate(180 436.841 218.922)" fill="#FAFAFA"/>
        <rect x="322.795" y="218.922" width="8.44791" height="8.44791" rx="4.22396" transform="rotate(180 322.795 218.922)" fill="#FAFAFA"/>
        <rect x="436.841" y="180.906" width="8.44791" height="8.44791" rx="4.22396" transform="rotate(180 436.841 180.906)" fill="#FAFAFA"/>
        <rect x="322.795" y="180.906" width="8.44791" height="8.44791" rx="4.22396" transform="rotate(180 322.795 180.906)" fill="#FAFAFA"/>
        <rect x="398.826" y="256.938" width="8.44791" height="8.44791" rx="4.22396" transform="rotate(180 398.826 256.938)" fill="#FAFAFA"/>
        <rect x="284.779" y="256.938" width="8.44791" height="8.44791" rx="4.22396" transform="rotate(180 284.779 256.938)" fill="#FAFAFA"/>
        <rect x="398.826" y="218.922" width="8.44791" height="8.44791" rx="4.22396" transform="rotate(180 398.826 218.922)" fill="#FAFAFA"/>
        <rect x="284.779" y="218.922" width="8.44791" height="8.44791" rx="4.22396" transform="rotate(180 284.779 218.922)" fill="#FAFAFA"/>
        <rect x="398.826" y="180.906" width="8.44791" height="8.44791" rx="4.22396" transform="rotate(180 398.826 180.906)" fill="#FAFAFA"/>
        <rect x="284.779" y="180.906" width="8.44791" height="8.44791" rx="4.22396" transform="rotate(180 284.779 180.906)" fill="#FAFAFA"/>
        <rect x="360.811" y="256.938" width="8.44791" height="8.44791" rx="4.22396" transform="rotate(180 360.811 256.938)" fill="#FAFAFA"/>
        <rect x="246.764" y="256.938" width="8.44791" height="8.44791" rx="4.22396" transform="rotate(180 246.764 256.938)" fill="#FAFAFA"/>
        <rect x="360.811" y="218.922" width="8.44791" height="8.44791" rx="4.22396" transform="rotate(180 360.811 218.922)" fill="#FAFAFA"/>
        <rect x="246.764" y="218.922" width="8.44791" height="8.44791" rx="4.22396" transform="rotate(180 246.764 218.922)" fill="#FAFAFA"/>
        <rect x="360.811" y="180.906" width="8.44791" height="8.44791" rx="4.22396" transform="rotate(180 360.811 180.906)" fill="#FAFAFA"/>
        <rect x="246.764" y="180.906" width="8.44791" height="8.44791" rx="4.22396" transform="rotate(180 246.764 180.906)" fill="#FAFAFA"/>
        <rect x="569.898" y="389.464" width="8.44791" height="8.44791" rx="4.22396" transform="rotate(180 569.898 389.464)" fill="#FAFAFA"/>
        <rect x="569.898" y="351.448" width="8.44791" height="8.44791" rx="4.22396" transform="rotate(180 569.898 351.448)" fill="#FAFAFA"/>
        <rect x="569.898" y="313.433" width="8.44791" height="8.44791" rx="4.22396" transform="rotate(180 569.898 313.433)" fill="#FAFAFA"/>
        <rect x="531.881" y="389.464" width="8.44791" height="8.44791" rx="4.22396" transform="rotate(180 531.881 389.464)" fill="#FAFAFA"/>
        <rect x="531.881" y="351.448" width="8.44791" height="8.44791" rx="4.22396" transform="rotate(180 531.881 351.448)" fill="#FAFAFA"/>
        <rect x="531.881" y="313.433" width="8.44791" height="8.44791" rx="4.22396" transform="rotate(180 531.881 313.433)" fill="#FAFAFA"/>
        <rect x="493.865" y="389.464" width="8.44791" height="8.44791" rx="4.22396" transform="rotate(180 493.865 389.464)" fill="#FAFAFA"/>
        <rect x="493.865" y="351.448" width="8.44791" height="8.44791" rx="4.22396" transform="rotate(180 493.865 351.448)" fill="#FAFAFA"/>
        <rect x="493.865" y="313.433" width="8.44791" height="8.44791" rx="4.22396" transform="rotate(180 493.865 313.433)" fill="#FAFAFA"/>
        <rect x="550.888" y="389.464" width="8.44791" height="8.44791" rx="4.22396" transform="rotate(180 550.888 389.464)" fill="#FAFAFA"/>
        <rect x="550.888" y="351.448" width="8.44791" height="8.44791" rx="4.22396" transform="rotate(180 550.888 351.448)" fill="#FAFAFA"/>
        <rect x="550.888" y="313.433" width="8.44791" height="8.44791" rx="4.22396" transform="rotate(180 550.888 313.433)" fill="#FAFAFA"/>
        <rect x="512.872" y="389.464" width="8.44791" height="8.44791" rx="4.22396" transform="rotate(180 512.872 389.464)" fill="#FAFAFA"/>
        <rect x="512.872" y="351.448" width="8.44791" height="8.44791" rx="4.22396" transform="rotate(180 512.872 351.448)" fill="#FAFAFA"/>
        <rect x="512.872" y="313.433" width="8.44791" height="8.44791" rx="4.22396" transform="rotate(180 512.872 313.433)" fill="#FAFAFA"/>
        <rect x="588.902" y="389.464" width="8.44791" height="8.44791" rx="4.22396" transform="rotate(180 588.902 389.464)" fill="#FAFAFA"/>
        <rect x="474.856" y="389.464" width="8.44791" height="8.44791" rx="4.22396" transform="rotate(180 474.856 389.464)" fill="#FAFAFA"/>
        <rect x="588.902" y="351.448" width="8.44791" height="8.44791" rx="4.22396" transform="rotate(180 588.902 351.448)" fill="#FAFAFA"/>
        <rect x="474.856" y="351.448" width="8.44791" height="8.44791" rx="4.22396" transform="rotate(180 474.856 351.448)" fill="#FAFAFA"/>
        <rect x="588.902" y="313.433" width="8.44791" height="8.44791" rx="4.22396" transform="rotate(180 588.902 313.433)" fill="#FAFAFA"/>
        <rect x="474.856" y="313.433" width="8.44791" height="8.44791" rx="4.22396" transform="rotate(180 474.856 313.433)" fill="#FAFAFA"/>
        <rect x="569.898" y="370.456" width="8.44791" height="8.44791" rx="4.22396" transform="rotate(180 569.898 370.456)" fill="#FAFAFA"/>
        <rect x="569.898" y="332.441" width="8.44791" height="8.44791" rx="4.22396" transform="rotate(180 569.898 332.441)" fill="#FAFAFA"/>
        <rect x="569.898" y="294.425" width="8.44791" height="8.44791" rx="4.22396" transform="rotate(180 569.898 294.425)" fill="#FAFAFA"/>
        <rect x="531.881" y="370.456" width="8.44791" height="8.44791" rx="4.22396" transform="rotate(180 531.881 370.456)" fill="#FAFAFA"/>
        <rect x="531.881" y="332.441" width="8.44791" height="8.44791" rx="4.22396" transform="rotate(180 531.881 332.441)" fill="#FAFAFA"/>
        <rect x="531.881" y="294.425" width="8.44791" height="8.44791" rx="4.22396" transform="rotate(180 531.881 294.425)" fill="#FAFAFA"/>
        <rect x="493.865" y="370.456" width="8.44791" height="8.44791" rx="4.22396" transform="rotate(180 493.865 370.456)" fill="#FAFAFA"/>
        <rect x="493.865" y="332.441" width="8.44791" height="8.44791" rx="4.22396" transform="rotate(180 493.865 332.441)" fill="#FAFAFA"/>
        <rect x="493.865" y="294.425" width="8.44791" height="8.44791" rx="4.22396" transform="rotate(180 493.865 294.425)" fill="#FAFAFA"/>
        <rect x="550.888" y="370.456" width="8.44791" height="8.44791" rx="4.22396" transform="rotate(180 550.888 370.456)" fill="#FAFAFA"/>
        <rect x="550.888" y="332.441" width="8.44791" height="8.44791" rx="4.22396" transform="rotate(180 550.888 332.441)" fill="#FAFAFA"/>
        <rect x="550.888" y="294.425" width="8.44791" height="8.44791" rx="4.22396" transform="rotate(180 550.888 294.425)" fill="#FAFAFA"/>
        <rect x="512.872" y="370.456" width="8.44791" height="8.44791" rx="4.22396" transform="rotate(180 512.872 370.456)" fill="#FAFAFA"/>
        <rect x="512.872" y="332.441" width="8.44791" height="8.44791" rx="4.22396" transform="rotate(180 512.872 332.441)" fill="#FAFAFA"/>
        <rect x="512.872" y="294.425" width="8.44791" height="8.44791" rx="4.22396" transform="rotate(180 512.872 294.425)" fill="#FAFAFA"/>
        <rect x="588.902" y="370.456" width="8.44791" height="8.44791" rx="4.22396" transform="rotate(180 588.902 370.456)" fill="#FAFAFA"/>
        <rect x="474.856" y="370.456" width="8.44791" height="8.44791" rx="4.22396" transform="rotate(180 474.856 370.456)" fill="#FAFAFA"/>
        <rect x="588.902" y="332.441" width="8.44791" height="8.44791" rx="4.22396" transform="rotate(180 588.902 332.441)" fill="#FAFAFA"/>
        <rect x="474.856" y="332.441" width="8.44791" height="8.44791" rx="4.22396" transform="rotate(180 474.856 332.441)" fill="#FAFAFA"/>
        <rect x="588.902" y="294.425" width="8.44791" height="8.44791" rx="4.22396" transform="rotate(180 588.902 294.425)" fill="#FAFAFA"/>
        <rect x="474.856" y="294.425" width="8.44791" height="8.44791" rx="4.22396" transform="rotate(180 474.856 294.425)" fill="#FAFAFA"/>
        <rect x="569.899" y="275.418" width="8.44791" height="8.44791" rx="4.22396" transform="rotate(180 569.899 275.418)" fill="#FAFAFA"/>
        <rect x="569.899" y="237.402" width="8.44791" height="8.44791" rx="4.22396" transform="rotate(180 569.899 237.402)" fill="#FAFAFA"/>
        <rect x="569.899" y="199.387" width="8.44791" height="8.44791" rx="4.22396" transform="rotate(180 569.899 199.387)" fill="#FAFAFA"/>
        <rect x="531.882" y="275.418" width="8.44791" height="8.44791" rx="4.22396" transform="rotate(180 531.882 275.418)" fill="#FAFAFA"/>
        <rect x="531.882" y="237.402" width="8.44791" height="8.44791" rx="4.22396" transform="rotate(180 531.882 237.402)" fill="#FAFAFA"/>
        <rect x="531.882" y="199.387" width="8.44791" height="8.44791" rx="4.22396" transform="rotate(180 531.882 199.387)" fill="#FAFAFA"/>
        <rect x="493.868" y="275.418" width="8.44791" height="8.44791" rx="4.22396" transform="rotate(180 493.868 275.418)" fill="#FAFAFA"/>
        <rect x="493.868" y="237.402" width="8.44791" height="8.44791" rx="4.22396" transform="rotate(180 493.868 237.402)" fill="#FAFAFA"/>
        <rect x="493.868" y="199.387" width="8.44791" height="8.44791" rx="4.22396" transform="rotate(180 493.868 199.387)" fill="#FAFAFA"/>
        <rect x="550.891" y="275.418" width="8.44791" height="8.44791" rx="4.22396" transform="rotate(180 550.891 275.418)" fill="#FAFAFA"/>
        <rect x="550.891" y="237.402" width="8.44791" height="8.44791" rx="4.22396" transform="rotate(180 550.891 237.402)" fill="#FAFAFA"/>
        <rect x="550.891" y="199.387" width="8.44791" height="8.44791" rx="4.22396" transform="rotate(180 550.891 199.387)" fill="#FAFAFA"/>
        <rect x="512.874" y="275.418" width="8.44791" height="8.44791" rx="4.22396" transform="rotate(180 512.874 275.418)" fill="#FAFAFA"/>
        <rect x="512.874" y="237.402" width="8.44791" height="8.44791" rx="4.22396" transform="rotate(180 512.874 237.402)" fill="#FAFAFA"/>
        <rect x="512.874" y="199.387" width="8.44791" height="8.44791" rx="4.22396" transform="rotate(180 512.874 199.387)" fill="#FAFAFA"/>
        <rect x="588.903" y="275.418" width="8.44791" height="8.44791" rx="4.22396" transform="rotate(180 588.903 275.418)" fill="#FAFAFA"/>
        <rect x="474.859" y="275.418" width="8.44791" height="8.44791" rx="4.22396" transform="rotate(180 474.859 275.418)" fill="#FAFAFA"/>
        <rect x="588.903" y="237.402" width="8.44791" height="8.44791" rx="4.22396" transform="rotate(180 588.903 237.402)" fill="#FAFAFA"/>
        <rect x="474.859" y="237.402" width="8.44791" height="8.44791" rx="4.22396" transform="rotate(180 474.859 237.402)" fill="#FAFAFA"/>
        <rect x="588.903" y="199.387" width="8.44791" height="8.44791" rx="4.22396" transform="rotate(180 588.903 199.387)" fill="#FAFAFA"/>
        <rect x="474.859" y="199.387" width="8.44791" height="8.44791" rx="4.22396" transform="rotate(180 474.859 199.387)" fill="#FAFAFA"/>
        <rect x="569.899" y="256.41" width="8.44791" height="8.44791" rx="4.22396" transform="rotate(180 569.899 256.41)" fill="#FAFAFA"/>
        <rect x="569.899" y="218.395" width="8.44791" height="8.44791" rx="4.22396" transform="rotate(180 569.899 218.395)" fill="#FAFAFA"/>
        <rect x="569.899" y="180.379" width="8.44791" height="8.44791" rx="4.22396" transform="rotate(180 569.899 180.379)" fill="#FAFAFA"/>
        <rect x="531.882" y="256.41" width="8.44791" height="8.44791" rx="4.22396" transform="rotate(180 531.882 256.41)" fill="#FAFAFA"/>
        <rect x="531.882" y="218.395" width="8.44791" height="8.44791" rx="4.22396" transform="rotate(180 531.882 218.395)" fill="#FAFAFA"/>
        <rect x="531.882" y="180.379" width="8.44791" height="8.44791" rx="4.22396" transform="rotate(180 531.882 180.379)" fill="#FAFAFA"/>
        <rect x="493.868" y="256.41" width="8.44791" height="8.44791" rx="4.22396" transform="rotate(180 493.868 256.41)" fill="#FAFAFA"/>
        <rect x="493.868" y="218.395" width="8.44791" height="8.44791" rx="4.22396" transform="rotate(180 493.868 218.395)" fill="#FAFAFA"/>
        <rect x="493.868" y="180.379" width="8.44791" height="8.44791" rx="4.22396" transform="rotate(180 493.868 180.379)" fill="#FAFAFA"/>
        <rect x="550.891" y="256.41" width="8.44791" height="8.44791" rx="4.22396" transform="rotate(180 550.891 256.41)" fill="#FAFAFA"/>
        <rect x="550.891" y="218.395" width="8.44791" height="8.44791" rx="4.22396" transform="rotate(180 550.891 218.395)" fill="#FAFAFA"/>
        <rect x="550.891" y="180.379" width="8.44791" height="8.44791" rx="4.22396" transform="rotate(180 550.891 180.379)" fill="#FAFAFA"/>
        <rect x="512.874" y="256.41" width="8.44791" height="8.44791" rx="4.22396" transform="rotate(180 512.874 256.41)" fill="#FAFAFA"/>
        <rect x="512.874" y="218.395" width="8.44791" height="8.44791" rx="4.22396" transform="rotate(180 512.874 218.395)" fill="#FAFAFA"/>
        <rect x="512.874" y="180.379" width="8.44791" height="8.44791" rx="4.22396" transform="rotate(180 512.874 180.379)" fill="#FAFAFA"/>
        <rect x="588.903" y="256.41" width="8.44791" height="8.44791" rx="4.22396" transform="rotate(180 588.903 256.41)" fill="#FAFAFA"/>
        <rect x="474.859" y="256.41" width="8.44791" height="8.44791" rx="4.22396" transform="rotate(180 474.859 256.41)" fill="#FAFAFA"/>
        <rect x="588.903" y="218.395" width="8.44791" height="8.44791" rx="4.22396" transform="rotate(180 588.903 218.395)" fill="#FAFAFA"/>
        <rect x="474.859" y="218.395" width="8.44791" height="8.44791" rx="4.22396" transform="rotate(180 474.859 218.395)" fill="#FAFAFA"/>
        <rect x="588.903" y="180.379" width="8.44791" height="8.44791" rx="4.22396" transform="rotate(180 588.903 180.379)" fill="#FAFAFA"/>
        <rect x="474.859" y="180.379" width="8.44791" height="8.44791" rx="4.22396" transform="rotate(180 474.859 180.379)" fill="#FAFAFA"/>
    </g>
    <defs>
        <linearGradient id="paint0_linear" x1="1174.83" y1="1073.82" x2="315.138" y2="976.415" gradientUnits="userSpaceOnUse">
            <stop stop-color="#DADDE1"/>
            <stop offset="1" stop-color="white"/>
        </linearGradient>
    </defs>
</svg>