<svg width="34" height="34" viewBox="0 0 34 34" fill="none" xmlns="http://www.w3.org/2000/svg">
    <path d="M19.8529 2.55946C25.6901 3.70336 30.3172 8.33103 31.4617 14.1683H19.8529V2.55946ZM17.5889 0.0214844V16.4323H33.9997L33.9583 15.8278C33.385 7.4141 26.6076 0.636167 18.1934 0.0622368L17.5889 0.0214844Z" fill="url(#paint0_linear)"/>
    <path d="M29.1011 28.9395L29.5007 28.5059C32.1145 25.6714 33.6976 22.0002 33.9586 18.1689L33.9999 17.5645H17.7261L29.1011 28.9395Z" fill="url(#paint1_linear)"/>
    <path d="M16.4142 0.0214844L15.8097 0.0622368C6.94433 0.667298 0 8.10575 0 16.9983C0 21.0956 1.4835 25.0542 4.17713 28.1458L4.5756 28.6031L16.4142 16.764V0.0214844Z" fill="url(#paint2_linear)"/>
    <path d="M16.6486 21.3323L24.7855 29.4692C22.4575 30.9272 19.7457 31.7151 16.9802 31.7151C14.0427 31.7151 11.1877 30.8349 8.77201 29.2094L16.6486 21.3323ZM16.6486 18.1304L5.37598 29.403L5.83331 29.8014C8.92427 32.495 12.8835 33.9785 16.9802 33.9785C20.901 33.9785 24.7272 32.606 27.7553 30.115L28.237 29.7188L16.6486 18.1304Z" fill="url(#paint3_linear)"/>
    <defs>
        <linearGradient id="paint0_linear" x1="25.7943" y1="0.0214844" x2="25.7943" y2="16.4323" gradientUnits="userSpaceOnUse">
            <stop/>
            <stop offset="0.0001" stop-color="#4B95F9"/>
            <stop offset="1" stop-color="#4670FD"/>
        </linearGradient>
        <linearGradient id="paint1_linear" x1="25.863" y1="17.5645" x2="25.863" y2="28.9395" gradientUnits="userSpaceOnUse">
            <stop/>
            <stop offset="0.0001" stop-color="#4B95F9"/>
            <stop offset="1" stop-color="#4670FD"/>
        </linearGradient>
        <linearGradient id="paint2_linear" x1="8.20709" y1="0.0214844" x2="8.20709" y2="28.6031" gradientUnits="userSpaceOnUse">
            <stop/>
            <stop offset="0.0001" stop-color="#4B95F9"/>
            <stop offset="1" stop-color="#4670FD"/>
        </linearGradient>
        <linearGradient id="paint3_linear" x1="16.8065" y1="18.1304" x2="16.8065" y2="33.9785" gradientUnits="userSpaceOnUse">
            <stop/>
            <stop offset="0.0001" stop-color="#4B95F9"/>
            <stop offset="1" stop-color="#4670FD"/>
        </linearGradient>
    </defs>
</svg>