<svg width="74" height="68" viewBox="0 0 74 68" fill="none" xmlns="http://www.w3.org/2000/svg">
    <path d="M72.7667 65.4498V17.3499H57.9667V65.4498H54.2667V27.2165H39.4667V65.4498H35.7667V37.0832H20.9667V65.4498H17.2667V48.1832H2.46667V65.4498H1.23333C0.552533 65.4498 0 66.0011 0 66.6832C0 67.3652 0.552533 67.9165 1.23333 67.9165H2.46667H17.2667H20.9667H35.7667H39.4667H54.2667H57.9667H72.7667C73.4475 67.9165 74 67.3652 74 66.6832C74 66.0011 73.4475 65.4498 72.7667 65.4498Z" fill="url(#paint0_linear)"/>
    <path d="M9.90381 31.3235C10.1122 31.3235 10.3256 31.2705 10.5192 31.1583L55.251 5.33228L52.4513 11.4866C52.1689 12.107 52.4427 12.8383 53.0631 13.1195C53.2283 13.196 53.4022 13.2305 53.5737 13.2305C54.0423 13.2305 54.49 12.9617 54.6972 12.5078L59.0904 2.85081C59.1039 2.81998 59.1015 2.78668 59.1126 2.75461C59.136 2.68924 59.1545 2.62634 59.1668 2.55728C59.173 2.52274 59.1927 2.49438 59.1952 2.45861C59.1964 2.44381 59.1903 2.43148 59.1915 2.41668C59.194 2.36981 59.189 2.32664 59.1866 2.27978C59.1829 2.21194 59.1718 2.14781 59.157 2.07998C59.1471 2.03311 59.1446 1.98501 59.1286 1.93938C59.1138 1.89498 59.0879 1.85798 59.0682 1.81481C59.0521 1.78644 59.0521 1.75314 59.0349 1.72354C59.0176 1.69394 58.988 1.67668 58.9683 1.64831C58.9424 1.61008 58.9226 1.56938 58.8918 1.53484C58.8597 1.49784 58.819 1.47194 58.782 1.43864C58.7315 1.39301 58.6809 1.35108 58.6242 1.31408C58.5859 1.28941 58.5514 1.26228 58.5095 1.24131C58.4959 1.23514 58.4885 1.22281 58.4749 1.21664C58.4441 1.20308 58.4108 1.20554 58.38 1.19444C58.3121 1.16978 58.2455 1.15251 58.1752 1.14018C58.1432 1.13401 58.1173 1.11551 58.084 1.11304L47.5242 0.0893773C46.8397 0.0203107 46.2427 0.521044 46.1774 1.19691C46.1108 1.87524 46.6078 2.47834 47.2849 2.54371L54.014 3.19614L9.28591 29.0221C8.69514 29.3625 8.49411 30.1173 8.83451 30.7069C9.06267 31.1028 9.47707 31.3235 9.90381 31.3235Z" fill="url(#paint1_linear)"/>
    <defs>
        <linearGradient id="paint0_linear" x1="37" y1="17.3499" x2="37" y2="67.9165" gradientUnits="userSpaceOnUse">
            <stop stop-color="#4B97F9"/>
            <stop offset="1" stop-color="#466FFD"/>
        </linearGradient>
        <linearGradient id="paint1_linear" x1="33.9322" y1="0.0830078" x2="33.9322" y2="31.3235" gradientUnits="userSpaceOnUse">
            <stop stop-color="#4B97F9"/>
            <stop offset="1" stop-color="#466FFD"/>
        </linearGradient>
    </defs>
</svg>