<svg width="14" height="15" viewBox="0 0 14 15" fill="none" xmlns="http://www.w3.org/2000/svg">
    <path d="M13.3744 10.9478C13.7148 11.2833 13.7139 11.8246 13.3726 12.1591L11.375 14.1176C5.0925 14.1176 0 9.12493 0 2.96562L0.0035 2.96819L2.0125 0.999443C2.35462 0.664026 2.9085 0.664026 3.25062 0.999443L5.50812 3.21611C5.84937 3.55153 5.8485 4.09454 5.50725 4.4291L3.5 6.39699L7.875 10.6862L9.87963 8.72089C10.2218 8.38547 10.7774 8.38547 11.1186 8.7226L13.3744 10.9478ZM14 7.25483H12.25C12.25 4.41623 9.89538 2.10778 7 2.10778V0.39209C10.8596 0.39209 14 3.47089 14 7.25483ZM10.5 7.25483H8.75C8.75 6.30863 7.96513 5.53915 7 5.53915V3.82346C8.93025 3.82346 10.5 5.36243 10.5 7.25483Z" fill="#4A6DD0"/>
</svg>