<svg width="606" height="398" viewBox="0 0 606 398" fill="none" xmlns="http://www.w3.org/2000/svg">
    <mask id="mask0" mask-type="alpha" maskUnits="userSpaceOnUse" x="168" y="93" width="438" height="305">
        <rect x="168" y="93" width="438" height="305" fill="#C4C4C4"/>
    </mask>
    <g mask="url(#mask0)">
        <rect x="439.652" y="391.285" width="10.1611" height="10.1611" rx="5" transform="rotate(180 439.652 391.285)" fill="#F1F1F1"/>
        <rect x="302.477" y="391.285" width="10.1611" height="10.1611" rx="5" transform="rotate(180 302.477 391.285)" fill="#F1F1F1"/>
        <rect x="439.652" y="345.56" width="10.1611" height="10.1611" rx="5" transform="rotate(180 439.652 345.56)" fill="#F1F1F1"/>
        <rect x="302.477" y="345.56" width="10.1611" height="10.1611" rx="5" transform="rotate(180 302.477 345.56)" fill="#F1F1F1"/>
        <rect x="439.652" y="299.834" width="10.1611" height="10.1611" rx="5" transform="rotate(180 439.652 299.834)" fill="#F1F1F1"/>
        <rect x="302.477" y="299.834" width="10.1611" height="10.1611" rx="5" transform="rotate(180 302.477 299.834)" fill="#F1F1F1"/>
        <rect x="393.926" y="391.285" width="10.1611" height="10.1611" rx="5" transform="rotate(180 393.926 391.285)" fill="#F1F1F1"/>
        <rect x="256.75" y="391.285" width="10.1611" height="10.1611" rx="5" transform="rotate(180 256.75 391.285)" fill="#F1F1F1"/>
        <rect x="393.926" y="345.56" width="10.1611" height="10.1611" rx="5" transform="rotate(180 393.926 345.56)" fill="#F1F1F1"/>
        <rect x="256.75" y="345.56" width="10.1611" height="10.1611" rx="5" transform="rotate(180 256.75 345.56)" fill="#F1F1F1"/>
        <rect x="393.926" y="299.834" width="10.1611" height="10.1611" rx="5" transform="rotate(180 393.926 299.834)" fill="#F1F1F1"/>
        <rect x="256.75" y="299.834" width="10.1611" height="10.1611" rx="5" transform="rotate(180 256.75 299.834)" fill="#F1F1F1"/>
        <rect x="348.203" y="391.285" width="10.1611" height="10.1611" rx="5" transform="rotate(180 348.203 391.285)" fill="#F1F1F1"/>
        <rect x="211.026" y="391.285" width="10.1611" height="10.1611" rx="5" transform="rotate(180 211.026 391.285)" fill="#F1F1F1"/>
        <rect x="348.203" y="345.56" width="10.1611" height="10.1611" rx="5" transform="rotate(180 348.203 345.56)" fill="#F1F1F1"/>
        <rect x="211.026" y="345.56" width="10.1611" height="10.1611" rx="5" transform="rotate(180 211.026 345.56)" fill="#F1F1F1"/>
        <rect x="348.203" y="299.834" width="10.1611" height="10.1611" rx="5" transform="rotate(180 348.203 299.834)" fill="#F1F1F1"/>
        <rect x="211.026" y="299.834" width="10.1611" height="10.1611" rx="5" transform="rotate(180 211.026 299.834)" fill="#F1F1F1"/>
        <rect x="416.79" y="391.285" width="10.1611" height="10.1611" rx="5" transform="rotate(180 416.79 391.285)" fill="#F1F1F1"/>
        <rect x="279.613" y="391.285" width="10.1611" height="10.1611" rx="5" transform="rotate(180 279.613 391.285)" fill="#F1F1F1"/>
        <rect x="416.79" y="345.56" width="10.1611" height="10.1611" rx="5" transform="rotate(180 416.79 345.56)" fill="#F1F1F1"/>
        <rect x="279.613" y="345.56" width="10.1611" height="10.1611" rx="5" transform="rotate(180 279.613 345.56)" fill="#F1F1F1"/>
        <rect x="416.79" y="299.834" width="10.1611" height="10.1611" rx="5" transform="rotate(180 416.79 299.834)" fill="#F1F1F1"/>
        <rect x="279.613" y="299.834" width="10.1611" height="10.1611" rx="5" transform="rotate(180 279.613 299.834)" fill="#F1F1F1"/>
        <rect x="371.066" y="391.285" width="10.1611" height="10.1611" rx="5" transform="rotate(180 371.066 391.285)" fill="#F1F1F1"/>
        <rect x="233.891" y="391.285" width="10.1611" height="10.1611" rx="5" transform="rotate(180 233.891 391.285)" fill="#F1F1F1"/>
        <rect x="371.066" y="345.56" width="10.1611" height="10.1611" rx="5" transform="rotate(180 371.066 345.56)" fill="#F1F1F1"/>
        <rect x="233.891" y="345.56" width="10.1611" height="10.1611" rx="5" transform="rotate(180 233.891 345.56)" fill="#F1F1F1"/>
        <rect x="371.066" y="299.834" width="10.1611" height="10.1611" rx="5" transform="rotate(180 371.066 299.834)" fill="#F1F1F1"/>
        <rect x="233.891" y="299.834" width="10.1611" height="10.1611" rx="5" transform="rotate(180 233.891 299.834)" fill="#F1F1F1"/>
        <rect x="325.34" y="391.285" width="10.1611" height="10.1611" rx="5" transform="rotate(180 325.34 391.285)" fill="#F1F1F1"/>
        <rect x="188.164" y="391.285" width="10.1611" height="10.1611" rx="5" transform="rotate(180 188.164 391.285)" fill="#F1F1F1"/>
        <rect x="325.34" y="345.56" width="10.1611" height="10.1611" rx="5" transform="rotate(180 325.34 345.56)" fill="#F1F1F1"/>
        <rect x="188.164" y="345.56" width="10.1611" height="10.1611" rx="5" transform="rotate(180 188.164 345.56)" fill="#F1F1F1"/>
        <rect x="325.34" y="299.834" width="10.1611" height="10.1611" rx="5" transform="rotate(180 325.34 299.834)" fill="#F1F1F1"/>
        <rect x="188.164" y="299.834" width="10.1611" height="10.1611" rx="5" transform="rotate(180 188.164 299.834)" fill="#F1F1F1"/>
        <rect x="439.652" y="368.422" width="10.1611" height="10.1611" rx="5" transform="rotate(180 439.652 368.422)" fill="#F1F1F1"/>
        <rect x="302.477" y="368.422" width="10.1611" height="10.1611" rx="5" transform="rotate(180 302.477 368.422)" fill="#F1F1F1"/>
        <rect x="439.652" y="322.697" width="10.1611" height="10.1611" rx="5" transform="rotate(180 439.652 322.697)" fill="#F1F1F1"/>
        <rect x="302.477" y="322.697" width="10.1611" height="10.1611" rx="5" transform="rotate(180 302.477 322.697)" fill="#F1F1F1"/>
        <rect x="439.652" y="276.972" width="10.1611" height="10.1611" rx="5" transform="rotate(180 439.652 276.972)" fill="#F1F1F1"/>
        <rect x="302.477" y="276.972" width="10.1611" height="10.1611" rx="5" transform="rotate(180 302.477 276.972)" fill="#F1F1F1"/>
        <rect x="393.926" y="368.422" width="10.1611" height="10.1611" rx="5" transform="rotate(180 393.926 368.422)" fill="#F1F1F1"/>
        <rect x="256.75" y="368.422" width="10.1611" height="10.1611" rx="5" transform="rotate(180 256.75 368.422)" fill="#F1F1F1"/>
        <rect x="393.926" y="322.697" width="10.1611" height="10.1611" rx="5" transform="rotate(180 393.926 322.697)" fill="#F1F1F1"/>
        <rect x="256.75" y="322.697" width="10.1611" height="10.1611" rx="5" transform="rotate(180 256.75 322.697)" fill="#F1F1F1"/>
        <rect x="393.926" y="276.972" width="10.1611" height="10.1611" rx="5" transform="rotate(180 393.926 276.972)" fill="#F1F1F1"/>
        <rect x="256.75" y="276.972" width="10.1611" height="10.1611" rx="5" transform="rotate(180 256.75 276.972)" fill="#F1F1F1"/>
        <rect x="348.203" y="368.422" width="10.1611" height="10.1611" rx="5" transform="rotate(180 348.203 368.422)" fill="#F1F1F1"/>
        <rect x="211.026" y="368.422" width="10.1611" height="10.1611" rx="5" transform="rotate(180 211.026 368.422)" fill="#F1F1F1"/>
        <rect x="348.203" y="322.697" width="10.1611" height="10.1611" rx="5" transform="rotate(180 348.203 322.697)" fill="#F1F1F1"/>
        <rect x="211.026" y="322.697" width="10.1611" height="10.1611" rx="5" transform="rotate(180 211.026 322.697)" fill="#F1F1F1"/>
        <rect x="348.203" y="276.972" width="10.1611" height="10.1611" rx="5" transform="rotate(180 348.203 276.972)" fill="#F1F1F1"/>
        <rect x="211.026" y="276.972" width="10.1611" height="10.1611" rx="5" transform="rotate(180 211.026 276.972)" fill="#F1F1F1"/>
        <rect x="416.79" y="368.422" width="10.1611" height="10.1611" rx="5" transform="rotate(180 416.79 368.422)" fill="#F1F1F1"/>
        <rect x="279.613" y="368.422" width="10.1611" height="10.1611" rx="5" transform="rotate(180 279.613 368.422)" fill="#F1F1F1"/>
        <rect x="416.79" y="322.697" width="10.1611" height="10.1611" rx="5" transform="rotate(180 416.79 322.697)" fill="#F1F1F1"/>
        <rect x="279.613" y="322.697" width="10.1611" height="10.1611" rx="5" transform="rotate(180 279.613 322.697)" fill="#F1F1F1"/>
        <rect x="416.79" y="276.972" width="10.1611" height="10.1611" rx="5" transform="rotate(180 416.79 276.972)" fill="#F1F1F1"/>
        <rect x="279.613" y="276.972" width="10.1611" height="10.1611" rx="5" transform="rotate(180 279.613 276.972)" fill="#F1F1F1"/>
        <rect x="371.066" y="368.422" width="10.1611" height="10.1611" rx="5" transform="rotate(180 371.066 368.422)" fill="#F1F1F1"/>
        <rect x="233.891" y="368.422" width="10.1611" height="10.1611" rx="5" transform="rotate(180 233.891 368.422)" fill="#F1F1F1"/>
        <rect x="371.066" y="322.697" width="10.1611" height="10.1611" rx="5" transform="rotate(180 371.066 322.697)" fill="#F1F1F1"/>
        <rect x="233.891" y="322.697" width="10.1611" height="10.1611" rx="5" transform="rotate(180 233.891 322.697)" fill="#F1F1F1"/>
        <rect x="371.066" y="276.972" width="10.1611" height="10.1611" rx="5" transform="rotate(180 371.066 276.972)" fill="#F1F1F1"/>
        <rect x="233.891" y="276.972" width="10.1611" height="10.1611" rx="5" transform="rotate(180 233.891 276.972)" fill="#F1F1F1"/>
        <rect x="325.34" y="368.422" width="10.1611" height="10.1611" rx="5" transform="rotate(180 325.34 368.422)" fill="#F1F1F1"/>
        <rect x="188.164" y="368.422" width="10.1611" height="10.1611" rx="5" transform="rotate(180 188.164 368.422)" fill="#F1F1F1"/>
        <rect x="325.34" y="322.697" width="10.1611" height="10.1611" rx="5" transform="rotate(180 325.34 322.697)" fill="#F1F1F1"/>
        <rect x="188.164" y="322.697" width="10.1611" height="10.1611" rx="5" transform="rotate(180 188.164 322.697)" fill="#F1F1F1"/>
        <rect x="325.34" y="276.972" width="10.1611" height="10.1611" rx="5" transform="rotate(180 325.34 276.972)" fill="#F1F1F1"/>
        <rect x="188.164" y="276.972" width="10.1611" height="10.1611" rx="5" transform="rotate(180 188.164 276.972)" fill="#F1F1F1"/>
        <rect x="439.652" y="254.109" width="10.1611" height="10.1611" rx="5" transform="rotate(180 439.652 254.109)" fill="#F1F1F1"/>
        <rect x="302.477" y="254.109" width="10.1611" height="10.1611" rx="5" transform="rotate(180 302.477 254.109)" fill="#F1F1F1"/>
        <rect x="439.652" y="208.384" width="10.1611" height="10.1611" rx="5" transform="rotate(180 439.652 208.384)" fill="#F1F1F1"/>
        <rect x="302.477" y="208.384" width="10.1611" height="10.1611" rx="5" transform="rotate(180 302.477 208.384)" fill="#F1F1F1"/>
        <rect x="439.652" y="162.659" width="10.1611" height="10.1611" rx="5" transform="rotate(180 439.652 162.659)" fill="#F1F1F1"/>
        <rect x="302.477" y="162.659" width="10.1611" height="10.1611" rx="5" transform="rotate(180 302.477 162.659)" fill="#F1F1F1"/>
        <rect x="393.926" y="254.109" width="10.1611" height="10.1611" rx="5" transform="rotate(180 393.926 254.109)" fill="#F1F1F1"/>
        <rect x="256.75" y="254.109" width="10.1611" height="10.1611" rx="5" transform="rotate(180 256.75 254.109)" fill="#F1F1F1"/>
        <rect x="393.926" y="208.384" width="10.1611" height="10.1611" rx="5" transform="rotate(180 393.926 208.384)" fill="#F1F1F1"/>
        <rect x="256.75" y="208.384" width="10.1611" height="10.1611" rx="5" transform="rotate(180 256.75 208.384)" fill="#F1F1F1"/>
        <rect x="393.926" y="162.659" width="10.1611" height="10.1611" rx="5" transform="rotate(180 393.926 162.659)" fill="#F1F1F1"/>
        <rect x="256.75" y="162.659" width="10.1611" height="10.1611" rx="5" transform="rotate(180 256.75 162.659)" fill="#F1F1F1"/>
        <rect x="348.203" y="254.109" width="10.1611" height="10.1611" rx="5" transform="rotate(180 348.203 254.109)" fill="#F1F1F1"/>
        <rect x="211.026" y="254.109" width="10.1611" height="10.1611" rx="5" transform="rotate(180 211.026 254.109)" fill="#F1F1F1"/>
        <rect x="348.203" y="208.384" width="10.1611" height="10.1611" rx="5" transform="rotate(180 348.203 208.384)" fill="#F1F1F1"/>
        <rect x="211.026" y="208.384" width="10.1611" height="10.1611" rx="5" transform="rotate(180 211.026 208.384)" fill="#F1F1F1"/>
        <rect x="348.203" y="162.659" width="10.1611" height="10.1611" rx="5" transform="rotate(180 348.203 162.659)" fill="#F1F1F1"/>
        <rect x="211.026" y="162.659" width="10.1611" height="10.1611" rx="5" transform="rotate(180 211.026 162.659)" fill="#F1F1F1"/>
        <rect x="416.79" y="254.109" width="10.1611" height="10.1611" rx="5" transform="rotate(180 416.79 254.109)" fill="#F1F1F1"/>
        <rect x="279.613" y="254.109" width="10.1611" height="10.1611" rx="5" transform="rotate(180 279.613 254.109)" fill="#F1F1F1"/>
        <rect x="416.79" y="208.384" width="10.1611" height="10.1611" rx="5" transform="rotate(180 416.79 208.384)" fill="#F1F1F1"/>
        <rect x="279.613" y="208.384" width="10.1611" height="10.1611" rx="5" transform="rotate(180 279.613 208.384)" fill="#F1F1F1"/>
        <rect x="416.79" y="162.659" width="10.1611" height="10.1611" rx="5" transform="rotate(180 416.79 162.659)" fill="#F1F1F1"/>
        <rect x="279.613" y="162.659" width="10.1611" height="10.1611" rx="5" transform="rotate(180 279.613 162.659)" fill="#F1F1F1"/>
        <rect x="371.066" y="254.109" width="10.1611" height="10.1611" rx="5" transform="rotate(180 371.066 254.109)" fill="#F1F1F1"/>
        <rect x="233.891" y="254.109" width="10.1611" height="10.1611" rx="5" transform="rotate(180 233.891 254.109)" fill="#F1F1F1"/>
        <rect x="371.066" y="208.384" width="10.1611" height="10.1611" rx="5" transform="rotate(180 371.066 208.384)" fill="#F1F1F1"/>
        <rect x="233.891" y="208.384" width="10.1611" height="10.1611" rx="5" transform="rotate(180 233.891 208.384)" fill="#F1F1F1"/>
        <rect x="371.066" y="162.659" width="10.1611" height="10.1611" rx="5" transform="rotate(180 371.066 162.659)" fill="#F1F1F1"/>
        <rect x="233.891" y="162.659" width="10.1611" height="10.1611" rx="5" transform="rotate(180 233.891 162.659)" fill="#F1F1F1"/>
        <rect x="325.34" y="254.109" width="10.1611" height="10.1611" rx="5" transform="rotate(180 325.34 254.109)" fill="#F1F1F1"/>
        <rect x="188.164" y="254.109" width="10.1611" height="10.1611" rx="5" transform="rotate(180 188.164 254.109)" fill="#F1F1F1"/>
        <rect x="325.34" y="208.384" width="10.1611" height="10.1611" rx="5" transform="rotate(180 325.34 208.384)" fill="#F1F1F1"/>
        <rect x="188.164" y="208.384" width="10.1611" height="10.1611" rx="5" transform="rotate(180 188.164 208.384)" fill="#F1F1F1"/>
        <rect x="325.34" y="162.659" width="10.1611" height="10.1611" rx="5" transform="rotate(180 325.34 162.659)" fill="#F1F1F1"/>
        <rect x="188.164" y="162.659" width="10.1611" height="10.1611" rx="5" transform="rotate(180 188.164 162.659)" fill="#F1F1F1"/>
        <rect x="439.652" y="231.247" width="10.1611" height="10.1611" rx="5" transform="rotate(180 439.652 231.247)" fill="#F1F1F1"/>
        <rect x="302.477" y="231.247" width="10.1611" height="10.1611" rx="5" transform="rotate(180 302.477 231.247)" fill="#F1F1F1"/>
        <rect x="439.652" y="185.522" width="10.1611" height="10.1611" rx="5" transform="rotate(180 439.652 185.522)" fill="#F1F1F1"/>
        <rect x="302.477" y="185.522" width="10.1611" height="10.1611" rx="5" transform="rotate(180 302.477 185.522)" fill="#F1F1F1"/>
        <rect x="439.652" y="139.797" width="10.1611" height="10.1611" rx="5" transform="rotate(180 439.652 139.797)" fill="#F1F1F1"/>
        <rect x="302.477" y="139.797" width="10.1611" height="10.1611" rx="5" transform="rotate(180 302.477 139.797)" fill="#F1F1F1"/>
        <rect x="393.926" y="231.247" width="10.1611" height="10.1611" rx="5" transform="rotate(180 393.926 231.247)" fill="#F1F1F1"/>
        <rect x="256.75" y="231.247" width="10.1611" height="10.1611" rx="5" transform="rotate(180 256.75 231.247)" fill="#F1F1F1"/>
        <rect x="393.926" y="185.522" width="10.1611" height="10.1611" rx="5" transform="rotate(180 393.926 185.522)" fill="#F1F1F1"/>
        <rect x="256.75" y="185.522" width="10.1611" height="10.1611" rx="5" transform="rotate(180 256.75 185.522)" fill="#F1F1F1"/>
        <rect x="393.926" y="139.797" width="10.1611" height="10.1611" rx="5" transform="rotate(180 393.926 139.797)" fill="#F1F1F1"/>
        <rect x="256.75" y="139.797" width="10.1611" height="10.1611" rx="5" transform="rotate(180 256.75 139.797)" fill="#F1F1F1"/>
        <rect x="348.203" y="231.247" width="10.1611" height="10.1611" rx="5" transform="rotate(180 348.203 231.247)" fill="#F1F1F1"/>
        <rect x="211.026" y="231.247" width="10.1611" height="10.1611" rx="5" transform="rotate(180 211.026 231.247)" fill="#F1F1F1"/>
        <rect x="348.203" y="185.522" width="10.1611" height="10.1611" rx="5" transform="rotate(180 348.203 185.522)" fill="#F1F1F1"/>
        <rect x="211.026" y="185.522" width="10.1611" height="10.1611" rx="5" transform="rotate(180 211.026 185.522)" fill="#F1F1F1"/>
        <rect x="348.203" y="139.797" width="10.1611" height="10.1611" rx="5" transform="rotate(180 348.203 139.797)" fill="#F1F1F1"/>
        <rect x="211.026" y="139.797" width="10.1611" height="10.1611" rx="5" transform="rotate(180 211.026 139.797)" fill="#F1F1F1"/>
        <rect x="416.79" y="231.247" width="10.1611" height="10.1611" rx="5" transform="rotate(180 416.79 231.247)" fill="#F1F1F1"/>
        <rect x="279.613" y="231.247" width="10.1611" height="10.1611" rx="5" transform="rotate(180 279.613 231.247)" fill="#F1F1F1"/>
        <rect x="416.79" y="185.522" width="10.1611" height="10.1611" rx="5" transform="rotate(180 416.79 185.522)" fill="#F1F1F1"/>
        <rect x="279.613" y="185.522" width="10.1611" height="10.1611" rx="5" transform="rotate(180 279.613 185.522)" fill="#F1F1F1"/>
        <rect x="416.79" y="139.797" width="10.1611" height="10.1611" rx="5" transform="rotate(180 416.79 139.797)" fill="#F1F1F1"/>
        <rect x="279.613" y="139.797" width="10.1611" height="10.1611" rx="5" transform="rotate(180 279.613 139.797)" fill="#F1F1F1"/>
        <rect x="371.066" y="231.247" width="10.1611" height="10.1611" rx="5" transform="rotate(180 371.066 231.247)" fill="#F1F1F1"/>
        <rect x="233.891" y="231.247" width="10.1611" height="10.1611" rx="5" transform="rotate(180 233.891 231.247)" fill="#F1F1F1"/>
        <rect x="371.066" y="185.522" width="10.1611" height="10.1611" rx="5" transform="rotate(180 371.066 185.522)" fill="#F1F1F1"/>
        <rect x="233.891" y="185.522" width="10.1611" height="10.1611" rx="5" transform="rotate(180 233.891 185.522)" fill="#F1F1F1"/>
        <rect x="371.066" y="139.797" width="10.1611" height="10.1611" rx="5" transform="rotate(180 371.066 139.797)" fill="#F1F1F1"/>
        <rect x="233.891" y="139.797" width="10.1611" height="10.1611" rx="5" transform="rotate(180 233.891 139.797)" fill="#F1F1F1"/>
        <rect x="325.34" y="231.247" width="10.1611" height="10.1611" rx="5" transform="rotate(180 325.34 231.247)" fill="#F1F1F1"/>
        <rect x="188.164" y="231.247" width="10.1611" height="10.1611" rx="5" transform="rotate(180 188.164 231.247)" fill="#F1F1F1"/>
        <rect x="325.34" y="185.522" width="10.1611" height="10.1611" rx="5" transform="rotate(180 325.34 185.522)" fill="#F1F1F1"/>
        <rect x="188.164" y="185.522" width="10.1611" height="10.1611" rx="5" transform="rotate(180 188.164 185.522)" fill="#F1F1F1"/>
        <rect x="325.34" y="139.797" width="10.1611" height="10.1611" rx="5" transform="rotate(180 325.34 139.797)" fill="#F1F1F1"/>
        <rect x="188.164" y="139.797" width="10.1611" height="10.1611" rx="5" transform="rotate(180 188.164 139.797)" fill="#F1F1F1"/>
        <rect x="576.828" y="390.65" width="10.1611" height="10.1611" rx="5" transform="rotate(180 576.828 390.65)" fill="#F1F1F1"/>
        <rect x="576.828" y="344.925" width="10.1611" height="10.1611" rx="5" transform="rotate(180 576.828 344.925)" fill="#F1F1F1"/>
        <rect x="576.828" y="299.199" width="10.1611" height="10.1611" rx="5" transform="rotate(180 576.828 299.199)" fill="#F1F1F1"/>
        <rect x="531.102" y="390.65" width="10.1611" height="10.1611" rx="5" transform="rotate(180 531.102 390.65)" fill="#F1F1F1"/>
        <rect x="531.102" y="344.925" width="10.1611" height="10.1611" rx="5" transform="rotate(180 531.102 344.925)" fill="#F1F1F1"/>
        <rect x="531.102" y="299.199" width="10.1611" height="10.1611" rx="5" transform="rotate(180 531.102 299.199)" fill="#F1F1F1"/>
        <rect x="485.375" y="390.65" width="10.1611" height="10.1611" rx="5" transform="rotate(180 485.375 390.65)" fill="#F1F1F1"/>
        <rect x="485.375" y="344.925" width="10.1611" height="10.1611" rx="5" transform="rotate(180 485.375 344.925)" fill="#F1F1F1"/>
        <rect x="485.375" y="299.199" width="10.1611" height="10.1611" rx="5" transform="rotate(180 485.375 299.199)" fill="#F1F1F1"/>
        <rect x="553.965" y="390.65" width="10.1611" height="10.1611" rx="5" transform="rotate(180 553.965 390.65)" fill="#F1F1F1"/>
        <rect x="553.965" y="344.925" width="10.1611" height="10.1611" rx="5" transform="rotate(180 553.965 344.925)" fill="#F1F1F1"/>
        <rect x="553.965" y="299.199" width="10.1611" height="10.1611" rx="5" transform="rotate(180 553.965 299.199)" fill="#F1F1F1"/>
        <rect x="508.238" y="390.65" width="10.1611" height="10.1611" rx="5" transform="rotate(180 508.238 390.65)" fill="#F1F1F1"/>
        <rect x="508.238" y="344.925" width="10.1611" height="10.1611" rx="5" transform="rotate(180 508.238 344.925)" fill="#F1F1F1"/>
        <rect x="508.238" y="299.199" width="10.1611" height="10.1611" rx="5" transform="rotate(180 508.238 299.199)" fill="#F1F1F1"/>
        <rect x="599.688" y="390.65" width="10.1611" height="10.1611" rx="5" transform="rotate(180 599.688 390.65)" fill="#F1F1F1"/>
        <rect x="462.512" y="390.65" width="10.1611" height="10.1611" rx="5" transform="rotate(180 462.512 390.65)" fill="#F1F1F1"/>
        <rect x="599.688" y="344.925" width="10.1611" height="10.1611" rx="5" transform="rotate(180 599.688 344.925)" fill="#F1F1F1"/>
        <rect x="462.512" y="344.925" width="10.1611" height="10.1611" rx="5" transform="rotate(180 462.512 344.925)" fill="#F1F1F1"/>
        <rect x="599.688" y="299.199" width="10.1611" height="10.1611" rx="5" transform="rotate(180 599.688 299.199)" fill="#F1F1F1"/>
        <rect x="462.512" y="299.199" width="10.1611" height="10.1611" rx="5" transform="rotate(180 462.512 299.199)" fill="#F1F1F1"/>
        <rect x="576.828" y="367.787" width="10.1611" height="10.1611" rx="5" transform="rotate(180 576.828 367.787)" fill="#F1F1F1"/>
        <rect x="576.828" y="322.062" width="10.1611" height="10.1611" rx="5" transform="rotate(180 576.828 322.062)" fill="#F1F1F1"/>
        <rect x="576.828" y="276.337" width="10.1611" height="10.1611" rx="5" transform="rotate(180 576.828 276.337)" fill="#F1F1F1"/>
        <rect x="531.102" y="367.787" width="10.1611" height="10.1611" rx="5" transform="rotate(180 531.102 367.787)" fill="#F1F1F1"/>
        <rect x="531.102" y="322.062" width="10.1611" height="10.1611" rx="5" transform="rotate(180 531.102 322.062)" fill="#F1F1F1"/>
        <rect x="531.102" y="276.337" width="10.1611" height="10.1611" rx="5" transform="rotate(180 531.102 276.337)" fill="#F1F1F1"/>
        <rect x="485.375" y="367.787" width="10.1611" height="10.1611" rx="5" transform="rotate(180 485.375 367.787)" fill="#F1F1F1"/>
        <rect x="485.375" y="322.062" width="10.1611" height="10.1611" rx="5" transform="rotate(180 485.375 322.062)" fill="#F1F1F1"/>
        <rect x="485.375" y="276.337" width="10.1611" height="10.1611" rx="5" transform="rotate(180 485.375 276.337)" fill="#F1F1F1"/>
        <rect x="553.965" y="367.787" width="10.1611" height="10.1611" rx="5" transform="rotate(180 553.965 367.787)" fill="#F1F1F1"/>
        <rect x="553.965" y="322.062" width="10.1611" height="10.1611" rx="5" transform="rotate(180 553.965 322.062)" fill="#F1F1F1"/>
        <rect x="553.965" y="276.337" width="10.1611" height="10.1611" rx="5" transform="rotate(180 553.965 276.337)" fill="#F1F1F1"/>
        <rect x="508.238" y="367.787" width="10.1611" height="10.1611" rx="5" transform="rotate(180 508.238 367.787)" fill="#F1F1F1"/>
        <rect x="508.238" y="322.062" width="10.1611" height="10.1611" rx="5" transform="rotate(180 508.238 322.062)" fill="#F1F1F1"/>
        <rect x="508.238" y="276.337" width="10.1611" height="10.1611" rx="5" transform="rotate(180 508.238 276.337)" fill="#F1F1F1"/>
        <rect x="599.688" y="367.787" width="10.1611" height="10.1611" rx="5" transform="rotate(180 599.688 367.787)" fill="#F1F1F1"/>
        <rect x="462.512" y="367.787" width="10.1611" height="10.1611" rx="5" transform="rotate(180 462.512 367.787)" fill="#F1F1F1"/>
        <rect x="599.688" y="322.062" width="10.1611" height="10.1611" rx="5" transform="rotate(180 599.688 322.062)" fill="#F1F1F1"/>
        <rect x="462.512" y="322.062" width="10.1611" height="10.1611" rx="5" transform="rotate(180 462.512 322.062)" fill="#F1F1F1"/>
        <rect x="599.688" y="276.337" width="10.1611" height="10.1611" rx="5" transform="rotate(180 599.688 276.337)" fill="#F1F1F1"/>
        <rect x="462.512" y="276.337" width="10.1611" height="10.1611" rx="5" transform="rotate(180 462.512 276.337)" fill="#F1F1F1"/>
        <rect x="576.828" y="253.474" width="10.1611" height="10.1611" rx="5" transform="rotate(180 576.828 253.474)" fill="#F1F1F1"/>
        <rect x="576.828" y="207.749" width="10.1611" height="10.1611" rx="5" transform="rotate(180 576.828 207.749)" fill="#F1F1F1"/>
        <rect x="576.828" y="162.024" width="10.1611" height="10.1611" rx="5" transform="rotate(180 576.828 162.024)" fill="#F1F1F1"/>
        <rect x="531.102" y="253.474" width="10.1611" height="10.1611" rx="5" transform="rotate(180 531.102 253.474)" fill="#F1F1F1"/>
        <rect x="531.102" y="207.749" width="10.1611" height="10.1611" rx="5" transform="rotate(180 531.102 207.749)" fill="#F1F1F1"/>
        <rect x="531.102" y="162.024" width="10.1611" height="10.1611" rx="5" transform="rotate(180 531.102 162.024)" fill="#F1F1F1"/>
        <rect x="485.375" y="253.474" width="10.1611" height="10.1611" rx="5" transform="rotate(180 485.375 253.474)" fill="#F1F1F1"/>
        <rect x="485.375" y="207.749" width="10.1611" height="10.1611" rx="5" transform="rotate(180 485.375 207.749)" fill="#F1F1F1"/>
        <rect x="485.375" y="162.024" width="10.1611" height="10.1611" rx="5" transform="rotate(180 485.375 162.024)" fill="#F1F1F1"/>
        <rect x="553.964" y="253.474" width="10.1611" height="10.1611" rx="5" transform="rotate(180 553.964 253.474)" fill="#F1F1F1"/>
        <rect x="553.964" y="207.749" width="10.1611" height="10.1611" rx="5" transform="rotate(180 553.964 207.749)" fill="#F1F1F1"/>
        <rect x="553.964" y="162.024" width="10.1611" height="10.1611" rx="5" transform="rotate(180 553.964 162.024)" fill="#F1F1F1"/>
        <rect x="508.239" y="253.474" width="10.1611" height="10.1611" rx="5" transform="rotate(180 508.239 253.474)" fill="#F1F1F1"/>
        <rect x="508.239" y="207.749" width="10.1611" height="10.1611" rx="5" transform="rotate(180 508.239 207.749)" fill="#F1F1F1"/>
        <rect x="508.239" y="162.024" width="10.1611" height="10.1611" rx="5" transform="rotate(180 508.239 162.024)" fill="#F1F1F1"/>
        <rect x="599.688" y="253.474" width="10.1611" height="10.1611" rx="5" transform="rotate(180 599.688 253.474)" fill="#F1F1F1"/>
        <rect x="462.516" y="253.474" width="10.1611" height="10.1611" rx="5" transform="rotate(180 462.516 253.474)" fill="#F1F1F1"/>
        <rect x="599.688" y="207.749" width="10.1611" height="10.1611" rx="5" transform="rotate(180 599.688 207.749)" fill="#F1F1F1"/>
        <rect x="462.516" y="207.749" width="10.1611" height="10.1611" rx="5" transform="rotate(180 462.516 207.749)" fill="#F1F1F1"/>
        <rect x="599.688" y="162.024" width="10.1611" height="10.1611" rx="5" transform="rotate(180 599.688 162.024)" fill="#F1F1F1"/>
        <rect x="462.516" y="162.024" width="10.1611" height="10.1611" rx="5" transform="rotate(180 462.516 162.024)" fill="#F1F1F1"/>
        <rect x="576.828" y="230.612" width="10.1611" height="10.1611" rx="5" transform="rotate(180 576.828 230.612)" fill="#F1F1F1"/>
        <rect x="576.828" y="184.887" width="10.1611" height="10.1611" rx="5" transform="rotate(180 576.828 184.887)" fill="#F1F1F1"/>
        <rect x="576.828" y="139.162" width="10.1611" height="10.1611" rx="5" transform="rotate(180 576.828 139.162)" fill="#F1F1F1"/>
        <rect x="531.102" y="230.612" width="10.1611" height="10.1611" rx="5" transform="rotate(180 531.102 230.612)" fill="#F1F1F1"/>
        <rect x="531.102" y="184.887" width="10.1611" height="10.1611" rx="5" transform="rotate(180 531.102 184.887)" fill="#F1F1F1"/>
        <rect x="531.102" y="139.162" width="10.1611" height="10.1611" rx="5" transform="rotate(180 531.102 139.162)" fill="#F1F1F1"/>
        <rect x="485.375" y="230.612" width="10.1611" height="10.1611" rx="5" transform="rotate(180 485.375 230.612)" fill="#F1F1F1"/>
        <rect x="485.375" y="184.887" width="10.1611" height="10.1611" rx="5" transform="rotate(180 485.375 184.887)" fill="#F1F1F1"/>
        <rect x="485.375" y="139.162" width="10.1611" height="10.1611" rx="5" transform="rotate(180 485.375 139.162)" fill="#F1F1F1"/>
        <rect x="553.964" y="230.612" width="10.1611" height="10.1611" rx="5" transform="rotate(180 553.964 230.612)" fill="#F1F1F1"/>
        <rect x="553.964" y="184.887" width="10.1611" height="10.1611" rx="5" transform="rotate(180 553.964 184.887)" fill="#F1F1F1"/>
        <rect x="553.964" y="139.162" width="10.1611" height="10.1611" rx="5" transform="rotate(180 553.964 139.162)" fill="#F1F1F1"/>
        <rect x="508.239" y="230.612" width="10.1611" height="10.1611" rx="5" transform="rotate(180 508.239 230.612)" fill="#F1F1F1"/>
        <rect x="508.239" y="184.887" width="10.1611" height="10.1611" rx="5" transform="rotate(180 508.239 184.887)" fill="#F1F1F1"/>
        <rect x="508.239" y="139.162" width="10.1611" height="10.1611" rx="5" transform="rotate(180 508.239 139.162)" fill="#F1F1F1"/>
        <rect x="599.688" y="230.612" width="10.1611" height="10.1611" rx="5" transform="rotate(180 599.688 230.612)" fill="#F1F1F1"/>
        <rect x="462.516" y="230.612" width="10.1611" height="10.1611" rx="5" transform="rotate(180 462.516 230.612)" fill="#F1F1F1"/>
        <rect x="599.688" y="184.887" width="10.1611" height="10.1611" rx="5" transform="rotate(180 599.688 184.887)" fill="#F1F1F1"/>
        <rect x="462.516" y="184.887" width="10.1611" height="10.1611" rx="5" transform="rotate(180 462.516 184.887)" fill="#F1F1F1"/>
        <rect x="599.688" y="139.162" width="10.1611" height="10.1611" rx="5" transform="rotate(180 599.688 139.162)" fill="#F1F1F1"/>
        <rect x="462.516" y="139.162" width="10.1611" height="10.1611" rx="5" transform="rotate(180 462.516 139.162)" fill="#F1F1F1"/>
    </g>
    <rect x="210.57" y="210.501" width="8.17761" height="8.17761" rx="4.08881" transform="rotate(180 210.57 210.501)" fill="#ECF0FB"/>
    <rect x="100.176" y="210.501" width="8.17761" height="8.17761" rx="4.08881" transform="rotate(180 100.176 210.501)" fill="#ECF0FB"/>
    <rect x="210.574" y="173.702" width="8.17761" height="8.17761" rx="4.08881" transform="rotate(180 210.574 173.702)" fill="#ECF0FB"/>
    <rect x="100.176" y="173.702" width="8.17761" height="8.17761" rx="4.08881" transform="rotate(180 100.176 173.702)" fill="#ECF0FB"/>
    <rect x="210.574" y="136.903" width="8.17761" height="8.17761" rx="4.08881" transform="rotate(180 210.574 136.903)" fill="#ECF0FB"/>
    <rect x="100.176" y="136.903" width="8.17761" height="8.17761" rx="4.08881" transform="rotate(180 100.176 136.903)" fill="#ECF0FB"/>
    <rect x="173.773" y="210.501" width="8.17761" height="8.17761" rx="4.08881" transform="rotate(180 173.773 210.501)" fill="#ECF0FB"/>
    <rect x="63.3789" y="210.501" width="8.17761" height="8.17761" rx="4.08881" transform="rotate(180 63.3789 210.501)" fill="#ECF0FB"/>
    <rect x="173.773" y="173.702" width="8.17761" height="8.17761" rx="4.08881" transform="rotate(180 173.773 173.702)" fill="#ECF0FB"/>
    <rect x="63.3789" y="173.702" width="8.17761" height="8.17761" rx="4.08881" transform="rotate(180 63.3789 173.702)" fill="#ECF0FB"/>
    <rect x="173.773" y="136.903" width="8.17761" height="8.17761" rx="4.08881" transform="rotate(180 173.773 136.903)" fill="#ECF0FB"/>
    <rect x="63.3789" y="136.903" width="8.17761" height="8.17761" rx="4.08881" transform="rotate(180 63.3789 136.903)" fill="#ECF0FB"/>
    <rect x="136.976" y="210.501" width="8.17761" height="8.17761" rx="4.08881" transform="rotate(180 136.976 210.501)" fill="#ECF0FB"/>
    <rect x="26.5791" y="210.501" width="8.17761" height="8.17761" rx="4.08881" transform="rotate(180 26.5791 210.501)" fill="#ECF0FB"/>
    <rect x="136.976" y="173.702" width="8.17761" height="8.17761" rx="4.08881" transform="rotate(180 136.976 173.702)" fill="#ECF0FB"/>
    <rect x="26.5791" y="173.702" width="8.17761" height="8.17761" rx="4.08881" transform="rotate(180 26.5791 173.702)" fill="#ECF0FB"/>
    <rect x="136.976" y="136.903" width="8.17761" height="8.17761" rx="4.08881" transform="rotate(180 136.976 136.903)" fill="#ECF0FB"/>
    <rect x="26.5791" y="136.903" width="8.17761" height="8.17761" rx="4.08881" transform="rotate(180 26.5791 136.903)" fill="#ECF0FB"/>
    <rect x="192.173" y="210.501" width="8.17761" height="8.17761" rx="4.08881" transform="rotate(180 192.173 210.501)" fill="#ECF0FB"/>
    <rect x="81.7773" y="210.501" width="8.17761" height="8.17761" rx="4.08881" transform="rotate(180 81.7773 210.501)" fill="#ECF0FB"/>
    <rect x="192.173" y="173.702" width="8.17761" height="8.17761" rx="4.08881" transform="rotate(180 192.173 173.702)" fill="#ECF0FB"/>
    <rect x="81.7773" y="173.702" width="8.17761" height="8.17761" rx="4.08881" transform="rotate(180 81.7773 173.702)" fill="#ECF0FB"/>
    <rect x="192.173" y="136.903" width="8.17761" height="8.17761" rx="4.08881" transform="rotate(180 192.173 136.903)" fill="#ECF0FB"/>
    <rect x="81.7773" y="136.903" width="8.17761" height="8.17761" rx="4.08881" transform="rotate(180 81.7773 136.903)" fill="#ECF0FB"/>
    <rect x="155.376" y="210.501" width="8.17761" height="8.17761" rx="4.08881" transform="rotate(180 155.376 210.501)" fill="#ECF0FB"/>
    <rect x="44.9756" y="210.501" width="8.17761" height="8.17761" rx="4.08881" transform="rotate(180 44.9756 210.501)" fill="#ECF0FB"/>
    <rect x="155.376" y="173.702" width="8.17761" height="8.17761" rx="4.08881" transform="rotate(180 155.376 173.702)" fill="#ECF0FB"/>
    <rect x="44.9756" y="173.702" width="8.17761" height="8.17761" rx="4.08881" transform="rotate(180 44.9756 173.702)" fill="#ECF0FB"/>
    <rect x="155.376" y="136.903" width="8.17761" height="8.17761" rx="4.08881" transform="rotate(180 155.376 136.903)" fill="#ECF0FB"/>
    <rect x="44.9756" y="136.903" width="8.17761" height="8.17761" rx="4.08881" transform="rotate(180 44.9756 136.903)" fill="#ECF0FB"/>
    <rect x="118.578" y="210.501" width="8.17761" height="8.17761" rx="4.08881" transform="rotate(180 118.578 210.501)" fill="#ECF0FB"/>
    <rect x="8.17871" y="210.501" width="8.17761" height="8.17761" rx="4.08881" transform="rotate(180 8.17871 210.501)" fill="#ECF0FB"/>
    <rect x="118.578" y="173.702" width="8.17761" height="8.17761" rx="4.08881" transform="rotate(180 118.578 173.702)" fill="#ECF0FB"/>
    <rect x="8.17871" y="173.702" width="8.17761" height="8.17761" rx="4.08881" transform="rotate(180 8.17871 173.702)" fill="#ECF0FB"/>
    <rect x="118.578" y="136.903" width="8.17761" height="8.17761" rx="4.08881" transform="rotate(180 118.578 136.903)" fill="#ECF0FB"/>
    <rect x="8.17871" y="136.903" width="8.17761" height="8.17761" rx="4.08881" transform="rotate(180 8.17871 136.903)" fill="#ECF0FB"/>
    <rect x="210.574" y="192.102" width="8.17761" height="8.17761" rx="4.08881" transform="rotate(180 210.574 192.102)" fill="#ECF0FB"/>
    <rect x="100.176" y="192.102" width="8.17761" height="8.17761" rx="4.08881" transform="rotate(180 100.176 192.102)" fill="#ECF0FB"/>
    <rect x="210.574" y="155.302" width="8.17761" height="8.17761" rx="4.08881" transform="rotate(180 210.574 155.302)" fill="#ECF0FB"/>
    <rect x="100.176" y="155.302" width="8.17761" height="8.17761" rx="4.08881" transform="rotate(180 100.176 155.302)" fill="#ECF0FB"/>
    <rect x="210.574" y="118.503" width="8.17761" height="8.17761" rx="4.08881" transform="rotate(180 210.574 118.503)" fill="#ECF0FB"/>
    <rect x="100.176" y="118.503" width="8.17761" height="8.17761" rx="4.08881" transform="rotate(180 100.176 118.503)" fill="#ECF0FB"/>
    <rect x="173.773" y="192.102" width="8.17761" height="8.17761" rx="4.08881" transform="rotate(180 173.773 192.102)" fill="#ECF0FB"/>
    <rect x="63.3789" y="192.102" width="8.17761" height="8.17761" rx="4.08881" transform="rotate(180 63.3789 192.102)" fill="#ECF0FB"/>
    <rect x="173.773" y="155.302" width="8.17761" height="8.17761" rx="4.08881" transform="rotate(180 173.773 155.302)" fill="#ECF0FB"/>
    <rect x="63.3789" y="155.302" width="8.17761" height="8.17761" rx="4.08881" transform="rotate(180 63.3789 155.302)" fill="#ECF0FB"/>
    <rect x="173.773" y="118.503" width="8.17761" height="8.17761" rx="4.08881" transform="rotate(180 173.773 118.503)" fill="#ECF0FB"/>
    <rect x="63.3789" y="118.503" width="8.17761" height="8.17761" rx="4.08881" transform="rotate(180 63.3789 118.503)" fill="#ECF0FB"/>
    <rect x="136.976" y="192.102" width="8.17761" height="8.17761" rx="4.08881" transform="rotate(180 136.976 192.102)" fill="#ECF0FB"/>
    <rect x="26.5791" y="192.102" width="8.17761" height="8.17761" rx="4.08881" transform="rotate(180 26.5791 192.102)" fill="#ECF0FB"/>
    <rect x="136.976" y="155.302" width="8.17761" height="8.17761" rx="4.08881" transform="rotate(180 136.976 155.302)" fill="#ECF0FB"/>
    <rect x="26.5791" y="155.302" width="8.17761" height="8.17761" rx="4.08881" transform="rotate(180 26.5791 155.302)" fill="#ECF0FB"/>
    <rect x="136.976" y="118.503" width="8.17761" height="8.17761" rx="4.08881" transform="rotate(180 136.976 118.503)" fill="#ECF0FB"/>
    <rect x="26.5791" y="118.503" width="8.17761" height="8.17761" rx="4.08881" transform="rotate(180 26.5791 118.503)" fill="#ECF0FB"/>
    <rect x="192.173" y="192.102" width="8.17761" height="8.17761" rx="4.08881" transform="rotate(180 192.173 192.102)" fill="#ECF0FB"/>
    <rect x="81.7773" y="192.102" width="8.17761" height="8.17761" rx="4.08881" transform="rotate(180 81.7773 192.102)" fill="#ECF0FB"/>
    <rect x="192.173" y="155.302" width="8.17761" height="8.17761" rx="4.08881" transform="rotate(180 192.173 155.302)" fill="#ECF0FB"/>
    <rect x="81.7773" y="155.302" width="8.17761" height="8.17761" rx="4.08881" transform="rotate(180 81.7773 155.302)" fill="#ECF0FB"/>
    <rect x="192.173" y="118.503" width="8.17761" height="8.17761" rx="4.08881" transform="rotate(180 192.173 118.503)" fill="#ECF0FB"/>
    <rect x="81.7773" y="118.503" width="8.17761" height="8.17761" rx="4.08881" transform="rotate(180 81.7773 118.503)" fill="#ECF0FB"/>
    <rect x="155.376" y="192.102" width="8.17761" height="8.17761" rx="4.08881" transform="rotate(180 155.376 192.102)" fill="#ECF0FB"/>
    <rect x="44.9756" y="192.102" width="8.17761" height="8.17761" rx="4.08881" transform="rotate(180 44.9756 192.102)" fill="#ECF0FB"/>
    <rect x="155.376" y="155.302" width="8.17761" height="8.17761" rx="4.08881" transform="rotate(180 155.376 155.302)" fill="#ECF0FB"/>
    <rect x="44.9756" y="155.302" width="8.17761" height="8.17761" rx="4.08881" transform="rotate(180 44.9756 155.302)" fill="#ECF0FB"/>
    <rect x="155.376" y="118.503" width="8.17761" height="8.17761" rx="4.08881" transform="rotate(180 155.376 118.503)" fill="#ECF0FB"/>
    <rect x="44.9756" y="118.503" width="8.17761" height="8.17761" rx="4.08881" transform="rotate(180 44.9756 118.503)" fill="#ECF0FB"/>
    <rect x="118.578" y="192.102" width="8.17761" height="8.17761" rx="4.08881" transform="rotate(180 118.578 192.102)" fill="#ECF0FB"/>
    <rect x="8.17871" y="192.102" width="8.17761" height="8.17761" rx="4.08881" transform="rotate(180 8.17871 192.102)" fill="#ECF0FB"/>
    <rect x="118.578" y="155.302" width="8.17761" height="8.17761" rx="4.08881" transform="rotate(180 118.578 155.302)" fill="#ECF0FB"/>
    <rect x="8.17871" y="155.302" width="8.17761" height="8.17761" rx="4.08881" transform="rotate(180 8.17871 155.302)" fill="#ECF0FB"/>
    <rect x="118.578" y="118.503" width="8.17761" height="8.17761" rx="4.08881" transform="rotate(180 118.578 118.503)" fill="#ECF0FB"/>
    <rect x="8.17871" y="118.503" width="8.17761" height="8.17761" rx="4.08881" transform="rotate(180 8.17871 118.503)" fill="#ECF0FB"/>
    <rect x="210.57" y="100.687" width="8.17761" height="8.17761" rx="4.08881" transform="rotate(180 210.57 100.687)" fill="#ECF0FB"/>
    <rect x="100.176" y="100.687" width="8.17761" height="8.17761" rx="4.08881" transform="rotate(180 100.176 100.687)" fill="#ECF0FB"/>
    <rect x="210.574" y="63.8877" width="8.17761" height="8.17761" rx="4.08881" transform="rotate(180 210.574 63.8877)" fill="#ECF0FB"/>
    <rect x="100.176" y="63.8877" width="8.17761" height="8.17761" rx="4.08881" transform="rotate(180 100.176 63.8877)" fill="#ECF0FB"/>
    <rect x="210.574" y="27.0884" width="8.17761" height="8.17761" rx="4.08881" transform="rotate(180 210.574 27.0884)" fill="#ECF0FB"/>
    <rect x="100.176" y="27.0884" width="8.17761" height="8.17761" rx="4.08881" transform="rotate(180 100.176 27.0884)" fill="#ECF0FB"/>
    <rect x="173.773" y="100.687" width="8.17761" height="8.17761" rx="4.08881" transform="rotate(180 173.773 100.687)" fill="#ECF0FB"/>
    <rect x="63.3789" y="100.687" width="8.17761" height="8.17761" rx="4.08881" transform="rotate(180 63.3789 100.687)" fill="#ECF0FB"/>
    <rect x="173.773" y="63.8877" width="8.17761" height="8.17761" rx="4.08881" transform="rotate(180 173.773 63.8877)" fill="#ECF0FB"/>
    <rect x="63.3789" y="63.8877" width="8.17761" height="8.17761" rx="4.08881" transform="rotate(180 63.3789 63.8877)" fill="#ECF0FB"/>
    <rect x="173.773" y="27.0884" width="8.17761" height="8.17761" rx="4.08881" transform="rotate(180 173.773 27.0884)" fill="#ECF0FB"/>
    <rect x="63.3789" y="27.0884" width="8.17761" height="8.17761" rx="4.08881" transform="rotate(180 63.3789 27.0884)" fill="#ECF0FB"/>
    <rect x="136.976" y="100.687" width="8.17761" height="8.17761" rx="4.08881" transform="rotate(180 136.976 100.687)" fill="#ECF0FB"/>
    <rect x="26.5791" y="100.687" width="8.17761" height="8.17761" rx="4.08881" transform="rotate(180 26.5791 100.687)" fill="#ECF0FB"/>
    <rect x="136.976" y="63.8877" width="8.17761" height="8.17761" rx="4.08881" transform="rotate(180 136.976 63.8877)" fill="#ECF0FB"/>
    <rect x="26.5791" y="63.8877" width="8.17761" height="8.17761" rx="4.08881" transform="rotate(180 26.5791 63.8877)" fill="#ECF0FB"/>
    <rect x="136.976" y="27.0884" width="8.17761" height="8.17761" rx="4.08881" transform="rotate(180 136.976 27.0884)" fill="#ECF0FB"/>
    <rect x="26.5791" y="27.0884" width="8.17761" height="8.17761" rx="4.08881" transform="rotate(180 26.5791 27.0884)" fill="#ECF0FB"/>
    <rect x="192.173" y="100.687" width="8.17761" height="8.17761" rx="4.08881" transform="rotate(180 192.173 100.687)" fill="#ECF0FB"/>
    <rect x="81.7773" y="100.687" width="8.17761" height="8.17761" rx="4.08881" transform="rotate(180 81.7773 100.687)" fill="#ECF0FB"/>
    <rect x="192.173" y="63.8877" width="8.17761" height="8.17761" rx="4.08881" transform="rotate(180 192.173 63.8877)" fill="#ECF0FB"/>
    <rect x="81.7773" y="63.8877" width="8.17761" height="8.17761" rx="4.08881" transform="rotate(180 81.7773 63.8877)" fill="#ECF0FB"/>
    <rect x="192.173" y="27.0884" width="8.17761" height="8.17761" rx="4.08881" transform="rotate(180 192.173 27.0884)" fill="#ECF0FB"/>
    <rect x="81.7773" y="27.0884" width="8.17761" height="8.17761" rx="4.08881" transform="rotate(180 81.7773 27.0884)" fill="#ECF0FB"/>
    <rect x="155.376" y="100.687" width="8.17761" height="8.17761" rx="4.08881" transform="rotate(180 155.376 100.687)" fill="#ECF0FB"/>
    <rect x="44.9756" y="100.687" width="8.17761" height="8.17761" rx="4.08881" transform="rotate(180 44.9756 100.687)" fill="#ECF0FB"/>
    <rect x="155.376" y="63.8877" width="8.17761" height="8.17761" rx="4.08881" transform="rotate(180 155.376 63.8877)" fill="#ECF0FB"/>
    <rect x="44.9756" y="63.8877" width="8.17761" height="8.17761" rx="4.08881" transform="rotate(180 44.9756 63.8877)" fill="#ECF0FB"/>
    <rect x="155.376" y="27.0884" width="8.17761" height="8.17761" rx="4.08881" transform="rotate(180 155.376 27.0884)" fill="#ECF0FB"/>
    <rect x="44.9756" y="27.0884" width="8.17761" height="8.17761" rx="4.08881" transform="rotate(180 44.9756 27.0884)" fill="#ECF0FB"/>
    <rect x="118.578" y="100.687" width="8.17761" height="8.17761" rx="4.08881" transform="rotate(180 118.578 100.687)" fill="#ECF0FB"/>
    <rect x="8.17871" y="100.687" width="8.17761" height="8.17761" rx="4.08881" transform="rotate(180 8.17871 100.687)" fill="#ECF0FB"/>
    <rect x="118.578" y="63.8877" width="8.17761" height="8.17761" rx="4.08881" transform="rotate(180 118.578 63.8877)" fill="#ECF0FB"/>
    <rect x="8.17871" y="63.8877" width="8.17761" height="8.17761" rx="4.08881" transform="rotate(180 8.17871 63.8877)" fill="#ECF0FB"/>
    <rect x="118.578" y="27.0884" width="8.17761" height="8.17761" rx="4.08881" transform="rotate(180 118.578 27.0884)" fill="#ECF0FB"/>
    <rect x="8.17871" y="27.0884" width="8.17761" height="8.17761" rx="4.08881" transform="rotate(180 8.17871 27.0884)" fill="#ECF0FB"/>
    <rect x="210.574" y="82.2871" width="8.17761" height="8.17761" rx="4.08881" transform="rotate(180 210.574 82.2871)" fill="#ECF0FB"/>
    <rect x="100.176" y="82.2871" width="8.17761" height="8.17761" rx="4.08881" transform="rotate(180 100.176 82.2871)" fill="#ECF0FB"/>
    <rect x="210.574" y="45.4878" width="8.17761" height="8.17761" rx="4.08881" transform="rotate(180 210.574 45.4878)" fill="#ECF0FB"/>
    <rect x="100.176" y="45.4878" width="8.17761" height="8.17761" rx="4.08881" transform="rotate(180 100.176 45.4878)" fill="#ECF0FB"/>
    <rect x="210.574" y="8.68872" width="8.17761" height="8.17761" rx="4.08881" transform="rotate(180 210.574 8.68872)" fill="#ECF0FB"/>
    <rect x="100.176" y="8.68872" width="8.17761" height="8.17761" rx="4.08881" transform="rotate(180 100.176 8.68872)" fill="#ECF0FB"/>
    <rect x="173.773" y="82.2871" width="8.17761" height="8.17761" rx="4.08881" transform="rotate(180 173.773 82.2871)" fill="#ECF0FB"/>
    <rect x="63.3789" y="82.2871" width="8.17761" height="8.17761" rx="4.08881" transform="rotate(180 63.3789 82.2871)" fill="#ECF0FB"/>
    <rect x="173.773" y="45.4878" width="8.17761" height="8.17761" rx="4.08881" transform="rotate(180 173.773 45.4878)" fill="#ECF0FB"/>
    <rect x="63.3789" y="45.4878" width="8.17761" height="8.17761" rx="4.08881" transform="rotate(180 63.3789 45.4878)" fill="#ECF0FB"/>
    <rect x="173.773" y="8.68872" width="8.17761" height="8.17761" rx="4.08881" transform="rotate(180 173.773 8.68872)" fill="#ECF0FB"/>
    <rect x="63.3789" y="8.68872" width="8.17761" height="8.17761" rx="4.08881" transform="rotate(180 63.3789 8.68872)" fill="#ECF0FB"/>
    <rect x="136.976" y="82.2871" width="8.17761" height="8.17761" rx="4.08881" transform="rotate(180 136.976 82.2871)" fill="#ECF0FB"/>
    <rect x="26.5791" y="82.2871" width="8.17761" height="8.17761" rx="4.08881" transform="rotate(180 26.5791 82.2871)" fill="#ECF0FB"/>
    <rect x="136.976" y="45.4878" width="8.17761" height="8.17761" rx="4.08881" transform="rotate(180 136.976 45.4878)" fill="#ECF0FB"/>
    <rect x="26.5791" y="45.4878" width="8.17761" height="8.17761" rx="4.08881" transform="rotate(180 26.5791 45.4878)" fill="#ECF0FB"/>
    <rect x="136.976" y="8.68872" width="8.17761" height="8.17761" rx="4.08881" transform="rotate(180 136.976 8.68872)" fill="#ECF0FB"/>
    <rect x="26.5791" y="8.68872" width="8.17761" height="8.17761" rx="4.08881" transform="rotate(180 26.5791 8.68872)" fill="#ECF0FB"/>
    <rect x="192.173" y="82.2871" width="8.17761" height="8.17761" rx="4.08881" transform="rotate(180 192.173 82.2871)" fill="#ECF0FB"/>
    <rect x="81.7773" y="82.2871" width="8.17761" height="8.17761" rx="4.08881" transform="rotate(180 81.7773 82.2871)" fill="#ECF0FB"/>
    <rect x="192.173" y="45.4878" width="8.17761" height="8.17761" rx="4.08881" transform="rotate(180 192.173 45.4878)" fill="#ECF0FB"/>
    <rect x="81.7773" y="45.4878" width="8.17761" height="8.17761" rx="4.08881" transform="rotate(180 81.7773 45.4878)" fill="#ECF0FB"/>
    <rect x="192.173" y="8.68872" width="8.17761" height="8.17761" rx="4.08881" transform="rotate(180 192.173 8.68872)" fill="#ECF0FB"/>
    <rect x="81.7773" y="8.68872" width="8.17761" height="8.17761" rx="4.08881" transform="rotate(180 81.7773 8.68872)" fill="#ECF0FB"/>
    <rect x="155.376" y="82.2871" width="8.17761" height="8.17761" rx="4.08881" transform="rotate(180 155.376 82.2871)" fill="#ECF0FB"/>
    <rect x="44.9756" y="82.2871" width="8.17761" height="8.17761" rx="4.08881" transform="rotate(180 44.9756 82.2871)" fill="#ECF0FB"/>
    <rect x="155.376" y="45.4878" width="8.17761" height="8.17761" rx="4.08881" transform="rotate(180 155.376 45.4878)" fill="#ECF0FB"/>
    <rect x="44.9756" y="45.4878" width="8.17761" height="8.17761" rx="4.08881" transform="rotate(180 44.9756 45.4878)" fill="#ECF0FB"/>
    <rect x="155.376" y="8.68872" width="8.17761" height="8.17761" rx="4.08881" transform="rotate(180 155.376 8.68872)" fill="#ECF0FB"/>
    <rect x="44.9756" y="8.68872" width="8.17761" height="8.17761" rx="4.08881" transform="rotate(180 44.9756 8.68872)" fill="#ECF0FB"/>
    <rect x="118.578" y="82.2871" width="8.17761" height="8.17761" rx="4.08881" transform="rotate(180 118.578 82.2871)" fill="#ECF0FB"/>
    <rect x="8.17871" y="82.2871" width="8.17761" height="8.17761" rx="4.08881" transform="rotate(180 8.17871 82.2871)" fill="#ECF0FB"/>
    <rect x="118.578" y="45.4878" width="8.17761" height="8.17761" rx="4.08881" transform="rotate(180 118.578 45.4878)" fill="#ECF0FB"/>
    <rect x="8.17871" y="45.4878" width="8.17761" height="8.17761" rx="4.08881" transform="rotate(180 8.17871 45.4878)" fill="#ECF0FB"/>
    <rect x="118.578" y="8.68872" width="8.17761" height="8.17761" rx="4.08881" transform="rotate(180 118.578 8.68872)" fill="#ECF0FB"/>
    <rect x="8.17871" y="8.68872" width="8.17761" height="8.17761" rx="4.08881" transform="rotate(180 8.17871 8.68872)" fill="#ECF0FB"/>
    <rect x="431.609" y="209.99" width="8.17761" height="8.17761" rx="4.08881" transform="rotate(180 431.609 209.99)" fill="#ECF0FB"/>
    <rect x="321.211" y="209.99" width="8.17761" height="8.17761" rx="4.08881" transform="rotate(180 321.211 209.99)" fill="#ECF0FB"/>
    <rect x="431.609" y="173.19" width="8.17761" height="8.17761" rx="4.08881" transform="rotate(180 431.609 173.19)" fill="#ECF0FB"/>
    <rect x="321.211" y="173.19" width="8.17761" height="8.17761" rx="4.08881" transform="rotate(180 321.211 173.19)" fill="#ECF0FB"/>
    <rect x="431.609" y="136.391" width="8.17761" height="8.17761" rx="4.08881" transform="rotate(180 431.609 136.391)" fill="#ECF0FB"/>
    <rect x="321.211" y="136.391" width="8.17761" height="8.17761" rx="4.08881" transform="rotate(180 321.211 136.391)" fill="#ECF0FB"/>
    <rect x="284.411" y="209.99" width="8.17761" height="8.17761" rx="4.08881" transform="rotate(180 284.411 209.99)" fill="#ECF0FB"/>
    <rect x="284.411" y="173.19" width="8.17761" height="8.17761" rx="4.08881" transform="rotate(180 284.411 173.19)" fill="#ECF0FB"/>
    <rect x="284.411" y="136.391" width="8.17761" height="8.17761" rx="4.08881" transform="rotate(180 284.411 136.391)" fill="#ECF0FB"/>
    <rect x="358.008" y="209.99" width="8.17761" height="8.17761" rx="4.08881" transform="rotate(180 358.008 209.99)" fill="#ECF0FB"/>
    <rect x="247.613" y="209.99" width="8.17761" height="8.17761" rx="4.08881" transform="rotate(180 247.613 209.99)" fill="#ECF0FB"/>
    <rect x="358.008" y="173.19" width="8.17761" height="8.17761" rx="4.08881" transform="rotate(180 358.008 173.19)" fill="#ECF0FB"/>
    <rect x="247.613" y="173.19" width="8.17761" height="8.17761" rx="4.08881" transform="rotate(180 247.613 173.19)" fill="#ECF0FB"/>
    <rect x="358.008" y="136.391" width="8.17761" height="8.17761" rx="4.08881" transform="rotate(180 358.008 136.391)" fill="#ECF0FB"/>
    <rect x="247.613" y="136.391" width="8.17761" height="8.17761" rx="4.08881" transform="rotate(180 247.613 136.391)" fill="#ECF0FB"/>
    <rect x="302.809" y="209.99" width="8.17761" height="8.17761" rx="4.08881" transform="rotate(180 302.809 209.99)" fill="#ECF0FB"/>
    <rect x="302.809" y="173.19" width="8.17761" height="8.17761" rx="4.08881" transform="rotate(180 302.809 173.19)" fill="#ECF0FB"/>
    <rect x="302.809" y="136.391" width="8.17761" height="8.17761" rx="4.08881" transform="rotate(180 302.809 136.391)" fill="#ECF0FB"/>
    <rect x="376.41" y="209.99" width="8.17761" height="8.17761" rx="4.08881" transform="rotate(180 376.41 209.99)" fill="#ECF0FB"/>
    <rect x="266.011" y="209.99" width="8.17761" height="8.17761" rx="4.08881" transform="rotate(180 266.011 209.99)" fill="#ECF0FB"/>
    <rect x="376.41" y="173.19" width="8.17761" height="8.17761" rx="4.08881" transform="rotate(180 376.41 173.19)" fill="#ECF0FB"/>
    <rect x="266.011" y="173.19" width="8.17761" height="8.17761" rx="4.08881" transform="rotate(180 266.011 173.19)" fill="#ECF0FB"/>
    <rect x="376.41" y="136.391" width="8.17761" height="8.17761" rx="4.08881" transform="rotate(180 376.41 136.391)" fill="#ECF0FB"/>
    <rect x="266.011" y="136.391" width="8.17761" height="8.17761" rx="4.08881" transform="rotate(180 266.011 136.391)" fill="#ECF0FB"/>
    <rect x="339.609" y="209.99" width="8.17761" height="8.17761" rx="4.08881" transform="rotate(180 339.609 209.99)" fill="#ECF0FB"/>
    <rect x="229.211" y="209.99" width="8.17761" height="8.17761" rx="4.08881" transform="rotate(180 229.211 209.99)" fill="#ECF0FB"/>
    <rect x="339.609" y="173.19" width="8.17761" height="8.17761" rx="4.08881" transform="rotate(180 339.609 173.19)" fill="#ECF0FB"/>
    <rect x="229.211" y="173.19" width="8.17761" height="8.17761" rx="4.08881" transform="rotate(180 229.211 173.19)" fill="#ECF0FB"/>
    <rect x="339.609" y="136.391" width="8.17761" height="8.17761" rx="4.08881" transform="rotate(180 339.609 136.391)" fill="#ECF0FB"/>
    <rect x="229.211" y="136.391" width="8.17761" height="8.17761" rx="4.08881" transform="rotate(180 229.211 136.391)" fill="#ECF0FB"/>
    <rect x="431.609" y="191.59" width="8.17761" height="8.17761" rx="4.08881" transform="rotate(180 431.609 191.59)" fill="#ECF0FB"/>
    <rect x="321.211" y="191.59" width="8.17761" height="8.17761" rx="4.08881" transform="rotate(180 321.211 191.59)" fill="#ECF0FB"/>
    <rect x="431.609" y="154.791" width="8.17761" height="8.17761" rx="4.08881" transform="rotate(180 431.609 154.791)" fill="#ECF0FB"/>
    <rect x="321.211" y="154.791" width="8.17761" height="8.17761" rx="4.08881" transform="rotate(180 321.211 154.791)" fill="#ECF0FB"/>
    <rect x="431.609" y="117.991" width="8.17761" height="8.17761" rx="4.08881" transform="rotate(180 431.609 117.991)" fill="#ECF0FB"/>
    <rect x="321.211" y="117.991" width="8.17761" height="8.17761" rx="4.08881" transform="rotate(180 321.211 117.991)" fill="#ECF0FB"/>
    <rect x="284.411" y="191.59" width="8.17761" height="8.17761" rx="4.08881" transform="rotate(180 284.411 191.59)" fill="#ECF0FB"/>
    <rect x="284.411" y="154.791" width="8.17761" height="8.17761" rx="4.08881" transform="rotate(180 284.411 154.791)" fill="#ECF0FB"/>
    <rect x="284.411" y="117.991" width="8.17761" height="8.17761" rx="4.08881" transform="rotate(180 284.411 117.991)" fill="#ECF0FB"/>
    <rect x="358.008" y="191.59" width="8.17761" height="8.17761" rx="4.08881" transform="rotate(180 358.008 191.59)" fill="#ECF0FB"/>
    <rect x="247.613" y="191.59" width="8.17761" height="8.17761" rx="4.08881" transform="rotate(180 247.613 191.59)" fill="#ECF0FB"/>
    <rect x="358.008" y="154.791" width="8.17761" height="8.17761" rx="4.08881" transform="rotate(180 358.008 154.791)" fill="#ECF0FB"/>
    <rect x="247.613" y="154.791" width="8.17761" height="8.17761" rx="4.08881" transform="rotate(180 247.613 154.791)" fill="#ECF0FB"/>
    <rect x="358.008" y="117.991" width="8.17761" height="8.17761" rx="4.08881" transform="rotate(180 358.008 117.991)" fill="#ECF0FB"/>
    <rect x="247.613" y="117.991" width="8.17761" height="8.17761" rx="4.08881" transform="rotate(180 247.613 117.991)" fill="#ECF0FB"/>
    <rect x="302.809" y="191.59" width="8.17761" height="8.17761" rx="4.08881" transform="rotate(180 302.809 191.59)" fill="#ECF0FB"/>
    <rect x="302.809" y="154.791" width="8.17761" height="8.17761" rx="4.08881" transform="rotate(180 302.809 154.791)" fill="#ECF0FB"/>
    <rect x="302.809" y="117.991" width="8.17761" height="8.17761" rx="4.08881" transform="rotate(180 302.809 117.991)" fill="#ECF0FB"/>
    <rect x="376.41" y="191.59" width="8.17761" height="8.17761" rx="4.08881" transform="rotate(180 376.41 191.59)" fill="#ECF0FB"/>
    <rect x="266.011" y="191.59" width="8.17761" height="8.17761" rx="4.08881" transform="rotate(180 266.011 191.59)" fill="#ECF0FB"/>
    <rect x="376.41" y="154.791" width="8.17761" height="8.17761" rx="4.08881" transform="rotate(180 376.41 154.791)" fill="#ECF0FB"/>
    <rect x="266.011" y="154.791" width="8.17761" height="8.17761" rx="4.08881" transform="rotate(180 266.011 154.791)" fill="#ECF0FB"/>
    <rect x="376.41" y="117.991" width="8.17761" height="8.17761" rx="4.08881" transform="rotate(180 376.41 117.991)" fill="#ECF0FB"/>
    <rect x="266.011" y="117.991" width="8.17761" height="8.17761" rx="4.08881" transform="rotate(180 266.011 117.991)" fill="#ECF0FB"/>
    <rect x="339.609" y="191.59" width="8.17761" height="8.17761" rx="4.08881" transform="rotate(180 339.609 191.59)" fill="#ECF0FB"/>
    <rect x="229.211" y="191.59" width="8.17761" height="8.17761" rx="4.08881" transform="rotate(180 229.211 191.59)" fill="#ECF0FB"/>
    <rect x="339.609" y="154.791" width="8.17761" height="8.17761" rx="4.08881" transform="rotate(180 339.609 154.791)" fill="#ECF0FB"/>
    <rect x="229.211" y="154.791" width="8.17761" height="8.17761" rx="4.08881" transform="rotate(180 229.211 154.791)" fill="#ECF0FB"/>
    <rect x="339.609" y="117.991" width="8.17761" height="8.17761" rx="4.08881" transform="rotate(180 339.609 117.991)" fill="#ECF0FB"/>
    <rect x="229.211" y="117.991" width="8.17761" height="8.17761" rx="4.08881" transform="rotate(180 229.211 117.991)" fill="#ECF0FB"/>
    <rect x="431.604" y="100.176" width="8.17761" height="8.17761" rx="4.08881" transform="rotate(180 431.604 100.176)" fill="#ECF0FB"/>
    <rect x="321.207" y="100.176" width="8.17761" height="8.17761" rx="4.08881" transform="rotate(180 321.207 100.176)" fill="#ECF0FB"/>
    <rect x="431.605" y="63.3765" width="8.17761" height="8.17761" rx="4.08881" transform="rotate(180 431.605 63.3765)" fill="#ECF0FB"/>
    <rect x="321.207" y="63.3765" width="8.17761" height="8.17761" rx="4.08881" transform="rotate(180 321.207 63.3765)" fill="#ECF0FB"/>
    <rect x="321.207" y="26.5774" width="8.17761" height="8.17761" rx="4.08881" transform="rotate(180 321.207 26.5774)" fill="#ECF0FB"/>
    <rect x="284.41" y="100.176" width="8.17761" height="8.17761" rx="4.08881" transform="rotate(180 284.41 100.176)" fill="#ECF0FB"/>
    <rect x="284.41" y="63.3765" width="8.17761" height="8.17761" rx="4.08881" transform="rotate(180 284.41 63.3765)" fill="#ECF0FB"/>
    <rect x="284.41" y="26.5774" width="8.17761" height="8.17761" rx="4.08881" transform="rotate(180 284.41 26.5774)" fill="#ECF0FB"/>
    <rect x="358.004" y="100.176" width="8.17761" height="8.17761" rx="4.08881" transform="rotate(180 358.004 100.176)" fill="#ECF0FB"/>
    <rect x="247.609" y="100.176" width="8.17761" height="8.17761" rx="4.08881" transform="rotate(180 247.609 100.176)" fill="#ECF0FB"/>
    <rect x="358.004" y="63.3765" width="8.17761" height="8.17761" rx="4.08881" transform="rotate(180 358.004 63.3765)" fill="#ECF0FB"/>
    <rect x="247.609" y="63.3765" width="8.17761" height="8.17761" rx="4.08881" transform="rotate(180 247.609 63.3765)" fill="#ECF0FB"/>
    <rect x="358.004" y="26.5774" width="8.17761" height="8.17761" rx="4.08881" transform="rotate(180 358.004 26.5774)" fill="#ECF0FB"/>
    <rect x="247.609" y="26.5774" width="8.17761" height="8.17761" rx="4.08881" transform="rotate(180 247.609 26.5774)" fill="#ECF0FB"/>
    <rect x="302.805" y="100.176" width="8.17761" height="8.17761" rx="4.08881" transform="rotate(180 302.805 100.176)" fill="#ECF0FB"/>
    <rect x="302.805" y="63.3765" width="8.17761" height="8.17761" rx="4.08881" transform="rotate(180 302.805 63.3765)" fill="#ECF0FB"/>
    <rect x="302.805" y="26.5774" width="8.17761" height="8.17761" rx="4.08881" transform="rotate(180 302.805 26.5774)" fill="#ECF0FB"/>
    <rect x="376.406" y="100.176" width="8.17761" height="8.17761" rx="4.08881" transform="rotate(180 376.406 100.176)" fill="#ECF0FB"/>
    <rect x="266.007" y="100.176" width="8.17761" height="8.17761" rx="4.08881" transform="rotate(180 266.007 100.176)" fill="#ECF0FB"/>
    <rect x="376.406" y="63.3765" width="8.17761" height="8.17761" rx="4.08881" transform="rotate(180 376.406 63.3765)" fill="#ECF0FB"/>
    <rect x="266.007" y="63.3765" width="8.17761" height="8.17761" rx="4.08881" transform="rotate(180 266.007 63.3765)" fill="#ECF0FB"/>
    <rect x="376.406" y="26.5774" width="8.17761" height="8.17761" rx="4.08881" transform="rotate(180 376.406 26.5774)" fill="#ECF0FB"/>
    <rect x="266.007" y="26.5774" width="8.17761" height="8.17761" rx="4.08881" transform="rotate(180 266.007 26.5774)" fill="#ECF0FB"/>
    <rect x="339.609" y="100.176" width="8.17761" height="8.17761" rx="4.08881" transform="rotate(180 339.609 100.176)" fill="#ECF0FB"/>
    <rect x="229.207" y="100.176" width="8.17761" height="8.17761" rx="4.08881" transform="rotate(180 229.207 100.176)" fill="#ECF0FB"/>
    <rect x="339.609" y="63.3765" width="8.17761" height="8.17761" rx="4.08881" transform="rotate(180 339.609 63.3765)" fill="#ECF0FB"/>
    <rect x="229.207" y="63.3765" width="8.17761" height="8.17761" rx="4.08881" transform="rotate(180 229.207 63.3765)" fill="#ECF0FB"/>
    <rect x="339.609" y="26.5774" width="8.17761" height="8.17761" rx="4.08881" transform="rotate(180 339.609 26.5774)" fill="#ECF0FB"/>
    <rect x="229.207" y="26.5774" width="8.17761" height="8.17761" rx="4.08881" transform="rotate(180 229.207 26.5774)" fill="#ECF0FB"/>
    <rect x="431.605" y="81.7764" width="8.17761" height="8.17761" rx="4.08881" transform="rotate(180 431.605 81.7764)" fill="#ECF0FB"/>
    <rect x="321.207" y="81.7764" width="8.17761" height="8.17761" rx="4.08881" transform="rotate(180 321.207 81.7764)" fill="#ECF0FB"/>
    <rect x="321.207" y="44.9771" width="8.17761" height="8.17761" rx="4.08881" transform="rotate(180 321.207 44.9771)" fill="#ECF0FB"/>
    <rect x="321.207" y="8.17773" width="8.17761" height="8.17761" rx="4.08881" transform="rotate(180 321.207 8.17773)" fill="#ECF0FB"/>
    <rect x="284.41" y="81.7764" width="8.17761" height="8.17761" rx="4.08881" transform="rotate(180 284.41 81.7764)" fill="#ECF0FB"/>
    <rect x="284.41" y="44.9771" width="8.17761" height="8.17761" rx="4.08881" transform="rotate(180 284.41 44.9771)" fill="#ECF0FB"/>
    <rect x="284.41" y="8.17773" width="8.17761" height="8.17761" rx="4.08881" transform="rotate(180 284.41 8.17773)" fill="#ECF0FB"/>
    <rect x="358.004" y="81.7764" width="8.17761" height="8.17761" rx="4.08881" transform="rotate(180 358.004 81.7764)" fill="#ECF0FB"/>
    <rect x="247.609" y="81.7764" width="8.17761" height="8.17761" rx="4.08881" transform="rotate(180 247.609 81.7764)" fill="#ECF0FB"/>
    <rect x="358.004" y="44.9771" width="8.17761" height="8.17761" rx="4.08881" transform="rotate(180 358.004 44.9771)" fill="#ECF0FB"/>
    <rect x="247.609" y="44.9771" width="8.17761" height="8.17761" rx="4.08881" transform="rotate(180 247.609 44.9771)" fill="#ECF0FB"/>
    <rect x="358.004" y="8.17773" width="8.17761" height="8.17761" rx="4.08881" transform="rotate(180 358.004 8.17773)" fill="#ECF0FB"/>
    <rect x="247.609" y="8.17773" width="8.17761" height="8.17761" rx="4.08881" transform="rotate(180 247.609 8.17773)" fill="#ECF0FB"/>
    <rect x="302.805" y="81.7764" width="8.17761" height="8.17761" rx="4.08881" transform="rotate(180 302.805 81.7764)" fill="#ECF0FB"/>
    <rect x="302.805" y="44.9771" width="8.17761" height="8.17761" rx="4.08881" transform="rotate(180 302.805 44.9771)" fill="#ECF0FB"/>
    <rect x="302.805" y="8.17773" width="8.17761" height="8.17761" rx="4.08881" transform="rotate(180 302.805 8.17773)" fill="#ECF0FB"/>
    <rect x="376.406" y="81.7764" width="8.17761" height="8.17761" rx="4.08881" transform="rotate(180 376.406 81.7764)" fill="#ECF0FB"/>
    <rect x="266.007" y="81.7764" width="8.17761" height="8.17761" rx="4.08881" transform="rotate(180 266.007 81.7764)" fill="#ECF0FB"/>
    <rect x="376.406" y="44.9771" width="8.17761" height="8.17761" rx="4.08881" transform="rotate(180 376.406 44.9771)" fill="#ECF0FB"/>
    <rect x="266.007" y="44.9771" width="8.17761" height="8.17761" rx="4.08881" transform="rotate(180 266.007 44.9771)" fill="#ECF0FB"/>
    <rect x="376.406" y="8.17773" width="8.17761" height="8.17761" rx="4.08881" transform="rotate(180 376.406 8.17773)" fill="#ECF0FB"/>
    <rect x="266.007" y="8.17773" width="8.17761" height="8.17761" rx="4.08881" transform="rotate(180 266.007 8.17773)" fill="#ECF0FB"/>
    <rect x="339.609" y="81.7764" width="8.17761" height="8.17761" rx="4.08881" transform="rotate(180 339.609 81.7764)" fill="#ECF0FB"/>
    <rect x="229.207" y="81.7764" width="8.17761" height="8.17761" rx="4.08881" transform="rotate(180 229.207 81.7764)" fill="#ECF0FB"/>
    <rect x="339.609" y="44.9771" width="8.17761" height="8.17761" rx="4.08881" transform="rotate(180 339.609 44.9771)" fill="#ECF0FB"/>
    <rect x="229.207" y="44.9771" width="8.17761" height="8.17761" rx="4.08881" transform="rotate(180 229.207 44.9771)" fill="#ECF0FB"/>
    <rect x="339.609" y="8.17773" width="8.17761" height="8.17761" rx="4.08881" transform="rotate(180 339.609 8.17773)" fill="#ECF0FB"/>
    <rect x="229.207" y="8.17773" width="8.17761" height="8.17761" rx="4.08881" transform="rotate(180 229.207 8.17773)" fill="#ECF0FB"/>
</svg>