<svg width="798" height="638" viewBox="0 0 798 638" fill="none" xmlns="http://www.w3.org/2000/svg">
    <rect x="543.562" y="68" width="9.87678" height="10.1611" rx="4.93839" fill="#F1F1F1" fill-opacity="0.8"/>
    <rect x="676.899" y="68" width="9.87678" height="10.1611" rx="4.93839" fill="#F1F1F1" fill-opacity="0.8"/>
    <rect x="543.562" y="113.725" width="9.87678" height="10.1611" rx="4.93839" fill="#F1F1F1" fill-opacity="0.8"/>
    <rect x="676.899" y="113.725" width="9.87678" height="10.1611" rx="4.93839" fill="#F1F1F1" fill-opacity="0.8"/>
    <rect x="543.562" y="159.45" width="9.87678" height="10.1611" rx="4.93839" fill="#F1F1F1" fill-opacity="0.8"/>
    <rect x="676.899" y="159.45" width="9.87678" height="10.1611" rx="4.93839" fill="#F1F1F1" fill-opacity="0.8"/>
    <rect x="588.008" y="68" width="9.87678" height="10.1611" rx="4.93839" fill="#F1F1F1" fill-opacity="0.8"/>
    <rect x="721.345" y="68" width="9.87678" height="10.1611" rx="4.93839" fill="#F1F1F1" fill-opacity="0.8"/>
    <rect x="588.008" y="113.725" width="9.87678" height="10.1611" rx="4.93839" fill="#F1F1F1" fill-opacity="0.8"/>
    <rect x="721.345" y="113.725" width="9.87678" height="10.1611" rx="4.93839" fill="#F1F1F1" fill-opacity="0.8"/>
    <rect x="588.008" y="159.45" width="9.87678" height="10.1611" rx="4.93839" fill="#F1F1F1" fill-opacity="0.8"/>
    <rect x="721.345" y="159.45" width="9.87678" height="10.1611" rx="4.93839" fill="#F1F1F1" fill-opacity="0.8"/>
    <rect x="632.454" y="68" width="9.87678" height="10.1611" rx="4.93839" fill="#F1F1F1" fill-opacity="0.8"/>
    <rect x="765.789" y="68" width="9.87678" height="10.1611" rx="4.93839" fill="#F1F1F1" fill-opacity="0.8"/>
    <rect x="632.454" y="113.725" width="9.87678" height="10.1611" rx="4.93839" fill="#F1F1F1" fill-opacity="0.8"/>
    <rect x="765.789" y="113.725" width="9.87678" height="10.1611" rx="4.93839" fill="#F1F1F1" fill-opacity="0.8"/>
    <rect x="632.454" y="159.45" width="9.87678" height="10.1611" rx="4.93839" fill="#F1F1F1" fill-opacity="0.8"/>
    <rect x="765.789" y="159.45" width="9.87678" height="10.1611" rx="4.93839" fill="#F1F1F1" fill-opacity="0.8"/>
    <rect x="565.786" y="68" width="9.87678" height="10.1611" rx="4.93839" fill="#F1F1F1" fill-opacity="0.8"/>
    <rect x="699.121" y="68" width="9.87678" height="10.1611" rx="4.93839" fill="#F1F1F1" fill-opacity="0.8"/>
    <rect x="565.786" y="113.725" width="9.87678" height="10.1611" rx="4.93839" fill="#F1F1F1" fill-opacity="0.8"/>
    <rect x="699.121" y="113.725" width="9.87678" height="10.1611" rx="4.93839" fill="#F1F1F1" fill-opacity="0.8"/>
    <rect x="565.786" y="159.45" width="9.87678" height="10.1611" rx="4.93839" fill="#F1F1F1" fill-opacity="0.8"/>
    <rect x="699.121" y="159.45" width="9.87678" height="10.1611" rx="4.93839" fill="#F1F1F1" fill-opacity="0.8"/>
    <rect x="610.23" y="68" width="9.87678" height="10.1611" rx="4.93839" fill="#F1F1F1" fill-opacity="0.8"/>
    <rect x="743.567" y="68" width="9.87678" height="10.1611" rx="4.93839" fill="#F1F1F1" fill-opacity="0.8"/>
    <rect x="610.23" y="113.725" width="9.87678" height="10.1611" rx="4.93839" fill="#F1F1F1" fill-opacity="0.8"/>
    <rect x="743.567" y="113.725" width="9.87678" height="10.1611" rx="4.93839" fill="#F1F1F1" fill-opacity="0.8"/>
    <rect x="610.23" y="159.45" width="9.87678" height="10.1611" rx="4.93839" fill="#F1F1F1" fill-opacity="0.8"/>
    <rect x="743.567" y="159.45" width="9.87678" height="10.1611" rx="4.93839" fill="#F1F1F1" fill-opacity="0.8"/>
    <rect x="654.676" y="68" width="9.87678" height="10.1611" rx="4.93839" fill="#F1F1F1" fill-opacity="0.8"/>
    <rect x="788.013" y="68" width="9.87678" height="10.1611" rx="4.93839" fill="#F1F1F1" fill-opacity="0.8"/>
    <rect x="654.676" y="113.725" width="9.87678" height="10.1611" rx="4.93839" fill="#F1F1F1" fill-opacity="0.8"/>
    <rect x="788.013" y="113.725" width="9.87678" height="10.1611" rx="4.93839" fill="#F1F1F1" fill-opacity="0.8"/>
    <rect x="654.676" y="159.45" width="9.87678" height="10.1611" rx="4.93839" fill="#F1F1F1" fill-opacity="0.8"/>
    <rect x="788.013" y="159.45" width="9.87678" height="10.1611" rx="4.93839" fill="#F1F1F1" fill-opacity="0.8"/>
    <rect x="543.562" y="90.8626" width="9.87678" height="10.1611" rx="4.93839" fill="#F1F1F1" fill-opacity="0.8"/>
    <rect x="676.899" y="90.8625" width="9.87678" height="10.1611" rx="4.93839" fill="#F1F1F1" fill-opacity="0.8"/>
    <rect x="543.562" y="136.588" width="9.87678" height="10.1611" rx="4.93839" fill="#F1F1F1" fill-opacity="0.8"/>
    <rect x="676.899" y="136.588" width="9.87678" height="10.1611" rx="4.93839" fill="#F1F1F1" fill-opacity="0.8"/>
    <rect x="543.562" y="182.313" width="9.87678" height="10.1611" rx="4.93839" fill="#F1F1F1" fill-opacity="0.8"/>
    <rect x="676.899" y="182.313" width="9.87678" height="10.1611" rx="4.93839" fill="#F1F1F1" fill-opacity="0.8"/>
    <rect x="588.008" y="90.8625" width="9.87678" height="10.1611" rx="4.93839" fill="#F1F1F1" fill-opacity="0.8"/>
    <rect x="721.345" y="90.8625" width="9.87678" height="10.1611" rx="4.93839" fill="#F1F1F1" fill-opacity="0.8"/>
    <rect x="588.008" y="136.588" width="9.87678" height="10.1611" rx="4.93839" fill="#F1F1F1" fill-opacity="0.8"/>
    <rect x="721.345" y="136.588" width="9.87678" height="10.1611" rx="4.93839" fill="#F1F1F1" fill-opacity="0.8"/>
    <rect x="588.008" y="182.313" width="9.87678" height="10.1611" rx="4.93839" fill="#F1F1F1" fill-opacity="0.8"/>
    <rect x="721.345" y="182.313" width="9.87678" height="10.1611" rx="4.93839" fill="#F1F1F1" fill-opacity="0.8"/>
    <rect x="632.454" y="90.8625" width="9.87678" height="10.1611" rx="4.93839" fill="#F1F1F1" fill-opacity="0.8"/>
    <rect x="765.789" y="90.8625" width="9.87678" height="10.1611" rx="4.93839" fill="#F1F1F1" fill-opacity="0.8"/>
    <rect x="632.454" y="136.588" width="9.87678" height="10.1611" rx="4.93839" fill="#F1F1F1" fill-opacity="0.8"/>
    <rect x="765.789" y="136.588" width="9.87678" height="10.1611" rx="4.93839" fill="#F1F1F1" fill-opacity="0.8"/>
    <rect x="632.454" y="182.313" width="9.87678" height="10.1611" rx="4.93839" fill="#F1F1F1" fill-opacity="0.8"/>
    <rect x="765.789" y="182.313" width="9.87678" height="10.1611" rx="4.93839" fill="#F1F1F1" fill-opacity="0.8"/>
    <rect x="565.786" y="90.8625" width="9.87678" height="10.1611" rx="4.93839" fill="#F1F1F1" fill-opacity="0.8"/>
    <rect x="699.121" y="90.8625" width="9.87678" height="10.1611" rx="4.93839" fill="#F1F1F1" fill-opacity="0.8"/>
    <rect x="565.786" y="136.588" width="9.87678" height="10.1611" rx="4.93839" fill="#F1F1F1" fill-opacity="0.8"/>
    <rect x="699.121" y="136.588" width="9.87678" height="10.1611" rx="4.93839" fill="#F1F1F1" fill-opacity="0.8"/>
    <rect x="565.786" y="182.313" width="9.87678" height="10.1611" rx="4.93839" fill="#F1F1F1" fill-opacity="0.8"/>
    <rect x="699.121" y="182.313" width="9.87678" height="10.1611" rx="4.93839" fill="#F1F1F1" fill-opacity="0.8"/>
    <rect x="610.23" y="90.8625" width="9.87678" height="10.1611" rx="4.93839" fill="#F1F1F1" fill-opacity="0.8"/>
    <rect x="743.567" y="90.8625" width="9.87678" height="10.1611" rx="4.93839" fill="#F1F1F1" fill-opacity="0.8"/>
    <rect x="610.23" y="136.588" width="9.87678" height="10.1611" rx="4.93839" fill="#F1F1F1" fill-opacity="0.8"/>
    <rect x="743.567" y="136.588" width="9.87678" height="10.1611" rx="4.93839" fill="#F1F1F1" fill-opacity="0.8"/>
    <rect x="610.23" y="182.313" width="9.87678" height="10.1611" rx="4.93839" fill="#F1F1F1" fill-opacity="0.8"/>
    <rect x="743.567" y="182.313" width="9.87678" height="10.1611" rx="4.93839" fill="#F1F1F1" fill-opacity="0.8"/>
    <rect x="654.676" y="90.8625" width="9.87678" height="10.1611" rx="4.93839" fill="#F1F1F1" fill-opacity="0.8"/>
    <rect x="788.013" y="90.8625" width="9.87678" height="10.1611" rx="4.93839" fill="#F1F1F1" fill-opacity="0.8"/>
    <rect x="654.676" y="136.588" width="9.87678" height="10.1611" rx="4.93839" fill="#F1F1F1" fill-opacity="0.8"/>
    <rect x="788.013" y="136.588" width="9.87678" height="10.1611" rx="4.93839" fill="#F1F1F1" fill-opacity="0.8"/>
    <rect x="654.676" y="182.313" width="9.87678" height="10.1611" rx="4.93839" fill="#F1F1F1" fill-opacity="0.8"/>
    <rect x="788.013" y="182.313" width="9.87678" height="10.1611" rx="4.93839" fill="#F1F1F1" fill-opacity="0.8"/>
    <rect x="543.562" y="205.175" width="9.87678" height="10.1611" rx="4.93839" fill="#F1F1F1" fill-opacity="0.8"/>
    <rect x="676.899" y="205.175" width="9.87678" height="10.1611" rx="4.93839" fill="#F1F1F1" fill-opacity="0.8"/>
    <rect x="543.562" y="250.9" width="9.87678" height="10.1611" rx="4.93839" fill="#F1F1F1" fill-opacity="0.8"/>
    <rect x="676.899" y="250.9" width="9.87678" height="10.1611" rx="4.93839" fill="#F1F1F1" fill-opacity="0.8"/>
    <rect x="543.562" y="296.626" width="9.87678" height="10.1611" rx="4.93839" fill="#F1F1F1" fill-opacity="0.8"/>
    <rect x="676.899" y="296.625" width="9.87678" height="10.1611" rx="4.93839" fill="#F1F1F1" fill-opacity="0.8"/>
    <rect x="588.008" y="205.175" width="9.87678" height="10.1611" rx="4.93839" fill="#F1F1F1" fill-opacity="0.8"/>
    <rect x="721.345" y="205.175" width="9.87678" height="10.1611" rx="4.93839" fill="#F1F1F1" fill-opacity="0.8"/>
    <rect x="588.008" y="250.9" width="9.87678" height="10.1611" rx="4.93839" fill="#F1F1F1" fill-opacity="0.8"/>
    <rect x="721.345" y="250.9" width="9.87678" height="10.1611" rx="4.93839" fill="#F1F1F1" fill-opacity="0.8"/>
    <rect x="588.008" y="296.625" width="9.87678" height="10.1611" rx="4.93839" fill="#F1F1F1" fill-opacity="0.8"/>
    <rect x="721.345" y="296.625" width="9.87678" height="10.1611" rx="4.93839" fill="#F1F1F1" fill-opacity="0.8"/>
    <rect x="632.454" y="205.175" width="9.87678" height="10.1611" rx="4.93839" fill="#F1F1F1" fill-opacity="0.8"/>
    <rect x="765.789" y="205.175" width="9.87678" height="10.1611" rx="4.93839" fill="#F1F1F1" fill-opacity="0.8"/>
    <rect x="632.454" y="250.9" width="9.87678" height="10.1611" rx="4.93839" fill="#F1F1F1" fill-opacity="0.8"/>
    <rect x="765.789" y="250.9" width="9.87678" height="10.1611" rx="4.93839" fill="#F1F1F1" fill-opacity="0.8"/>
    <rect x="632.454" y="296.625" width="9.87678" height="10.1611" rx="4.93839" fill="#F1F1F1" fill-opacity="0.8"/>
    <rect x="765.789" y="296.625" width="9.87678" height="10.1611" rx="4.93839" fill="#F1F1F1" fill-opacity="0.8"/>
    <rect x="565.786" y="205.175" width="9.87678" height="10.1611" rx="4.93839" fill="#F1F1F1" fill-opacity="0.8"/>
    <rect x="699.121" y="205.175" width="9.87678" height="10.1611" rx="4.93839" fill="#F1F1F1" fill-opacity="0.8"/>
    <rect x="565.786" y="250.9" width="9.87678" height="10.1611" rx="4.93839" fill="#F1F1F1" fill-opacity="0.8"/>
    <rect x="699.121" y="250.9" width="9.87678" height="10.1611" rx="4.93839" fill="#F1F1F1" fill-opacity="0.8"/>
    <rect x="565.786" y="296.625" width="9.87678" height="10.1611" rx="4.93839" fill="#F1F1F1" fill-opacity="0.8"/>
    <rect x="699.121" y="296.625" width="9.87678" height="10.1611" rx="4.93839" fill="#F1F1F1" fill-opacity="0.8"/>
    <rect x="610.23" y="205.175" width="9.87678" height="10.1611" rx="4.93839" fill="#F1F1F1" fill-opacity="0.8"/>
    <rect x="743.567" y="205.175" width="9.87678" height="10.1611" rx="4.93839" fill="#F1F1F1" fill-opacity="0.8"/>
    <rect x="610.23" y="250.9" width="9.87678" height="10.1611" rx="4.93839" fill="#F1F1F1" fill-opacity="0.8"/>
    <rect x="743.567" y="250.9" width="9.87678" height="10.1611" rx="4.93839" fill="#F1F1F1" fill-opacity="0.8"/>
    <rect x="610.23" y="296.625" width="9.87678" height="10.1611" rx="4.93839" fill="#F1F1F1" fill-opacity="0.8"/>
    <rect x="743.567" y="296.625" width="9.87678" height="10.1611" rx="4.93839" fill="#F1F1F1" fill-opacity="0.8"/>
    <rect x="654.676" y="205.175" width="9.87678" height="10.1611" rx="4.93839" fill="#F1F1F1" fill-opacity="0.8"/>
    <rect x="788.013" y="205.175" width="9.87678" height="10.1611" rx="4.93839" fill="#F1F1F1" fill-opacity="0.8"/>
    <rect x="654.676" y="250.9" width="9.87678" height="10.1611" rx="4.93839" fill="#F1F1F1" fill-opacity="0.8"/>
    <rect x="788.013" y="250.9" width="9.87678" height="10.1611" rx="4.93839" fill="#F1F1F1" fill-opacity="0.8"/>
    <rect x="654.676" y="296.625" width="9.87678" height="10.1611" rx="4.93839" fill="#F1F1F1" fill-opacity="0.8"/>
    <rect x="788.013" y="296.625" width="9.87678" height="10.1611" rx="4.93839" fill="#F1F1F1" fill-opacity="0.8"/>
    <rect x="543.562" y="228.038" width="9.87678" height="10.1611" rx="4.93839" fill="#F1F1F1" fill-opacity="0.8"/>
    <rect x="676.899" y="228.038" width="9.87678" height="10.1611" rx="4.93839" fill="#F1F1F1" fill-opacity="0.8"/>
    <rect x="543.562" y="273.763" width="9.87678" height="10.1611" rx="4.93839" fill="#F1F1F1" fill-opacity="0.8"/>
    <rect x="676.899" y="273.763" width="9.87678" height="10.1611" rx="4.93839" fill="#F1F1F1" fill-opacity="0.8"/>
    <rect x="543.562" y="319.488" width="9.87678" height="10.1611" rx="4.93839" fill="#F1F1F1" fill-opacity="0.8"/>
    <rect x="676.899" y="319.488" width="9.87678" height="10.1611" rx="4.93839" fill="#F1F1F1" fill-opacity="0.8"/>
    <rect x="588.008" y="228.038" width="9.87678" height="10.1611" rx="4.93839" fill="#F1F1F1" fill-opacity="0.8"/>
    <rect x="721.345" y="228.038" width="9.87678" height="10.1611" rx="4.93839" fill="#F1F1F1" fill-opacity="0.8"/>
    <rect x="588.008" y="273.763" width="9.87678" height="10.1611" rx="4.93839" fill="#F1F1F1" fill-opacity="0.8"/>
    <rect x="721.345" y="273.763" width="9.87678" height="10.1611" rx="4.93839" fill="#F1F1F1" fill-opacity="0.8"/>
    <rect x="588.008" y="319.488" width="9.87678" height="10.1611" rx="4.93839" fill="#F1F1F1" fill-opacity="0.8"/>
    <rect x="721.345" y="319.488" width="9.87678" height="10.1611" rx="4.93839" fill="#F1F1F1" fill-opacity="0.8"/>
    <rect x="632.454" y="228.038" width="9.87678" height="10.1611" rx="4.93839" fill="#F1F1F1" fill-opacity="0.8"/>
    <rect x="765.789" y="228.038" width="9.87678" height="10.1611" rx="4.93839" fill="#F1F1F1" fill-opacity="0.8"/>
    <rect x="632.454" y="273.763" width="9.87678" height="10.1611" rx="4.93839" fill="#F1F1F1" fill-opacity="0.8"/>
    <rect x="765.789" y="273.763" width="9.87678" height="10.1611" rx="4.93839" fill="#F1F1F1" fill-opacity="0.8"/>
    <rect x="632.454" y="319.488" width="9.87678" height="10.1611" rx="4.93839" fill="#F1F1F1" fill-opacity="0.8"/>
    <rect x="765.789" y="319.488" width="9.87678" height="10.1611" rx="4.93839" fill="#F1F1F1" fill-opacity="0.8"/>
    <rect x="565.786" y="228.038" width="9.87678" height="10.1611" rx="4.93839" fill="#F1F1F1" fill-opacity="0.8"/>
    <rect x="699.121" y="228.038" width="9.87678" height="10.1611" rx="4.93839" fill="#F1F1F1" fill-opacity="0.8"/>
    <rect x="565.786" y="273.763" width="9.87678" height="10.1611" rx="4.93839" fill="#F1F1F1" fill-opacity="0.8"/>
    <rect x="699.121" y="273.763" width="9.87678" height="10.1611" rx="4.93839" fill="#F1F1F1" fill-opacity="0.8"/>
    <rect x="565.786" y="319.488" width="9.87678" height="10.1611" rx="4.93839" fill="#F1F1F1" fill-opacity="0.8"/>
    <rect x="699.121" y="319.488" width="9.87678" height="10.1611" rx="4.93839" fill="#F1F1F1" fill-opacity="0.8"/>
    <rect x="610.23" y="228.038" width="9.87678" height="10.1611" rx="4.93839" fill="#F1F1F1" fill-opacity="0.8"/>
    <rect x="743.567" y="228.038" width="9.87678" height="10.1611" rx="4.93839" fill="#F1F1F1" fill-opacity="0.8"/>
    <rect x="610.23" y="273.763" width="9.87678" height="10.1611" rx="4.93839" fill="#F1F1F1" fill-opacity="0.8"/>
    <rect x="743.567" y="273.763" width="9.87678" height="10.1611" rx="4.93839" fill="#F1F1F1" fill-opacity="0.8"/>
    <rect x="610.23" y="319.488" width="9.87678" height="10.1611" rx="4.93839" fill="#F1F1F1" fill-opacity="0.8"/>
    <rect x="743.567" y="319.488" width="9.87678" height="10.1611" rx="4.93839" fill="#F1F1F1" fill-opacity="0.8"/>
    <rect x="654.676" y="228.038" width="9.87678" height="10.1611" rx="4.93839" fill="#F1F1F1" fill-opacity="0.8"/>
    <rect x="788.013" y="228.038" width="9.87678" height="10.1611" rx="4.93839" fill="#F1F1F1" fill-opacity="0.8"/>
    <rect x="654.676" y="273.763" width="9.87678" height="10.1611" rx="4.93839" fill="#F1F1F1" fill-opacity="0.8"/>
    <rect x="788.013" y="273.763" width="9.87678" height="10.1611" rx="4.93839" fill="#F1F1F1" fill-opacity="0.8"/>
    <rect x="654.676" y="319.488" width="9.87678" height="10.1611" rx="4.93839" fill="#F1F1F1" fill-opacity="0.8"/>
    <rect x="788.013" y="319.488" width="9.87678" height="10.1611" rx="4.93839" fill="#F1F1F1" fill-opacity="0.8"/>
    <rect x="276.889" y="68.6351" width="9.87678" height="10.1611" rx="4.93839" fill="#F1F1F1" fill-opacity="0.8"/>
    <rect x="410.226" y="68.6351" width="9.87678" height="10.1611" rx="4.93839" fill="#F1F1F1" fill-opacity="0.8"/>
    <rect x="276.889" y="114.36" width="9.87678" height="10.1611" rx="4.93839" fill="#F1F1F1" fill-opacity="0.8"/>
    <rect x="410.226" y="114.36" width="9.87678" height="10.1611" rx="4.93839" fill="#F1F1F1" fill-opacity="0.8"/>
    <rect x="276.889" y="160.085" width="9.87678" height="10.1611" rx="4.93839" fill="#F1F1F1" fill-opacity="0.8"/>
    <rect x="410.226" y="160.085" width="9.87678" height="10.1611" rx="4.93839" fill="#F1F1F1" fill-opacity="0.8"/>
    <rect x="454.671" y="68.6351" width="9.87678" height="10.1611" rx="4.93839" fill="#F1F1F1" fill-opacity="0.8"/>
    <rect x="454.671" y="114.36" width="9.87678" height="10.1611" rx="4.93839" fill="#F1F1F1" fill-opacity="0.8"/>
    <rect x="454.671" y="160.085" width="9.87678" height="10.1611" rx="4.93839" fill="#F1F1F1" fill-opacity="0.8"/>
    <rect x="365.78" y="68.6351" width="9.87678" height="10.1611" rx="4.93839" fill="#F1F1F1" fill-opacity="0.8"/>
    <rect x="499.115" y="68.6351" width="9.87678" height="10.1611" rx="4.93839" fill="#F1F1F1" fill-opacity="0.8"/>
    <rect x="365.78" y="114.36" width="9.87678" height="10.1611" rx="4.93839" fill="#F1F1F1" fill-opacity="0.8"/>
    <rect x="499.115" y="114.36" width="9.87678" height="10.1611" rx="4.93839" fill="#F1F1F1" fill-opacity="0.8"/>
    <rect x="365.78" y="160.085" width="9.87678" height="10.1611" rx="4.93839" fill="#F1F1F1" fill-opacity="0.8"/>
    <rect x="499.115" y="160.085" width="9.87678" height="10.1611" rx="4.93839" fill="#F1F1F1" fill-opacity="0.8"/>
    <rect x="432.447" y="68.6351" width="9.87678" height="10.1611" rx="4.93839" fill="#F1F1F1" fill-opacity="0.8"/>
    <rect x="432.447" y="114.36" width="9.87678" height="10.1611" rx="4.93839" fill="#F1F1F1" fill-opacity="0.8"/>
    <rect x="432.447" y="160.085" width="9.87678" height="10.1611" rx="4.93839" fill="#F1F1F1" fill-opacity="0.8"/>
    <rect x="343.557" y="68.6351" width="9.87678" height="10.1611" rx="4.93839" fill="#F1F1F1" fill-opacity="0.8"/>
    <rect x="476.894" y="68.6351" width="9.87678" height="10.1611" rx="4.93839" fill="#F1F1F1" fill-opacity="0.8"/>
    <rect x="343.557" y="114.36" width="9.87678" height="10.1611" rx="4.93839" fill="#F1F1F1" fill-opacity="0.8"/>
    <rect x="476.894" y="114.36" width="9.87678" height="10.1611" rx="4.93839" fill="#F1F1F1" fill-opacity="0.8"/>
    <rect x="343.557" y="160.085" width="9.87678" height="10.1611" rx="4.93839" fill="#F1F1F1" fill-opacity="0.8"/>
    <rect x="476.894" y="160.085" width="9.87678" height="10.1611" rx="4.93839" fill="#F1F1F1" fill-opacity="0.8"/>
    <rect x="388.002" y="68.6351" width="9.87678" height="10.1611" rx="4.93839" fill="#F1F1F1" fill-opacity="0.8"/>
    <rect x="521.339" y="68.6351" width="9.87678" height="10.1611" rx="4.93839" fill="#F1F1F1" fill-opacity="0.8"/>
    <rect x="388.002" y="114.36" width="9.87678" height="10.1611" rx="4.93839" fill="#F1F1F1" fill-opacity="0.8"/>
    <rect x="521.339" y="114.36" width="9.87678" height="10.1611" rx="4.93839" fill="#F1F1F1" fill-opacity="0.8"/>
    <rect x="388.002" y="160.085" width="9.87678" height="10.1611" rx="4.93839" fill="#F1F1F1" fill-opacity="0.8"/>
    <rect x="521.339" y="160.085" width="9.87678" height="10.1611" rx="4.93839" fill="#F1F1F1" fill-opacity="0.8"/>
    <rect x="276.889" y="91.4976" width="9.87678" height="10.1611" rx="4.93839" fill="#F1F1F1" fill-opacity="0.8"/>
    <rect x="410.226" y="91.4976" width="9.87678" height="10.1611" rx="4.93839" fill="#F1F1F1" fill-opacity="0.8"/>
    <rect x="276.889" y="137.223" width="9.87678" height="10.1611" rx="4.93839" fill="#F1F1F1" fill-opacity="0.8"/>
    <rect x="410.226" y="137.223" width="9.87678" height="10.1611" rx="4.93839" fill="#F1F1F1" fill-opacity="0.8"/>
    <rect x="276.889" y="182.948" width="9.87678" height="10.1611" rx="4.93839" fill="#F1F1F1" fill-opacity="0.8"/>
    <rect x="410.226" y="182.948" width="9.87678" height="10.1611" rx="4.93839" fill="#F1F1F1" fill-opacity="0.8"/>
    <rect x="454.671" y="91.4976" width="9.87678" height="10.1611" rx="4.93839" fill="#F1F1F1" fill-opacity="0.8"/>
    <rect x="454.671" y="137.223" width="9.87678" height="10.1611" rx="4.93839" fill="#F1F1F1" fill-opacity="0.8"/>
    <rect x="454.671" y="182.948" width="9.87678" height="10.1611" rx="4.93839" fill="#F1F1F1" fill-opacity="0.8"/>
    <rect x="365.78" y="91.4976" width="9.87678" height="10.1611" rx="4.93839" fill="#F1F1F1" fill-opacity="0.8"/>
    <rect x="499.115" y="91.4976" width="9.87678" height="10.1611" rx="4.93839" fill="#F1F1F1" fill-opacity="0.8"/>
    <rect x="365.78" y="137.223" width="9.87678" height="10.1611" rx="4.93839" fill="#F1F1F1" fill-opacity="0.8"/>
    <rect x="499.115" y="137.223" width="9.87678" height="10.1611" rx="4.93839" fill="#F1F1F1" fill-opacity="0.8"/>
    <rect x="365.78" y="182.948" width="9.87678" height="10.1611" rx="4.93839" fill="#F1F1F1" fill-opacity="0.8"/>
    <rect x="499.115" y="182.948" width="9.87678" height="10.1611" rx="4.93839" fill="#F1F1F1" fill-opacity="0.8"/>
    <rect x="432.447" y="91.4976" width="9.87678" height="10.1611" rx="4.93839" fill="#F1F1F1" fill-opacity="0.8"/>
    <rect x="432.447" y="137.223" width="9.87678" height="10.1611" rx="4.93839" fill="#F1F1F1" fill-opacity="0.8"/>
    <rect x="432.447" y="182.948" width="9.87678" height="10.1611" rx="4.93839" fill="#F1F1F1" fill-opacity="0.8"/>
    <rect x="343.557" y="91.4976" width="9.87678" height="10.1611" rx="4.93839" fill="#F1F1F1" fill-opacity="0.8"/>
    <rect x="476.894" y="91.4976" width="9.87678" height="10.1611" rx="4.93839" fill="#F1F1F1" fill-opacity="0.8"/>
    <rect x="343.557" y="137.223" width="9.87678" height="10.1611" rx="4.93839" fill="#F1F1F1" fill-opacity="0.8"/>
    <rect x="476.894" y="137.223" width="9.87678" height="10.1611" rx="4.93839" fill="#F1F1F1" fill-opacity="0.8"/>
    <rect x="343.557" y="182.948" width="9.87678" height="10.1611" rx="4.93839" fill="#F1F1F1" fill-opacity="0.8"/>
    <rect x="476.894" y="182.948" width="9.87678" height="10.1611" rx="4.93839" fill="#F1F1F1" fill-opacity="0.8"/>
    <rect x="388.002" y="91.4976" width="9.87678" height="10.1611" rx="4.93839" fill="#F1F1F1" fill-opacity="0.8"/>
    <rect x="521.339" y="91.4976" width="9.87678" height="10.1611" rx="4.93839" fill="#F1F1F1" fill-opacity="0.8"/>
    <rect x="388.002" y="137.223" width="9.87678" height="10.1611" rx="4.93839" fill="#F1F1F1" fill-opacity="0.8"/>
    <rect x="521.339" y="137.223" width="9.87678" height="10.1611" rx="4.93839" fill="#F1F1F1" fill-opacity="0.8"/>
    <rect x="388.002" y="182.948" width="9.87678" height="10.1611" rx="4.93839" fill="#F1F1F1" fill-opacity="0.8"/>
    <rect x="521.339" y="182.948" width="9.87678" height="10.1611" rx="4.93839" fill="#F1F1F1" fill-opacity="0.8"/>
    <rect x="276.889" y="205.81" width="9.87678" height="10.1611" rx="4.93839" fill="#F1F1F1" fill-opacity="0.8"/>
    <rect x="410.226" y="205.81" width="9.87678" height="10.1611" rx="4.93839" fill="#F1F1F1" fill-opacity="0.8"/>
    <rect x="276.889" y="251.536" width="9.87678" height="10.1611" rx="4.93839" fill="#F1F1F1" fill-opacity="0.8"/>
    <rect x="410.226" y="251.536" width="9.87678" height="10.1611" rx="4.93839" fill="#F1F1F1" fill-opacity="0.8"/>
    <rect x="276.889" y="297.261" width="9.87678" height="10.1611" rx="4.93839" fill="#F1F1F1" fill-opacity="0.8"/>
    <rect x="410.226" y="297.261" width="9.87678" height="10.1611" rx="4.93839" fill="#F1F1F1" fill-opacity="0.8"/>
    <rect x="454.671" y="205.81" width="9.87678" height="10.1611" rx="4.93839" fill="#F1F1F1" fill-opacity="0.8"/>
    <rect x="454.671" y="251.536" width="9.87678" height="10.1611" rx="4.93839" fill="#F1F1F1" fill-opacity="0.8"/>
    <rect x="454.671" y="297.261" width="9.87678" height="10.1611" rx="4.93839" fill="#F1F1F1" fill-opacity="0.8"/>
    <rect x="365.78" y="205.81" width="9.87678" height="10.1611" rx="4.93839" fill="#F1F1F1" fill-opacity="0.8"/>
    <rect x="499.115" y="205.81" width="9.87678" height="10.1611" rx="4.93839" fill="#F1F1F1" fill-opacity="0.8"/>
    <rect x="365.78" y="251.536" width="9.87678" height="10.1611" rx="4.93839" fill="#F1F1F1" fill-opacity="0.8"/>
    <rect x="499.115" y="251.536" width="9.87678" height="10.1611" rx="4.93839" fill="#F1F1F1" fill-opacity="0.8"/>
    <rect x="365.78" y="297.261" width="9.87678" height="10.1611" rx="4.93839" fill="#F1F1F1" fill-opacity="0.8"/>
    <rect x="499.115" y="297.261" width="9.87678" height="10.1611" rx="4.93839" fill="#F1F1F1" fill-opacity="0.8"/>
    <rect x="432.447" y="205.81" width="9.87678" height="10.1611" rx="4.93839" fill="#F1F1F1" fill-opacity="0.8"/>
    <rect x="432.447" y="251.536" width="9.87678" height="10.1611" rx="4.93839" fill="#F1F1F1" fill-opacity="0.8"/>
    <rect x="432.447" y="297.261" width="9.87678" height="10.1611" rx="4.93839" fill="#F1F1F1" fill-opacity="0.8"/>
    <rect x="343.557" y="205.81" width="9.87678" height="10.1611" rx="4.93839" fill="#F1F1F1" fill-opacity="0.8"/>
    <rect x="476.894" y="205.81" width="9.87678" height="10.1611" rx="4.93839" fill="#F1F1F1" fill-opacity="0.8"/>
    <rect x="343.557" y="251.536" width="9.87678" height="10.1611" rx="4.93839" fill="#F1F1F1" fill-opacity="0.8"/>
    <rect x="476.894" y="251.536" width="9.87678" height="10.1611" rx="4.93839" fill="#F1F1F1" fill-opacity="0.8"/>
    <rect x="343.557" y="297.261" width="9.87678" height="10.1611" rx="4.93839" fill="#F1F1F1" fill-opacity="0.8"/>
    <rect x="476.894" y="297.261" width="9.87678" height="10.1611" rx="4.93839" fill="#F1F1F1" fill-opacity="0.8"/>
    <rect x="388.002" y="205.81" width="9.87678" height="10.1611" rx="4.93839" fill="#F1F1F1" fill-opacity="0.8"/>
    <rect x="521.339" y="205.81" width="9.87678" height="10.1611" rx="4.93839" fill="#F1F1F1" fill-opacity="0.8"/>
    <rect x="388.002" y="251.536" width="9.87678" height="10.1611" rx="4.93839" fill="#F1F1F1" fill-opacity="0.8"/>
    <rect x="521.339" y="251.536" width="9.87678" height="10.1611" rx="4.93839" fill="#F1F1F1" fill-opacity="0.8"/>
    <rect x="388.002" y="297.261" width="9.87678" height="10.1611" rx="4.93839" fill="#F1F1F1" fill-opacity="0.8"/>
    <rect x="521.339" y="297.261" width="9.87678" height="10.1611" rx="4.93839" fill="#F1F1F1" fill-opacity="0.8"/>
    <rect x="276.889" y="228.673" width="9.87678" height="10.1611" rx="4.93839" fill="#F1F1F1" fill-opacity="0.8"/>
    <rect x="410.226" y="228.673" width="9.87678" height="10.1611" rx="4.93839" fill="#F1F1F1" fill-opacity="0.8"/>
    <rect x="276.889" y="274.398" width="9.87678" height="10.1611" rx="4.93839" fill="#F1F1F1" fill-opacity="0.8"/>
    <rect x="410.226" y="274.398" width="9.87678" height="10.1611" rx="4.93839" fill="#F1F1F1" fill-opacity="0.8"/>
    <rect x="276.889" y="320.123" width="9.87678" height="10.1611" rx="4.93839" fill="#F1F1F1" fill-opacity="0.8"/>
    <rect x="410.226" y="320.123" width="9.87678" height="10.1611" rx="4.93839" fill="#F1F1F1" fill-opacity="0.8"/>
    <rect x="454.671" y="228.673" width="9.87678" height="10.1611" rx="4.93839" fill="#F1F1F1" fill-opacity="0.8"/>
    <rect x="454.671" y="274.398" width="9.87678" height="10.1611" rx="4.93839" fill="#F1F1F1" fill-opacity="0.8"/>
    <rect x="454.671" y="320.123" width="9.87678" height="10.1611" rx="4.93839" fill="#F1F1F1" fill-opacity="0.8"/>
    <rect x="365.78" y="228.673" width="9.87678" height="10.1611" rx="4.93839" fill="#F1F1F1" fill-opacity="0.8"/>
    <rect x="499.115" y="228.673" width="9.87678" height="10.1611" rx="4.93839" fill="#F1F1F1" fill-opacity="0.8"/>
    <rect x="365.78" y="274.398" width="9.87678" height="10.1611" rx="4.93839" fill="#F1F1F1" fill-opacity="0.8"/>
    <rect x="499.115" y="274.398" width="9.87678" height="10.1611" rx="4.93839" fill="#F1F1F1" fill-opacity="0.8"/>
    <rect x="365.78" y="320.123" width="9.87678" height="10.1611" rx="4.93839" fill="#F1F1F1" fill-opacity="0.8"/>
    <rect x="499.115" y="320.123" width="9.87678" height="10.1611" rx="4.93839" fill="#F1F1F1" fill-opacity="0.8"/>
    <rect x="432.447" y="228.673" width="9.87678" height="10.1611" rx="4.93839" fill="#F1F1F1" fill-opacity="0.8"/>
    <rect x="432.447" y="274.398" width="9.87678" height="10.1611" rx="4.93839" fill="#F1F1F1" fill-opacity="0.8"/>
    <rect x="432.447" y="320.123" width="9.87678" height="10.1611" rx="4.93839" fill="#F1F1F1" fill-opacity="0.8"/>
    <rect x="343.557" y="228.673" width="9.87678" height="10.1611" rx="4.93839" fill="#F1F1F1" fill-opacity="0.8"/>
    <rect x="476.894" y="228.673" width="9.87678" height="10.1611" rx="4.93839" fill="#F1F1F1" fill-opacity="0.8"/>
    <rect x="343.557" y="274.398" width="9.87678" height="10.1611" rx="4.93839" fill="#F1F1F1" fill-opacity="0.8"/>
    <rect x="476.894" y="274.398" width="9.87678" height="10.1611" rx="4.93839" fill="#F1F1F1" fill-opacity="0.8"/>
    <rect x="343.557" y="320.123" width="9.87678" height="10.1611" rx="4.93839" fill="#F1F1F1" fill-opacity="0.8"/>
    <rect x="476.894" y="320.123" width="9.87678" height="10.1611" rx="4.93839" fill="#F1F1F1" fill-opacity="0.8"/>
    <rect x="388.002" y="228.673" width="9.87678" height="10.1611" rx="4.93839" fill="#F1F1F1" fill-opacity="0.8"/>
    <rect x="521.339" y="228.673" width="9.87678" height="10.1611" rx="4.93839" fill="#F1F1F1" fill-opacity="0.8"/>
    <rect x="388.002" y="274.398" width="9.87678" height="10.1611" rx="4.93839" fill="#F1F1F1" fill-opacity="0.8"/>
    <rect x="521.339" y="274.398" width="9.87678" height="10.1611" rx="4.93839" fill="#F1F1F1" fill-opacity="0.8"/>
    <rect x="388.002" y="320.123" width="9.87678" height="10.1611" rx="4.93839" fill="#F1F1F1" fill-opacity="0.8"/>
    <rect x="521.339" y="320.123" width="9.87678" height="10.1611" rx="4.93839" fill="#F1F1F1" fill-opacity="0.8"/>
    <rect x="191.432" width="480.205" height="489.056" rx="72" transform="rotate(23.0435 191.432 0)" fill="url(#paint0_linear)"/>
    <defs>
        <linearGradient id="paint0_linear" x1="723.69" y1="180.758" x2="23.3518" y2="247.841" gradientUnits="userSpaceOnUse">
            <stop stop-color="#DADDE1"/>
            <stop offset="1" stop-color="white"/>
        </linearGradient>
    </defs>
</svg>