<svg width="270" height="270" viewBox="0 0 270 270" fill="none" xmlns="http://www.w3.org/2000/svg">
    <path d="M264.706 135C264.706 206.635 206.634 264.706 135 264.706C63.3652 264.706 5.29395 206.635 5.29395 135C5.29395 63.3656 63.3652 5.29431 135 5.29431C206.634 5.29431 264.706 63.3656 264.706 135ZM18.2645 135C18.2645 199.471 70.5287 251.735 135 251.735C199.471 251.735 251.735 199.471 251.735 135C251.735 70.529 199.471 18.2649 135 18.2649C70.5287 18.2649 18.2645 70.529 18.2645 135Z" fill="#F5F6F7"/>
    <path d="M135.043 11.7796C135.044 8.1979 137.95 5.27847 141.528 5.45877C159.076 6.3432 176.286 10.7856 192.103 18.5412C209.863 27.2498 225.397 39.9052 237.515 55.5393C249.633 71.1733 258.014 89.3719 262.019 108.743C266.023 128.114 265.544 148.144 260.618 167.302C255.692 186.459 246.449 204.236 233.597 219.273C220.745 234.309 204.625 246.207 186.468 254.057C168.312 261.906 148.6 265.499 128.842 264.56C111.246 263.724 94.0278 259.313 78.2293 251.623C75.0089 250.055 73.8711 246.096 75.5977 242.958C77.3244 239.82 81.261 238.693 84.4901 240.243C98.5486 246.99 113.838 250.862 129.458 251.604C147.24 252.449 164.98 249.215 181.321 242.151C197.662 235.087 212.171 224.378 223.737 210.845C235.304 197.312 243.622 181.313 248.056 164.072C252.489 146.83 252.921 128.803 249.317 111.369C245.713 93.9347 238.169 77.556 227.263 63.4854C216.357 49.4147 202.377 38.0249 186.392 30.1871C172.352 23.3025 157.092 19.3188 141.522 18.4473C137.946 18.2472 135.041 15.3614 135.043 11.7796Z" fill="url(#paint0_linear)"/>
    <path d="M233.821 135C233.821 189.579 189.576 233.824 134.997 233.824C80.4186 233.824 36.1738 189.579 36.1738 135C36.1738 80.4214 80.4186 36.1766 134.997 36.1766C189.576 36.1766 233.821 80.4214 233.821 135ZM48.0326 135C48.0326 183.029 86.9681 221.965 134.997 221.965C183.027 221.965 221.962 183.029 221.962 135C221.962 86.9709 183.027 48.0355 134.997 48.0355C86.9681 48.0355 48.0326 86.9709 48.0326 135Z" fill="#F5F6F7"/>
    <path d="M134.989 42.1059C134.988 38.8312 137.645 36.1576 140.914 36.3536C155.504 37.2282 169.745 41.3306 182.598 48.3942C197.186 56.4115 209.512 67.9838 218.433 82.0371C227.354 96.0904 232.581 112.169 233.628 128.782C234.551 143.419 232.203 158.052 226.785 171.628C225.572 174.669 222.022 175.936 219.058 174.542C216.095 173.148 214.843 169.622 216.032 166.57C220.614 154.811 222.59 142.171 221.793 129.528C220.871 114.909 216.272 100.76 208.421 88.3927C200.571 76.0257 189.723 65.8422 176.886 58.7869C165.785 52.6856 153.506 49.0948 140.914 48.2366C137.647 48.014 134.989 45.3807 134.989 42.1059Z" fill="#4B98F8"/>
    <path d="M202.94 135C202.94 172.523 172.522 202.941 134.999 202.941C97.4759 202.941 67.0576 172.523 67.0576 135C67.0576 97.4772 97.4759 67.059 134.999 67.059C172.522 67.059 202.94 97.4772 202.94 135ZM79.287 135C79.287 165.769 104.23 190.712 134.999 190.712C165.767 190.712 190.71 165.769 190.71 135C190.71 104.231 165.767 79.2884 134.999 79.2884C104.23 79.2884 79.287 104.231 79.287 135Z" fill="#F5F6F7"/>
    <path d="M134.997 73.1734C134.997 69.7964 137.74 67.03 141.104 67.3334C151.257 68.2492 161.077 71.4393 169.83 76.6658C172.729 78.3971 173.323 82.2475 171.338 84.9797C169.353 87.7119 165.543 88.2847 162.61 86.6111C155.994 82.8358 148.672 80.4571 141.1 79.6231C137.743 79.2533 134.997 76.5505 134.997 73.1734Z" fill="#768AA7"/>
    <defs>
        <linearGradient id="paint0_linear" x1="134.998" y1="10.9561" x2="59.3367" y2="285.809" gradientUnits="userSpaceOnUse">
            <stop stop-color="#1A4B93"/>
            <stop offset="1" stop-color="#1A4B93"/>
        </linearGradient>
    </defs>
</svg>