<svg width="16" height="16" viewBox="0 0 16 16" fill="none" xmlns="http://www.w3.org/2000/svg">
<path d="M14.25 0.5H1.75C1.05937 0.5 0.5 1.05937 0.5 1.75V14.25C0.5 14.9406 1.05937 15.5 1.75 15.5H8.625V9.875H6.75V7.375H8.625V5.75812C8.625 3.82063 9.80812 2.76562 11.5369 2.76562C12.365 2.76562 13.0763 2.8275 13.2837 2.855V4.88L12.085 4.88062C11.145 4.88062 10.9631 5.3275 10.9631 5.9825V7.375H13.7381L13.1131 9.875H10.9631V15.5H14.25C14.9406 15.5 15.5 14.9406 15.5 14.25V1.75C15.5 1.05937 14.9406 0.5 14.25 0.5Z" fill="#1A4B93"/>
</svg>
