<svg width="14" height="14" viewBox="0 0 14 14" fill="none" xmlns="http://www.w3.org/2000/svg">
<path d="M7.00016 1.53436C5.22016 1.53436 5.00905 1.54103 4.30627 1.57325C3.54738 1.6077 2.8435 1.75992 2.30183 2.30159C1.76016 2.84325 1.60794 3.54714 1.5735 4.30603C1.54127 5.00881 1.53461 5.21992 1.53461 6.99992C1.53461 8.77992 1.54127 8.99103 1.5735 9.69381C1.60794 10.4527 1.76016 11.1566 2.30183 11.6983C2.8435 12.2399 3.54738 12.3921 4.30627 12.4266C5.00905 12.4588 5.22016 12.4655 7.00016 12.4655C8.78016 12.4655 8.99127 12.4588 9.69405 12.4266C10.4529 12.3921 11.1568 12.2399 11.6985 11.6983C12.2402 11.1566 12.3924 10.4527 12.4268 9.69381C12.4591 8.99103 12.4657 8.77992 12.4657 6.99992C12.4657 5.21992 12.4591 5.00881 12.4268 4.30603C12.3924 3.54714 12.2402 2.84325 11.6985 2.30159C11.1568 1.75992 10.4529 1.6077 9.69405 1.57325C8.99127 1.54103 8.78016 1.53436 7.00016 1.53436ZM7.00016 0.333252C8.81072 0.333252 9.03794 0.34103 9.74905 0.373252C10.8324 0.422696 11.784 0.688252 12.5479 1.45214C13.3118 2.21603 13.5774 3.1677 13.6268 4.25103C13.659 4.96214 13.6668 5.18936 13.6668 6.99992C13.6668 8.81047 13.659 9.0377 13.6268 9.74881C13.5774 10.8321 13.3118 11.7838 12.5479 12.5477C11.784 13.3116 10.8324 13.5771 9.74905 13.6266C9.03794 13.6588 8.81072 13.6666 7.00016 13.6666C5.18961 13.6666 4.96238 13.6588 4.25127 13.6266C3.16794 13.5771 2.21627 13.3116 1.45238 12.5477C0.688496 11.7838 0.422941 10.8321 0.373496 9.74881C0.341274 9.0377 0.333496 8.81047 0.333496 6.99992C0.333496 5.18936 0.341274 4.96214 0.373496 4.25103C0.422941 3.1677 0.688496 2.21603 1.45238 1.45214C2.21627 0.688252 3.16794 0.422696 4.25127 0.373252C4.96238 0.34103 5.18961 0.333252 7.00016 0.333252ZM7.00016 3.57659C8.89072 3.57659 10.4235 5.10936 10.4235 6.99992C10.4235 8.89047 8.89072 10.4233 7.00016 10.4233C5.10961 10.4233 3.57683 8.89047 3.57683 6.99992C3.57683 5.10936 5.10961 3.57659 7.00016 3.57659ZM7.00016 9.22214C8.22738 9.22214 9.22238 8.22714 9.22238 6.99992C9.22238 5.7727 8.22738 4.7777 7.00016 4.7777C5.77294 4.7777 4.77794 5.7727 4.77794 6.99992C4.77794 8.22714 5.77294 9.22214 7.00016 9.22214ZM10.5591 4.24103C10.1172 4.24103 9.75905 3.88286 9.75905 3.44103C9.75905 2.9992 10.1172 2.64103 10.5591 2.64103C11.0009 2.64103 11.359 2.9992 11.359 3.44103C11.359 3.88286 11.0009 4.24103 10.5591 4.24103Z" fill="#1A4B93"/>
</svg>
