<svg width="140" height="38" viewBox="0 0 140 38" fill="none" xmlns="http://www.w3.org/2000/svg">
<path d="M23.081 13.1682H13.2432V31.9801H23.081V13.1682Z" fill="#08289B" fill-opacity="0.4"/>
<path d="M3.78369 22.5743L3.78369 31.9802H32.1621V22.5743H3.78369Z" fill="#1A4B93" fill-opacity="0.75"/>
<path d="M32.1619 3.76233H22.7024V31.9802H32.1619V3.76233Z" fill="#1A4B93"/>
<path d="M40.1875 3.88208H49.1339V15.4258H46.1053V6.40889H43.1812V10.6145C43.1812 12.4606 42.7752 13.7874 41.9628 14.5951C41.2783 15.2527 40.3733 15.5816 39.2476 15.5816C38.7833 15.5816 38.3251 15.5296 37.8726 15.4258V12.6567C38.1162 12.7375 38.3482 12.7778 38.5688 12.7778C38.9865 12.7778 39.3229 12.6625 39.5783 12.4317C39.9843 12.0625 40.1875 11.3356 40.1875 10.251V3.88208ZM51.3054 7.68961H54.0902V11.6702L57.171 7.68961H59.5903V15.4258H56.8055V11.3414L53.7595 15.4258H51.3054V7.68961ZM62.3741 7.68961H69.5277V13.4874H70.6591V17.6757H68.2223V15.4258H63.0529V17.6757H60.6161V13.4874C61.0452 13.4528 61.3994 13.2971 61.6779 13.0201C62.1418 12.5702 62.3741 11.8317 62.3741 10.8049V7.68961ZM66.8125 13.4874V9.62798H64.9501V10.9433C64.9501 11.5202 64.8744 12.0106 64.7238 12.4144C64.5498 12.8759 64.3061 13.2336 63.9928 13.4874H66.8125ZM80.1223 11.774V12.0683H74.3263C74.3263 12.6105 74.4886 13.0432 74.8136 13.3663C75.0691 13.6201 75.452 13.747 75.9624 13.747C76.3105 13.747 76.6121 13.6778 76.8675 13.5394C77.0881 13.4124 77.2504 13.2394 77.3548 13.0201H80.0179C79.8438 13.6432 79.5305 14.174 79.078 14.6124C78.3352 15.3277 77.2795 15.6854 75.9102 15.6854C74.5526 15.6854 73.4791 15.2931 72.6902 14.5085C71.9244 13.747 71.5414 12.7721 71.5414 11.5837C71.5414 10.3376 71.93 9.33952 72.7076 8.58957C73.4852 7.83961 74.5469 7.46462 75.8928 7.46462C77.1342 7.46462 78.1324 7.81651 78.8865 8.52034C79.7102 9.30491 80.1223 10.3895 80.1223 11.774ZM74.4133 10.476H77.5637C77.4824 10.1414 77.3318 9.86452 77.1112 9.64529C76.8327 9.36838 76.4498 9.22992 75.9624 9.22992C75.4868 9.22992 75.1095 9.36838 74.8311 9.64529C74.5991 9.89914 74.4599 10.176 74.4133 10.476ZM84.5157 14.6816V19.3891H81.7308V7.68961H84.5157V8.53765C85.1074 7.7992 85.902 7.43 86.9002 7.43C87.9907 7.43 88.9132 7.805 89.6677 8.55495C90.4566 9.33952 90.8512 10.3376 90.8512 11.5491C90.8512 12.7836 90.4335 13.8047 89.598 14.6124C88.867 15.3277 87.9793 15.6854 86.935 15.6854C85.9717 15.6854 85.1653 15.3508 84.5157 14.6816ZM86.2214 9.78375C85.734 9.78375 85.3163 9.95682 84.9682 10.303C84.6084 10.6606 84.4286 11.0875 84.4286 11.5837C84.4286 12.0452 84.6084 12.4548 84.9682 12.8125C85.3163 13.1586 85.734 13.3317 86.2214 13.3317C86.7201 13.3317 87.1321 13.1586 87.4572 12.8125C87.8166 12.4548 87.9967 12.0452 87.9967 11.5837C87.9967 11.0875 87.8166 10.6606 87.4572 10.303C87.1321 9.95682 86.7201 9.78375 86.2214 9.78375ZM100.671 15.4258V7.68961H103.456V15.4258H100.671ZM95.2408 10.2683H97.138C98.0431 10.2683 98.7393 10.4991 99.2266 10.9606C99.6909 11.4106 99.9228 12.0279 99.9228 12.8125C99.9228 13.6086 99.7026 14.2259 99.2614 14.6643C98.751 15.172 98.0431 15.4258 97.138 15.4258H92.4559V7.68961H95.2408V10.2683ZM95.2408 13.6259H96.2851C96.6219 13.6259 96.8712 13.5451 97.0336 13.3836C97.1614 13.2567 97.225 13.0721 97.225 12.8298C97.225 12.5759 97.1554 12.3913 97.0161 12.2759C96.8421 12.1375 96.5871 12.0683 96.2503 12.0683H95.2408V13.6259Z" fill="#1A4B93" fill-opacity="0.75"/>
<path d="M37.8374 20.4363H41.2141L43.4245 25.5764L45.3565 20.4363H48.5765L43.3549 31.98H40.1697L41.7884 28.7436L37.8374 20.4363ZM48.9084 31.98V24.2438H56.9671V31.98H54.1822V26.4245H51.6932V31.98H48.9084ZM61.6707 31.2358V35.9433H58.8858V24.2438H61.6707V25.0918C62.2625 24.3534 63.0571 23.9842 64.0552 23.9842C65.1457 23.9842 66.0682 24.3592 66.8227 25.1092C67.6116 25.8937 68.0063 26.8918 68.0063 28.1033C68.0063 29.3378 67.5885 30.3589 66.7531 31.1666C66.022 31.8819 65.1344 32.2396 64.09 32.2396C63.1267 32.2396 62.3204 31.905 61.6707 31.2358ZM63.3764 26.3379C62.8891 26.3379 62.4713 26.511 62.1232 26.8572C61.7634 27.2148 61.5837 27.6417 61.5837 28.1379C61.5837 28.5994 61.7634 29.009 62.1232 29.3667C62.4713 29.7128 62.8891 29.8859 63.3764 29.8859C63.8751 29.8859 64.2872 29.7128 64.6122 29.3667C64.9717 29.009 65.1518 28.5994 65.1518 28.1379C65.1518 27.6417 64.9717 27.2148 64.6122 26.8572C64.2872 26.511 63.8751 26.3379 63.3764 26.3379ZM75.6332 24.988V24.2438H78.4181V31.98H75.6332V31.132C75.0997 31.8704 74.293 32.2396 73.2139 32.2396C72.1234 32.2396 71.1892 31.83 70.4116 31.0108C69.6692 30.2263 69.2977 29.2801 69.2977 28.1725C69.2977 26.9033 69.698 25.8707 70.4986 25.0745C71.2297 24.3476 72.1639 23.9842 73.3009 23.9842C74.2525 23.9842 75.0301 24.3188 75.6332 24.988ZM73.9275 26.3379C73.4636 26.3379 73.0572 26.5053 72.7091 26.8398C72.3379 27.1975 72.1521 27.6187 72.1521 28.1033C72.1521 28.6109 72.3323 29.0321 72.6917 29.3667C73.0633 29.7128 73.481 29.8859 73.9449 29.8859C74.4209 29.8859 74.8386 29.707 75.1981 29.3494C75.5462 29.0032 75.7203 28.5878 75.7203 28.1033C75.7203 27.6071 75.5405 27.186 75.1807 26.8398C74.8212 26.5053 74.4035 26.3379 73.9275 26.3379ZM80.3365 24.2438H85.1055C86.0337 24.2438 86.6951 24.4284 87.0898 24.7976C87.4496 25.1322 87.6293 25.5822 87.6293 26.1476C87.6293 26.5975 87.5192 26.9841 87.2986 27.3071C87.1128 27.5725 86.8287 27.786 86.4458 27.9475V27.9821C86.8983 28.0744 87.2695 28.2533 87.5597 28.5186C87.9309 28.8532 88.1167 29.2974 88.1167 29.8513C88.1167 30.4743 87.9309 30.9704 87.5597 31.3396C87.1302 31.7666 86.498 31.98 85.6625 31.98H80.3365V24.2438ZM83.1213 27.3244H84.1657C84.502 27.3244 84.74 27.2668 84.8793 27.1514C85.0185 27.0245 85.0881 26.8398 85.0881 26.5975C85.0881 26.3783 85.0242 26.2168 84.8967 26.113C84.7574 25.986 84.5081 25.9226 84.1483 25.9226H83.1213V27.3244ZM83.1213 30.3012H84.3571C84.6473 30.3012 84.8736 30.2263 85.0359 30.0762C85.1869 29.9262 85.2622 29.7417 85.2622 29.5224C85.2622 29.2801 85.1926 29.0897 85.0533 28.9513C84.9258 28.8244 84.6935 28.7609 84.3571 28.7609H83.1213V30.3012ZM98.1021 24.2438V31.98H95.3172V26.511H93.333V28.7263C93.333 29.9032 93.0602 30.7743 92.515 31.3396C92.0276 31.8358 91.2966 32.0838 90.3219 32.0838C89.962 32.0838 89.5908 32.0492 89.2079 31.98V29.9724C89.6953 30.0301 90.0608 29.932 90.3045 29.6782C90.5364 29.4359 90.6526 29.0205 90.6526 28.4321V24.2438H98.1021ZM108.27 28.3282V28.6225H102.474C102.474 29.1647 102.636 29.5974 102.961 29.9205C103.216 30.1743 103.599 30.3012 104.11 30.3012C104.458 30.3012 104.76 30.232 105.015 30.0936C105.235 29.9666 105.398 29.7936 105.502 29.5743H108.165C107.991 30.1974 107.678 30.7281 107.226 31.1666C106.483 31.8819 105.427 32.2396 104.058 32.2396C102.7 32.2396 101.627 31.8473 100.838 31.0627C100.072 30.3012 99.689 29.3263 99.689 28.1379C99.689 26.8918 100.078 25.8937 100.855 25.1438C101.632 24.3938 102.694 24.0188 104.04 24.0188C105.282 24.0188 106.28 24.3707 107.034 25.0745C107.858 25.8591 108.27 26.9437 108.27 28.3282ZM102.561 27.0302H105.711C105.63 26.6956 105.479 26.4187 105.259 26.1995C104.98 25.9226 104.597 25.7841 104.11 25.7841C103.634 25.7841 103.257 25.9226 102.979 26.1995C102.746 26.4533 102.607 26.7302 102.561 27.0302ZM109.878 31.98V24.2438H112.663V26.8572H115.256V24.2438H118.041V31.98H115.256V29.0378H112.663V31.98H109.878ZM119.958 24.2438H122.742V28.2244L125.823 24.2438H128.243V31.98H125.458V27.8956L122.412 31.98H119.958V24.2438ZM129.686 31.98L131.844 29.2801C131.31 29.1763 130.858 28.9513 130.487 28.6052C130.081 28.2013 129.878 27.6475 129.878 26.9437C129.878 26.1706 130.109 25.5418 130.574 25.0572C131.084 24.515 131.966 24.2438 133.219 24.2438H137.327V31.98H134.542V29.5224H134.316L132.61 31.98H129.686ZM134.542 27.8263V26.0437H133.707C133.301 26.0437 133.011 26.1245 132.836 26.286C132.674 26.4475 132.593 26.6668 132.593 26.9437C132.593 27.2321 132.68 27.4513 132.854 27.6014C133.04 27.7514 133.312 27.8263 133.672 27.8263H134.542Z" fill="#1A4B93"/>
</svg>
