<svg width="17" height="14" viewBox="0 0 17 14" fill="none" xmlns="http://www.w3.org/2000/svg">
<path fill-rule="evenodd" clip-rule="evenodd" d="M16.3333 2.3125C15.7396 2.60938 15.1458 2.70833 14.4531 2.80729C15.1458 2.41146 15.6406 1.81771 15.8385 1.02604C15.2448 1.42188 14.5521 1.61979 13.7604 1.81771C13.1667 1.22396 12.276 0.828125 11.3854 0.828125C9.70313 0.828125 8.21875 2.3125 8.21875 4.09375C8.21875 4.39063 8.21875 4.58854 8.31771 4.78646C5.64583 4.6875 3.17188 3.40104 1.58854 1.42188C1.29167 1.91667 1.19271 2.41146 1.19271 3.10417C1.19271 4.19271 1.78646 5.18229 2.67708 5.77604C2.18229 5.77604 1.6875 5.57813 1.19271 5.38021C1.19271 6.96354 2.28125 8.25 3.76563 8.54688C3.46875 8.64583 3.17188 8.64583 2.875 8.64583C2.67708 8.64583 2.47917 8.64583 2.28125 8.54688C2.67708 9.83333 3.86458 10.8229 5.34896 10.8229C4.26042 11.7135 2.875 12.2083 1.29167 12.2083C0.994792 12.2083 0.796875 12.2083 0.5 12.2083C1.98438 13.099 3.66667 13.6927 5.44792 13.6927C11.3854 13.6927 14.651 8.74479 14.651 4.48958C14.651 4.39063 14.651 4.19271 14.651 4.09375C15.3438 3.59896 15.9375 3.00521 16.3333 2.3125Z" fill="#1A4B93"/>
</svg>
